G04 #@! TF.FileFunction,Soldermask,Top*
%FSLAX46Y46*%
G04 Gerber Fmt 4.6, Leading zero omitted, Abs format (unit mm)*
G04 Created by KiCad (PCBNEW 4.0.7) date 10/28/18 13:34:34*
%MOMM*%
%LPD*%
G01*
G04 APERTURE LIST*
%ADD10C,0.100000*%
%ADD11C,1.974800*%
%ADD12R,2.200000X2.200000*%
%ADD13O,2.200000X2.200000*%
%ADD14R,2.100000X2.100000*%
%ADD15O,2.100000X2.100000*%
%ADD16C,2.000000*%
%ADD17O,2.000000X2.000000*%
%ADD18C,1.924000*%
%ADD19C,6.800000*%
%ADD20C,1.000000*%
%ADD21R,2.400000X2.400000*%
%ADD22C,2.400000*%
%ADD23R,2.000000X2.000000*%
%ADD24C,4.400500*%
G04 APERTURE END LIST*
D10*
X35488497Y1354679D02*
G75*
G02X38608000Y3027680I3094103J-2024475D01*
G01*
X35490167Y1355438D02*
G75*
G02X32962545Y56661I-2527622J1810183D01*
G01*
X32964120Y55880D02*
X9276080Y31244D01*
X6162040Y1689436D02*
G75*
G03X3583833Y3061019I-2578207J-1737377D01*
G01*
X6161607Y1686268D02*
G75*
G03X9276080Y30480I3114473J2101208D01*
G01*
X6122129Y46427402D02*
G75*
G02X9276080Y48127920I3143791J-2055714D01*
G01*
X6124118Y46432844D02*
G75*
G02X3586480Y45100240I-2550445J1774261D01*
G01*
X35459774Y46730191D02*
G75*
G03X38582600Y45074840I3112666J2098769D01*
G01*
X35458400Y46730920D02*
G75*
G03X32880193Y48102503I-2578207J-1737377D01*
G01*
X42077640Y41584880D02*
G75*
G03X38577520Y45074840I-3495040J-5080D01*
G01*
X38608058Y3027735D02*
G75*
G03X42113200Y6558280I-20378J3525465D01*
G01*
X3585451Y45100235D02*
G75*
G03X91440Y41600120I6109J-3500115D01*
G01*
X116782Y6555222D02*
G75*
G03X3586480Y3063240I3490018J-2022D01*
G01*
X42113200Y6553200D02*
X42077640Y41584880D01*
X32882840Y48102520D02*
X9276080Y48127920D01*
X91440Y41605200D02*
X116840Y6553200D01*
D11*
X13802360Y5389880D03*
X29042360Y5389880D03*
X13802360Y7929880D03*
X29042360Y7929880D03*
X13802360Y10469880D03*
X29042360Y10469880D03*
X13802360Y13009880D03*
X29042360Y13009880D03*
X13802360Y15549880D03*
X29042360Y15549880D03*
X13802360Y18089880D03*
X29042360Y18089880D03*
X13802360Y20629880D03*
X29042360Y20629880D03*
X13802360Y23169880D03*
X29042360Y23169880D03*
X13802360Y25709880D03*
X29042360Y25709880D03*
X13802360Y28249880D03*
X29042360Y28249880D03*
X13802360Y30789880D03*
X29042360Y30789880D03*
X13802360Y33329880D03*
X29042360Y33329880D03*
X13802360Y35869880D03*
X29042360Y35869880D03*
X13802360Y38409880D03*
X29042360Y38409880D03*
X13802360Y40949880D03*
X29042360Y40949880D03*
D12*
X17810480Y8427720D03*
D13*
X25430480Y8427720D03*
D14*
X8509000Y45242480D03*
D15*
X8509000Y42702480D03*
X8509000Y40162480D03*
D14*
X11181080Y45242480D03*
D15*
X11181080Y42702480D03*
X11181080Y40162480D03*
D16*
X25486360Y14950440D03*
D17*
X17866360Y14950440D03*
D16*
X17881600Y12247880D03*
D17*
X25501600Y12247880D03*
D14*
X31607760Y35874960D03*
D15*
X31607760Y38414960D03*
X31607760Y40954960D03*
D14*
X31562040Y20604480D03*
D15*
X31562040Y23144480D03*
X31562040Y25684480D03*
X31562040Y28224480D03*
X31562040Y30764480D03*
X31562040Y33304480D03*
D14*
X11176000Y33309560D03*
D15*
X11176000Y30769560D03*
X11176000Y28229560D03*
X11176000Y25689560D03*
X11176000Y23149560D03*
X11176000Y20609560D03*
D14*
X6075680Y33314640D03*
D15*
X6075680Y30774640D03*
X6075680Y28234640D03*
X6075680Y25694640D03*
X6075680Y23154640D03*
X6075680Y20614640D03*
D14*
X36697920Y20589240D03*
D15*
X36697920Y23129240D03*
X36697920Y25669240D03*
X36697920Y28209240D03*
X36697920Y30749240D03*
X36697920Y33289240D03*
D18*
X16946880Y39334440D03*
X26090880Y39334440D03*
X16946880Y24094440D03*
X26086880Y24094440D03*
D14*
X34117280Y20604480D03*
D15*
X34117280Y23144480D03*
X34117280Y25684480D03*
X34117280Y28224480D03*
X34117280Y30764480D03*
X34117280Y33304480D03*
D14*
X8641080Y33309560D03*
D15*
X8641080Y30769560D03*
X8641080Y28229560D03*
X8641080Y25689560D03*
X8641080Y23149560D03*
X8641080Y20609560D03*
D19*
X38587680Y41574720D03*
D20*
X40987680Y41574720D03*
X40284736Y39877664D03*
X38587680Y39174720D03*
X36890624Y39877664D03*
X36187680Y41574720D03*
X36890624Y43271776D03*
X38587680Y43974720D03*
X40284736Y43271776D03*
D19*
X3591560Y41589960D03*
D20*
X5991560Y41589960D03*
X5288616Y39892904D03*
X3591560Y39189960D03*
X1894504Y39892904D03*
X1191560Y41589960D03*
X1894504Y43287016D03*
X3591560Y43989960D03*
X5288616Y43287016D03*
D19*
X3606800Y6563360D03*
D20*
X6006800Y6563360D03*
X5303856Y4866304D03*
X3606800Y4163360D03*
X1909744Y4866304D03*
X1206800Y6563360D03*
X1909744Y8260416D03*
X3606800Y8963360D03*
X5303856Y8260416D03*
D19*
X38613080Y6532880D03*
D20*
X41013080Y6532880D03*
X40310136Y4835824D03*
X38613080Y4132880D03*
X36916024Y4835824D03*
X36213080Y6532880D03*
X36916024Y8229936D03*
X38613080Y8932880D03*
X40310136Y8229936D03*
D14*
X27660600Y2184400D03*
D15*
X25120600Y2184400D03*
X22580600Y2184400D03*
X20040600Y2184400D03*
X17500600Y2184400D03*
X14960600Y2184400D03*
D21*
X32923480Y13970000D03*
D22*
X37923480Y13970000D03*
D23*
X9951720Y14030960D03*
D16*
X6151720Y14030960D03*
D24*
X27711400Y45313600D03*
X33030160Y45313600D03*
M02*
