G04 #@! TF.FileFunction,Copper,L1,Top,Signal*
%FSLAX46Y46*%
G04 Gerber Fmt 4.6, Leading zero omitted, Abs format (unit mm)*
G04 Created by KiCad (PCBNEW 4.0.7) date 10/28/18 13:34:34*
%MOMM*%
%LPD*%
G01*
G04 APERTURE LIST*
%ADD10C,0.100000*%
%ADD11C,1.574800*%
%ADD12R,1.800000X1.800000*%
%ADD13O,1.800000X1.800000*%
%ADD14R,1.700000X1.700000*%
%ADD15O,1.700000X1.700000*%
%ADD16C,1.600000*%
%ADD17O,1.600000X1.600000*%
%ADD18C,1.524000*%
%ADD19C,6.400000*%
%ADD20C,0.600000*%
%ADD21R,2.000000X2.000000*%
%ADD22C,2.000000*%
%ADD23R,1.600000X1.600000*%
%ADD24C,4.000500*%
%ADD25C,2.000000*%
%ADD26C,0.250000*%
%ADD27C,1.000000*%
%ADD28C,0.700000*%
%ADD29C,0.300000*%
G04 APERTURE END LIST*
D10*
X35488497Y1354679D02*
G75*
G02X38608000Y3027680I3094103J-2024475D01*
G01*
X35490167Y1355438D02*
G75*
G02X32962545Y56661I-2527622J1810183D01*
G01*
X32964120Y55880D02*
X9276080Y31244D01*
X6162040Y1689436D02*
G75*
G03X3583833Y3061019I-2578207J-1737377D01*
G01*
X6161607Y1686268D02*
G75*
G03X9276080Y30480I3114473J2101208D01*
G01*
X6122129Y46427402D02*
G75*
G02X9276080Y48127920I3143791J-2055714D01*
G01*
X6124118Y46432844D02*
G75*
G02X3586480Y45100240I-2550445J1774261D01*
G01*
X35459774Y46730191D02*
G75*
G03X38582600Y45074840I3112666J2098769D01*
G01*
X35458400Y46730920D02*
G75*
G03X32880193Y48102503I-2578207J-1737377D01*
G01*
X42077640Y41584880D02*
G75*
G03X38577520Y45074840I-3495040J-5080D01*
G01*
X38608058Y3027735D02*
G75*
G03X42113200Y6558280I-20378J3525465D01*
G01*
X3585451Y45100235D02*
G75*
G03X91440Y41600120I6109J-3500115D01*
G01*
X116782Y6555222D02*
G75*
G03X3586480Y3063240I3490018J-2022D01*
G01*
X42113200Y6553200D02*
X42077640Y41584880D01*
X32882840Y48102520D02*
X9276080Y48127920D01*
X91440Y41605200D02*
X116840Y6553200D01*
D11*
X13802360Y5389880D03*
X29042360Y5389880D03*
X13802360Y7929880D03*
X29042360Y7929880D03*
X13802360Y10469880D03*
X29042360Y10469880D03*
X13802360Y13009880D03*
X29042360Y13009880D03*
X13802360Y15549880D03*
X29042360Y15549880D03*
X13802360Y18089880D03*
X29042360Y18089880D03*
X13802360Y20629880D03*
X29042360Y20629880D03*
X13802360Y23169880D03*
X29042360Y23169880D03*
X13802360Y25709880D03*
X29042360Y25709880D03*
X13802360Y28249880D03*
X29042360Y28249880D03*
X13802360Y30789880D03*
X29042360Y30789880D03*
X13802360Y33329880D03*
X29042360Y33329880D03*
X13802360Y35869880D03*
X29042360Y35869880D03*
X13802360Y38409880D03*
X29042360Y38409880D03*
X13802360Y40949880D03*
X29042360Y40949880D03*
D12*
X17810480Y8427720D03*
D13*
X25430480Y8427720D03*
D14*
X8509000Y45242480D03*
D15*
X8509000Y42702480D03*
X8509000Y40162480D03*
D14*
X11181080Y45242480D03*
D15*
X11181080Y42702480D03*
X11181080Y40162480D03*
D16*
X25486360Y14950440D03*
D17*
X17866360Y14950440D03*
D16*
X17881600Y12247880D03*
D17*
X25501600Y12247880D03*
D14*
X31607760Y35874960D03*
D15*
X31607760Y38414960D03*
X31607760Y40954960D03*
D14*
X31562040Y20604480D03*
D15*
X31562040Y23144480D03*
X31562040Y25684480D03*
X31562040Y28224480D03*
X31562040Y30764480D03*
X31562040Y33304480D03*
D14*
X11176000Y33309560D03*
D15*
X11176000Y30769560D03*
X11176000Y28229560D03*
X11176000Y25689560D03*
X11176000Y23149560D03*
X11176000Y20609560D03*
D14*
X6075680Y33314640D03*
D15*
X6075680Y30774640D03*
X6075680Y28234640D03*
X6075680Y25694640D03*
X6075680Y23154640D03*
X6075680Y20614640D03*
D14*
X36697920Y20589240D03*
D15*
X36697920Y23129240D03*
X36697920Y25669240D03*
X36697920Y28209240D03*
X36697920Y30749240D03*
X36697920Y33289240D03*
D18*
X16946880Y39334440D03*
X26090880Y39334440D03*
X16946880Y24094440D03*
X26086880Y24094440D03*
D14*
X34117280Y20604480D03*
D15*
X34117280Y23144480D03*
X34117280Y25684480D03*
X34117280Y28224480D03*
X34117280Y30764480D03*
X34117280Y33304480D03*
D14*
X8641080Y33309560D03*
D15*
X8641080Y30769560D03*
X8641080Y28229560D03*
X8641080Y25689560D03*
X8641080Y23149560D03*
X8641080Y20609560D03*
D19*
X38587680Y41574720D03*
D20*
X40987680Y41574720D03*
X40284736Y39877664D03*
X38587680Y39174720D03*
X36890624Y39877664D03*
X36187680Y41574720D03*
X36890624Y43271776D03*
X38587680Y43974720D03*
X40284736Y43271776D03*
D19*
X3591560Y41589960D03*
D20*
X5991560Y41589960D03*
X5288616Y39892904D03*
X3591560Y39189960D03*
X1894504Y39892904D03*
X1191560Y41589960D03*
X1894504Y43287016D03*
X3591560Y43989960D03*
X5288616Y43287016D03*
D19*
X3606800Y6563360D03*
D20*
X6006800Y6563360D03*
X5303856Y4866304D03*
X3606800Y4163360D03*
X1909744Y4866304D03*
X1206800Y6563360D03*
X1909744Y8260416D03*
X3606800Y8963360D03*
X5303856Y8260416D03*
D19*
X38613080Y6532880D03*
D20*
X41013080Y6532880D03*
X40310136Y4835824D03*
X38613080Y4132880D03*
X36916024Y4835824D03*
X36213080Y6532880D03*
X36916024Y8229936D03*
X38613080Y8932880D03*
X40310136Y8229936D03*
D14*
X27660600Y2184400D03*
D15*
X25120600Y2184400D03*
X22580600Y2184400D03*
X20040600Y2184400D03*
X17500600Y2184400D03*
X14960600Y2184400D03*
D21*
X32923480Y13970000D03*
D22*
X37923480Y13970000D03*
D23*
X9951720Y14030960D03*
D16*
X6151720Y14030960D03*
D24*
X27711400Y45313600D03*
X33030160Y45313600D03*
D25*
X8509000Y42702480D02*
X11181080Y42702480D01*
X15341600Y45313600D02*
X27711400Y45313600D01*
X11181080Y42702480D02*
X12383161Y42702480D01*
X12383161Y42702480D02*
X14994281Y45313600D01*
X14994281Y45313600D02*
X15341600Y45313600D01*
D26*
X29042360Y5389880D02*
X20706080Y5389880D01*
X20706080Y5389880D02*
X17500600Y2184400D01*
D27*
X25501600Y12247880D02*
X28280360Y12247880D01*
X28280360Y12247880D02*
X29042360Y13009880D01*
X6151720Y14030960D02*
X12252800Y7929880D01*
X12252800Y7929880D02*
X13802360Y7929880D01*
X37923480Y13970000D02*
X37923480Y12069646D01*
X37923480Y12069646D02*
X29588235Y3734401D01*
X23430599Y3034399D02*
X22580600Y2184400D01*
X29588235Y3734401D02*
X24130601Y3734401D01*
X24130601Y3734401D02*
X23430599Y3034399D01*
X6075680Y30774640D02*
X6075680Y33314640D01*
X6075680Y28234640D02*
X6075680Y30774640D01*
X6075680Y25694640D02*
X6075680Y28234640D01*
X6075680Y23154640D02*
X6075680Y25694640D01*
X6075680Y20614640D02*
X6075680Y23154640D01*
X6151720Y14030960D02*
X6151720Y20538600D01*
X6151720Y20538600D02*
X6075680Y20614640D01*
X31206440Y11973560D02*
X35927040Y11973560D01*
X35927040Y11973560D02*
X37923480Y13970000D01*
X30957519Y12222481D02*
X31206440Y11973560D01*
X29042360Y13009880D02*
X29829759Y12222481D01*
X29829759Y12222481D02*
X30957519Y12222481D01*
X36697920Y30749240D02*
X36697920Y33289240D01*
X36697920Y28209240D02*
X36697920Y30749240D01*
X36697920Y28209240D02*
X36697920Y25669240D01*
X36697920Y23129240D02*
X36697920Y25669240D01*
X36697920Y20589240D02*
X36697920Y23129240D01*
X36697920Y20589240D02*
X36697920Y15195560D01*
X36697920Y15195560D02*
X37923480Y13970000D01*
X8509000Y45242480D02*
X11181080Y45242480D01*
D26*
X25430480Y8427720D02*
X28544520Y8427720D01*
X28544520Y8427720D02*
X29042360Y7929880D01*
X17866360Y14950440D02*
X14401800Y14950440D01*
X14401800Y14950440D02*
X13802360Y15549880D01*
X17866360Y14950440D02*
X17866360Y12263120D01*
X17866360Y12263120D02*
X17881600Y12247880D01*
X11176000Y20609560D02*
X13782040Y20609560D01*
X13782040Y20609560D02*
X13802360Y20629880D01*
X29042360Y20629880D02*
X31536640Y20629880D01*
X31536640Y20629880D02*
X31562040Y20604480D01*
X11176000Y23149560D02*
X13782040Y23149560D01*
X13782040Y23149560D02*
X13802360Y23169880D01*
X29042360Y23169880D02*
X31536640Y23169880D01*
X31536640Y23169880D02*
X31562040Y23144480D01*
X11176000Y25689560D02*
X13782040Y25689560D01*
X13782040Y25689560D02*
X13802360Y25709880D01*
X29042360Y25709880D02*
X31536640Y25709880D01*
X31536640Y25709880D02*
X31562040Y25684480D01*
X11176000Y28229560D02*
X13782040Y28229560D01*
X13782040Y28229560D02*
X13802360Y28249880D01*
X29042360Y28249880D02*
X31536640Y28249880D01*
X31536640Y28249880D02*
X31562040Y28224480D01*
X11176000Y30769560D02*
X13782040Y30769560D01*
X13782040Y30769560D02*
X13802360Y30789880D01*
X29042360Y30789880D02*
X31536640Y30789880D01*
X31536640Y30789880D02*
X31562040Y30764480D01*
X11176000Y33309560D02*
X13782040Y33309560D01*
X13782040Y33309560D02*
X13802360Y33329880D01*
X29042360Y33329880D02*
X31536640Y33329880D01*
X31536640Y33329880D02*
X31562040Y33304480D01*
X29042360Y35869880D02*
X31602680Y35869880D01*
X31602680Y35869880D02*
X31607760Y35874960D01*
X29042360Y38409880D02*
X31602680Y38409880D01*
X31602680Y38409880D02*
X31607760Y38414960D01*
X29042360Y40949880D02*
X31602680Y40949880D01*
X31602680Y40949880D02*
X31607760Y40954960D01*
D28*
X9951720Y14030960D02*
X12781280Y14030960D01*
X12781280Y14030960D02*
X13802360Y13009880D01*
D29*
X15533970Y39699530D02*
X18161000Y42326560D01*
X18161000Y42326560D02*
X19939000Y42326560D01*
X15533970Y39669720D02*
X15533970Y39699530D01*
X15062200Y37114480D02*
X15062200Y37195760D01*
X15062200Y37195760D02*
X16946880Y39080440D01*
X16946880Y39080440D02*
X16946880Y39334440D01*
X15062200Y37134800D02*
X15062200Y37449760D01*
X15062200Y37449760D02*
X16184881Y38572441D01*
X16184881Y38572441D02*
X16946880Y39334440D01*
X15062200Y37114480D02*
X15062200Y37134800D01*
X14732000Y37144960D02*
X16647160Y35229800D01*
X16647160Y35229800D02*
X16946880Y35229800D01*
X14721840Y37144960D02*
X14732000Y37144960D01*
X15062200Y37144960D02*
X14721840Y37144960D01*
X14721840Y37144960D02*
X11326480Y37144960D01*
X15062200Y37449760D02*
X15026640Y37449760D01*
X15026640Y37449760D02*
X14721840Y37144960D01*
X15062200Y37144960D02*
X15062200Y37449760D01*
X16809720Y37144960D02*
X15062200Y37144960D01*
X15062200Y37144960D02*
X15062200Y37114480D01*
D27*
X16946880Y37282120D02*
X16946880Y35229800D01*
X16946880Y35229800D02*
X16946880Y34650680D01*
D29*
X15062200Y37114480D02*
X16946880Y35229800D01*
X16946880Y34650680D02*
X15341600Y34650680D01*
X15341600Y34650680D02*
X10154920Y34650680D01*
X16946880Y33969960D02*
X16022320Y33969960D01*
X16022320Y33969960D02*
X15341600Y34650680D01*
X9560560Y34056320D02*
X9387840Y34056320D01*
X9387840Y34056320D02*
X8641080Y33309560D01*
X10154920Y34650680D02*
X9560560Y34056320D01*
D27*
X16946880Y34650680D02*
X16946880Y33969960D01*
D29*
X16946880Y37282120D02*
X16809720Y37144960D01*
X11326480Y37144960D02*
X8641080Y34459560D01*
X8641080Y34459560D02*
X8641080Y33309560D01*
D27*
X16946880Y39334440D02*
X16946880Y37282120D01*
D29*
X12837160Y39669720D02*
X8641080Y35473640D01*
X8641080Y35473640D02*
X8641080Y33309560D01*
X15533970Y39669720D02*
X12837160Y39669720D01*
X16946880Y39334440D02*
X15869250Y39334440D01*
X15869250Y39334440D02*
X15533970Y39669720D01*
D27*
X24028400Y26888440D02*
X24028400Y16408400D01*
X24028400Y16408400D02*
X25486360Y14950440D01*
X16946880Y33969960D02*
X24028400Y26888440D01*
X8641080Y23149560D02*
X8641080Y20609560D01*
X8641080Y25689560D02*
X8641080Y23149560D01*
X8641080Y28229560D02*
X8641080Y25689560D01*
X8641080Y30769560D02*
X8641080Y28229560D01*
X8641080Y33309560D02*
X8641080Y30769560D01*
X34117280Y20604480D02*
X34117280Y15163800D01*
X34117280Y15163800D02*
X32923480Y13970000D01*
X34117280Y23144480D02*
X34117280Y20604480D01*
X34117280Y25684480D02*
X34117280Y23144480D01*
X34117280Y28224480D02*
X34117280Y25684480D01*
X34117280Y30764480D02*
X34117280Y28224480D01*
X34117280Y33304480D02*
X34117280Y30764480D01*
X33030160Y45313600D02*
X33030160Y42484820D01*
X33030160Y42484820D02*
X34117280Y41397700D01*
X34117280Y41397700D02*
X34117280Y34506561D01*
X34117280Y34506561D02*
X34117280Y33304480D01*
X28158440Y42326560D02*
X19939000Y42326560D01*
X19939000Y42326560D02*
X16946880Y39334440D01*
X28445229Y42613349D02*
X28158440Y42326560D01*
X33030160Y45313600D02*
X30329909Y42613349D01*
X30329909Y42613349D02*
X28445229Y42613349D01*
D26*
G36*
X27457533Y47683357D02*
X27037524Y47603236D01*
X26605631Y47428740D01*
X26215858Y47173679D01*
X25883049Y46847769D01*
X25774064Y46688600D01*
X14994281Y46688600D01*
X14867858Y46676204D01*
X14741348Y46665136D01*
X14734403Y46663118D01*
X14727209Y46662413D01*
X14605623Y46625704D01*
X14483650Y46590268D01*
X14477232Y46586941D01*
X14470309Y46584851D01*
X14358158Y46525219D01*
X14245402Y46466772D01*
X14239751Y46462261D01*
X14233368Y46458867D01*
X14134939Y46378590D01*
X14035679Y46299352D01*
X14025616Y46289429D01*
X14025409Y46289260D01*
X14025251Y46289069D01*
X14022009Y46285872D01*
X12664080Y44927943D01*
X12664080Y45082230D01*
X12505830Y45240480D01*
X11183080Y45240480D01*
X11183080Y45220480D01*
X11179080Y45220480D01*
X11179080Y45240480D01*
X9856330Y45240480D01*
X9845040Y45229190D01*
X9833750Y45240480D01*
X8511000Y45240480D01*
X8511000Y45220480D01*
X8507000Y45220480D01*
X8507000Y45240480D01*
X7184250Y45240480D01*
X7026000Y45082230D01*
X7026000Y44330135D01*
X7050326Y44207841D01*
X7098043Y44092642D01*
X7167317Y43988966D01*
X7255486Y43900797D01*
X7359162Y43831523D01*
X7474361Y43783806D01*
X7596655Y43759480D01*
X7639861Y43759480D01*
X7540128Y43678140D01*
X7369073Y43471370D01*
X7241438Y43235314D01*
X7162084Y42978962D01*
X7134034Y42712079D01*
X7158355Y42444831D01*
X7234122Y42187396D01*
X7358449Y41949581D01*
X7526600Y41740443D01*
X7732170Y41567949D01*
X7967330Y41438669D01*
X8223121Y41357527D01*
X8237761Y41355885D01*
X8036262Y41295049D01*
X7825168Y41182809D01*
X7639896Y41031704D01*
X7487502Y40847491D01*
X7373791Y40637187D01*
X7303093Y40408800D01*
X7278103Y40171032D01*
X7299771Y39932938D01*
X7367273Y39703587D01*
X7478037Y39491715D01*
X7627844Y39305392D01*
X7810988Y39151716D01*
X8020494Y39036539D01*
X8248381Y38964249D01*
X8485969Y38937599D01*
X8503073Y38937480D01*
X8514927Y38937480D01*
X8752864Y38960810D01*
X8981738Y39029911D01*
X9192832Y39142151D01*
X9378104Y39293256D01*
X9530498Y39477469D01*
X9644209Y39687773D01*
X9714907Y39916160D01*
X9739897Y40153928D01*
X9718229Y40392022D01*
X9650727Y40621373D01*
X9539963Y40833245D01*
X9390156Y41019568D01*
X9207012Y41173244D01*
X8997506Y41288421D01*
X8874376Y41327480D01*
X10815759Y41327480D01*
X10708342Y41295049D01*
X10497248Y41182809D01*
X10311976Y41031704D01*
X10159582Y40847491D01*
X10045871Y40637187D01*
X9975173Y40408800D01*
X9950183Y40171032D01*
X9971851Y39932938D01*
X10039353Y39703587D01*
X10150117Y39491715D01*
X10299924Y39305392D01*
X10483068Y39151716D01*
X10692574Y39036539D01*
X10920461Y38964249D01*
X11158049Y38937599D01*
X11175153Y38937480D01*
X11187007Y38937480D01*
X11381531Y38956553D01*
X8269849Y35844871D01*
X8239101Y35807437D01*
X8207895Y35770248D01*
X8206562Y35767823D01*
X8204814Y35765695D01*
X8181921Y35723001D01*
X8158534Y35680460D01*
X8157700Y35677830D01*
X8156394Y35675395D01*
X8142195Y35628953D01*
X8127553Y35582794D01*
X8127246Y35580056D01*
X8126437Y35577410D01*
X8121531Y35529109D01*
X8116131Y35480970D01*
X8116093Y35475576D01*
X8116083Y35475473D01*
X8116092Y35475377D01*
X8116080Y35473640D01*
X8116080Y34536374D01*
X7791080Y34536374D01*
X7731363Y34531612D01*
X7630076Y34500245D01*
X7541537Y34441903D01*
X7510885Y34405938D01*
X7486637Y34464478D01*
X7417363Y34568154D01*
X7329194Y34656323D01*
X7225518Y34725597D01*
X7110319Y34773314D01*
X6988025Y34797640D01*
X6235930Y34797640D01*
X6077680Y34639390D01*
X6077680Y33316640D01*
X6097680Y33316640D01*
X6097680Y33312640D01*
X6077680Y33312640D01*
X6077680Y30776640D01*
X6097680Y30776640D01*
X6097680Y30772640D01*
X6077680Y30772640D01*
X6077680Y28236640D01*
X6097680Y28236640D01*
X6097680Y28232640D01*
X6077680Y28232640D01*
X6077680Y25696640D01*
X6097680Y25696640D01*
X6097680Y25692640D01*
X6077680Y25692640D01*
X6077680Y23156640D01*
X6097680Y23156640D01*
X6097680Y23152640D01*
X6077680Y23152640D01*
X6077680Y20616640D01*
X6097680Y20616640D01*
X6097680Y20612640D01*
X6077680Y20612640D01*
X6077680Y19289891D01*
X6309648Y19150212D01*
X6590848Y19223995D01*
X6852251Y19351220D01*
X7083810Y19526998D01*
X7276627Y19744573D01*
X7423293Y19995584D01*
X7488992Y20185871D01*
X7499353Y20150667D01*
X7610117Y19938795D01*
X7759924Y19752472D01*
X7943068Y19598796D01*
X8152574Y19483619D01*
X8380461Y19411329D01*
X8618049Y19384679D01*
X8635153Y19384560D01*
X8647007Y19384560D01*
X8884944Y19407890D01*
X9113818Y19476991D01*
X9324912Y19589231D01*
X9510184Y19740336D01*
X9662578Y19924549D01*
X9776289Y20134853D01*
X9846987Y20363240D01*
X9871977Y20601008D01*
X9870421Y20618112D01*
X9945103Y20618112D01*
X9966771Y20380018D01*
X10034273Y20150667D01*
X10145037Y19938795D01*
X10294844Y19752472D01*
X10477988Y19598796D01*
X10687494Y19483619D01*
X10915381Y19411329D01*
X11152969Y19384679D01*
X11170073Y19384560D01*
X11181927Y19384560D01*
X11419864Y19407890D01*
X11648738Y19476991D01*
X11859832Y19589231D01*
X12045104Y19740336D01*
X12197498Y19924549D01*
X12297533Y20109560D01*
X12758123Y20109560D01*
X12763500Y20095979D01*
X12886987Y19904364D01*
X13045340Y19740385D01*
X13232528Y19610286D01*
X13441421Y19519023D01*
X13664061Y19470072D01*
X13891970Y19465298D01*
X14116465Y19504883D01*
X14328996Y19587318D01*
X14521467Y19709465D01*
X14686548Y19866669D01*
X14817951Y20052944D01*
X14910670Y20261194D01*
X14961174Y20483488D01*
X14964809Y20743859D01*
X14920532Y20967476D01*
X14833664Y21178234D01*
X14707514Y21368105D01*
X14546887Y21529858D01*
X14357900Y21657331D01*
X14147754Y21745668D01*
X13924452Y21791505D01*
X13696499Y21793097D01*
X13472578Y21750382D01*
X13261219Y21664987D01*
X13070472Y21540165D01*
X12907602Y21380671D01*
X12778813Y21192580D01*
X12743230Y21109560D01*
X12296237Y21109560D01*
X12206963Y21280325D01*
X12057156Y21466648D01*
X11874012Y21620324D01*
X11664506Y21735501D01*
X11436619Y21807791D01*
X11199031Y21834441D01*
X11181927Y21834560D01*
X11170073Y21834560D01*
X10932136Y21811230D01*
X10703262Y21742129D01*
X10492168Y21629889D01*
X10306896Y21478784D01*
X10154502Y21294571D01*
X10040791Y21084267D01*
X9970093Y20855880D01*
X9945103Y20618112D01*
X9870421Y20618112D01*
X9850309Y20839102D01*
X9782807Y21068453D01*
X9672043Y21280325D01*
X9522236Y21466648D01*
X9516080Y21471813D01*
X9516080Y22287463D01*
X9662578Y22464549D01*
X9776289Y22674853D01*
X9846987Y22903240D01*
X9871977Y23141008D01*
X9870421Y23158112D01*
X9945103Y23158112D01*
X9966771Y22920018D01*
X10034273Y22690667D01*
X10145037Y22478795D01*
X10294844Y22292472D01*
X10477988Y22138796D01*
X10687494Y22023619D01*
X10915381Y21951329D01*
X11152969Y21924679D01*
X11170073Y21924560D01*
X11181927Y21924560D01*
X11419864Y21947890D01*
X11648738Y22016991D01*
X11859832Y22129231D01*
X12045104Y22280336D01*
X12197498Y22464549D01*
X12297533Y22649560D01*
X12758123Y22649560D01*
X12763500Y22635979D01*
X12886987Y22444364D01*
X13045340Y22280385D01*
X13232528Y22150286D01*
X13441421Y22059023D01*
X13664061Y22010072D01*
X13891970Y22005298D01*
X14116465Y22044883D01*
X14328996Y22127318D01*
X14521467Y22249465D01*
X14686548Y22406669D01*
X14817951Y22592944D01*
X14910670Y22801194D01*
X14961174Y23023488D01*
X14964809Y23283859D01*
X14920532Y23507476D01*
X14833664Y23718234D01*
X14707514Y23908105D01*
X14617413Y23998838D01*
X15808386Y23998838D01*
X15848638Y23779524D01*
X15930721Y23572205D01*
X16051509Y23384778D01*
X16206402Y23224382D01*
X16389500Y23097126D01*
X16593828Y23007857D01*
X16811603Y22959976D01*
X17034532Y22955306D01*
X17254121Y22994026D01*
X17462008Y23074660D01*
X17650274Y23194137D01*
X17811748Y23347906D01*
X17940279Y23530111D01*
X18030972Y23733811D01*
X18080372Y23951247D01*
X18083928Y24205929D01*
X18040618Y24424659D01*
X17955649Y24630812D01*
X17832255Y24816534D01*
X17675138Y24974752D01*
X17490281Y25099439D01*
X17284727Y25185846D01*
X17066304Y25230682D01*
X16843332Y25232239D01*
X16624305Y25190457D01*
X16417564Y25106928D01*
X16230985Y24984834D01*
X16071673Y24828825D01*
X15945699Y24644844D01*
X15857859Y24439898D01*
X15811499Y24221793D01*
X15808386Y23998838D01*
X14617413Y23998838D01*
X14546887Y24069858D01*
X14357900Y24197331D01*
X14147754Y24285668D01*
X13924452Y24331505D01*
X13696499Y24333097D01*
X13472578Y24290382D01*
X13261219Y24204987D01*
X13070472Y24080165D01*
X12907602Y23920671D01*
X12778813Y23732580D01*
X12743230Y23649560D01*
X12296237Y23649560D01*
X12206963Y23820325D01*
X12057156Y24006648D01*
X11874012Y24160324D01*
X11664506Y24275501D01*
X11436619Y24347791D01*
X11199031Y24374441D01*
X11181927Y24374560D01*
X11170073Y24374560D01*
X10932136Y24351230D01*
X10703262Y24282129D01*
X10492168Y24169889D01*
X10306896Y24018784D01*
X10154502Y23834571D01*
X10040791Y23624267D01*
X9970093Y23395880D01*
X9945103Y23158112D01*
X9870421Y23158112D01*
X9850309Y23379102D01*
X9782807Y23608453D01*
X9672043Y23820325D01*
X9522236Y24006648D01*
X9516080Y24011813D01*
X9516080Y24827463D01*
X9662578Y25004549D01*
X9776289Y25214853D01*
X9846987Y25443240D01*
X9871977Y25681008D01*
X9870421Y25698112D01*
X9945103Y25698112D01*
X9966771Y25460018D01*
X10034273Y25230667D01*
X10145037Y25018795D01*
X10294844Y24832472D01*
X10477988Y24678796D01*
X10687494Y24563619D01*
X10915381Y24491329D01*
X11152969Y24464679D01*
X11170073Y24464560D01*
X11181927Y24464560D01*
X11419864Y24487890D01*
X11648738Y24556991D01*
X11859832Y24669231D01*
X12045104Y24820336D01*
X12197498Y25004549D01*
X12297533Y25189560D01*
X12758123Y25189560D01*
X12763500Y25175979D01*
X12886987Y24984364D01*
X13045340Y24820385D01*
X13232528Y24690286D01*
X13441421Y24599023D01*
X13664061Y24550072D01*
X13891970Y24545298D01*
X14116465Y24584883D01*
X14328996Y24667318D01*
X14521467Y24789465D01*
X14686548Y24946669D01*
X14817951Y25132944D01*
X14910670Y25341194D01*
X14961174Y25563488D01*
X14964809Y25823859D01*
X14920532Y26047476D01*
X14833664Y26258234D01*
X14707514Y26448105D01*
X14546887Y26609858D01*
X14357900Y26737331D01*
X14147754Y26825668D01*
X13924452Y26871505D01*
X13696499Y26873097D01*
X13472578Y26830382D01*
X13261219Y26744987D01*
X13070472Y26620165D01*
X12907602Y26460671D01*
X12778813Y26272580D01*
X12743230Y26189560D01*
X12296237Y26189560D01*
X12206963Y26360325D01*
X12057156Y26546648D01*
X11874012Y26700324D01*
X11664506Y26815501D01*
X11436619Y26887791D01*
X11199031Y26914441D01*
X11181927Y26914560D01*
X11170073Y26914560D01*
X10932136Y26891230D01*
X10703262Y26822129D01*
X10492168Y26709889D01*
X10306896Y26558784D01*
X10154502Y26374571D01*
X10040791Y26164267D01*
X9970093Y25935880D01*
X9945103Y25698112D01*
X9870421Y25698112D01*
X9850309Y25919102D01*
X9782807Y26148453D01*
X9672043Y26360325D01*
X9522236Y26546648D01*
X9516080Y26551813D01*
X9516080Y27367463D01*
X9662578Y27544549D01*
X9776289Y27754853D01*
X9846987Y27983240D01*
X9871977Y28221008D01*
X9870421Y28238112D01*
X9945103Y28238112D01*
X9966771Y28000018D01*
X10034273Y27770667D01*
X10145037Y27558795D01*
X10294844Y27372472D01*
X10477988Y27218796D01*
X10687494Y27103619D01*
X10915381Y27031329D01*
X11152969Y27004679D01*
X11170073Y27004560D01*
X11181927Y27004560D01*
X11419864Y27027890D01*
X11648738Y27096991D01*
X11859832Y27209231D01*
X12045104Y27360336D01*
X12197498Y27544549D01*
X12297533Y27729560D01*
X12758123Y27729560D01*
X12763500Y27715979D01*
X12886987Y27524364D01*
X13045340Y27360385D01*
X13232528Y27230286D01*
X13441421Y27139023D01*
X13664061Y27090072D01*
X13891970Y27085298D01*
X14116465Y27124883D01*
X14328996Y27207318D01*
X14521467Y27329465D01*
X14686548Y27486669D01*
X14817951Y27672944D01*
X14910670Y27881194D01*
X14961174Y28103488D01*
X14964809Y28363859D01*
X14920532Y28587476D01*
X14833664Y28798234D01*
X14707514Y28988105D01*
X14546887Y29149858D01*
X14357900Y29277331D01*
X14147754Y29365668D01*
X13924452Y29411505D01*
X13696499Y29413097D01*
X13472578Y29370382D01*
X13261219Y29284987D01*
X13070472Y29160165D01*
X12907602Y29000671D01*
X12778813Y28812580D01*
X12743230Y28729560D01*
X12296237Y28729560D01*
X12206963Y28900325D01*
X12057156Y29086648D01*
X11874012Y29240324D01*
X11664506Y29355501D01*
X11436619Y29427791D01*
X11199031Y29454441D01*
X11181927Y29454560D01*
X11170073Y29454560D01*
X10932136Y29431230D01*
X10703262Y29362129D01*
X10492168Y29249889D01*
X10306896Y29098784D01*
X10154502Y28914571D01*
X10040791Y28704267D01*
X9970093Y28475880D01*
X9945103Y28238112D01*
X9870421Y28238112D01*
X9850309Y28459102D01*
X9782807Y28688453D01*
X9672043Y28900325D01*
X9522236Y29086648D01*
X9516080Y29091813D01*
X9516080Y29907463D01*
X9662578Y30084549D01*
X9776289Y30294853D01*
X9846987Y30523240D01*
X9871977Y30761008D01*
X9870421Y30778112D01*
X9945103Y30778112D01*
X9966771Y30540018D01*
X10034273Y30310667D01*
X10145037Y30098795D01*
X10294844Y29912472D01*
X10477988Y29758796D01*
X10687494Y29643619D01*
X10915381Y29571329D01*
X11152969Y29544679D01*
X11170073Y29544560D01*
X11181927Y29544560D01*
X11419864Y29567890D01*
X11648738Y29636991D01*
X11859832Y29749231D01*
X12045104Y29900336D01*
X12197498Y30084549D01*
X12297533Y30269560D01*
X12758123Y30269560D01*
X12763500Y30255979D01*
X12886987Y30064364D01*
X13045340Y29900385D01*
X13232528Y29770286D01*
X13441421Y29679023D01*
X13664061Y29630072D01*
X13891970Y29625298D01*
X14116465Y29664883D01*
X14328996Y29747318D01*
X14521467Y29869465D01*
X14686548Y30026669D01*
X14817951Y30212944D01*
X14910670Y30421194D01*
X14961174Y30643488D01*
X14964809Y30903859D01*
X14920532Y31127476D01*
X14833664Y31338234D01*
X14707514Y31528105D01*
X14546887Y31689858D01*
X14357900Y31817331D01*
X14147754Y31905668D01*
X13924452Y31951505D01*
X13696499Y31953097D01*
X13472578Y31910382D01*
X13261219Y31824987D01*
X13070472Y31700165D01*
X12907602Y31540671D01*
X12778813Y31352580D01*
X12743230Y31269560D01*
X12296237Y31269560D01*
X12206963Y31440325D01*
X12057156Y31626648D01*
X11874012Y31780324D01*
X11664506Y31895501D01*
X11436619Y31967791D01*
X11199031Y31994441D01*
X11181927Y31994560D01*
X11170073Y31994560D01*
X10932136Y31971230D01*
X10703262Y31902129D01*
X10492168Y31789889D01*
X10306896Y31638784D01*
X10154502Y31454571D01*
X10040791Y31244267D01*
X9970093Y31015880D01*
X9945103Y30778112D01*
X9870421Y30778112D01*
X9850309Y30999102D01*
X9782807Y31228453D01*
X9672043Y31440325D01*
X9522236Y31626648D01*
X9516080Y31631813D01*
X9516080Y32084740D01*
X9550797Y32087508D01*
X9652084Y32118875D01*
X9740623Y32177217D01*
X9809402Y32257917D01*
X9852976Y32354582D01*
X9867894Y32459560D01*
X9867894Y33632740D01*
X9888710Y33649718D01*
X9926572Y33679942D01*
X9930411Y33683729D01*
X9930493Y33683795D01*
X9930555Y33683871D01*
X9931791Y33685089D01*
X9949186Y33702484D01*
X9949186Y32459560D01*
X9953948Y32399843D01*
X9985315Y32298556D01*
X10043657Y32210017D01*
X10124357Y32141238D01*
X10221022Y32097664D01*
X10326000Y32082746D01*
X12026000Y32082746D01*
X12085717Y32087508D01*
X12187004Y32118875D01*
X12275543Y32177217D01*
X12344322Y32257917D01*
X12387896Y32354582D01*
X12402814Y32459560D01*
X12402814Y32809560D01*
X12758123Y32809560D01*
X12763500Y32795979D01*
X12886987Y32604364D01*
X13045340Y32440385D01*
X13232528Y32310286D01*
X13441421Y32219023D01*
X13664061Y32170072D01*
X13891970Y32165298D01*
X14116465Y32204883D01*
X14328996Y32287318D01*
X14521467Y32409465D01*
X14686548Y32566669D01*
X14817951Y32752944D01*
X14910670Y32961194D01*
X14961174Y33183488D01*
X14964809Y33443859D01*
X14920532Y33667476D01*
X14833664Y33878234D01*
X14707514Y34068105D01*
X14650340Y34125680D01*
X15124138Y34125680D01*
X15651089Y33598729D01*
X15688523Y33567981D01*
X15725712Y33536775D01*
X15728137Y33535442D01*
X15730265Y33533694D01*
X15772943Y33510810D01*
X15815500Y33487414D01*
X15818132Y33486579D01*
X15820564Y33485275D01*
X15866976Y33471085D01*
X15913166Y33456433D01*
X15915905Y33456126D01*
X15918550Y33455317D01*
X15966851Y33450411D01*
X16014990Y33445011D01*
X16020384Y33444973D01*
X16020487Y33444963D01*
X16020583Y33444972D01*
X16022320Y33444960D01*
X16251335Y33444960D01*
X16269137Y33423133D01*
X16319583Y33359940D01*
X16325898Y33353537D01*
X16326006Y33353405D01*
X16326129Y33353303D01*
X16328162Y33351242D01*
X23153400Y26526003D01*
X23153400Y16408400D01*
X23161291Y16327925D01*
X23168332Y16247443D01*
X23169615Y16243028D01*
X23170064Y16238445D01*
X23193440Y16161019D01*
X23215975Y16083453D01*
X23218091Y16079370D01*
X23219422Y16074963D01*
X23257376Y16003583D01*
X23294563Y15931841D01*
X23297434Y15928245D01*
X23299594Y15924182D01*
X23350657Y15861573D01*
X23401103Y15798380D01*
X23407418Y15791977D01*
X23407526Y15791845D01*
X23407649Y15791743D01*
X23409682Y15789682D01*
X24310338Y14889025D01*
X24309816Y14851643D01*
X24351413Y14624999D01*
X24436239Y14410751D01*
X24561065Y14217060D01*
X24721135Y14051303D01*
X24910351Y13919794D01*
X25121508Y13827542D01*
X25346562Y13778061D01*
X25576941Y13773235D01*
X25803870Y13813248D01*
X26018704Y13896577D01*
X26213262Y14020048D01*
X26380133Y14178956D01*
X26512960Y14367250D01*
X26606684Y14577758D01*
X26657735Y14802461D01*
X26661410Y15065655D01*
X26616653Y15291696D01*
X26550522Y15452142D01*
X27878432Y15452142D01*
X27919583Y15227929D01*
X28003500Y15015979D01*
X28126987Y14824364D01*
X28285340Y14660385D01*
X28472528Y14530286D01*
X28681421Y14439023D01*
X28796216Y14413783D01*
X28546480Y14348242D01*
X28294906Y14225785D01*
X28205049Y14165743D01*
X28146441Y13908628D01*
X29042360Y13012708D01*
X29938279Y13908628D01*
X29879671Y14165743D01*
X29638085Y14306885D01*
X29373605Y14398183D01*
X29278712Y14411173D01*
X29356465Y14424883D01*
X29568996Y14507318D01*
X29761467Y14629465D01*
X29926548Y14786669D01*
X30057951Y14972944D01*
X30150670Y15181194D01*
X30201174Y15403488D01*
X30204809Y15663859D01*
X30160532Y15887476D01*
X30073664Y16098234D01*
X29947514Y16288105D01*
X29786887Y16449858D01*
X29597900Y16577331D01*
X29387754Y16665668D01*
X29164452Y16711505D01*
X28936499Y16713097D01*
X28712578Y16670382D01*
X28501219Y16584987D01*
X28310472Y16460165D01*
X28147602Y16300671D01*
X28018813Y16112580D01*
X27929010Y15903055D01*
X27881615Y15680078D01*
X27878432Y15452142D01*
X26550522Y15452142D01*
X26528843Y15504738D01*
X26401325Y15696668D01*
X26238957Y15860173D01*
X26047922Y15989028D01*
X25835498Y16078323D01*
X25609775Y16124657D01*
X25549156Y16125080D01*
X24903400Y16770836D01*
X24903400Y17992142D01*
X27878432Y17992142D01*
X27919583Y17767929D01*
X28003500Y17555979D01*
X28126987Y17364364D01*
X28285340Y17200385D01*
X28472528Y17070286D01*
X28681421Y16979023D01*
X28904061Y16930072D01*
X29131970Y16925298D01*
X29356465Y16964883D01*
X29568996Y17047318D01*
X29761467Y17169465D01*
X29926548Y17326669D01*
X30057951Y17512944D01*
X30150670Y17721194D01*
X30201174Y17943488D01*
X30204809Y18203859D01*
X30160532Y18427476D01*
X30073664Y18638234D01*
X29947514Y18828105D01*
X29786887Y18989858D01*
X29597900Y19117331D01*
X29387754Y19205668D01*
X29164452Y19251505D01*
X28936499Y19253097D01*
X28712578Y19210382D01*
X28501219Y19124987D01*
X28310472Y19000165D01*
X28147602Y18840671D01*
X28018813Y18652580D01*
X27929010Y18443055D01*
X27881615Y18220078D01*
X27878432Y17992142D01*
X24903400Y17992142D01*
X24903400Y20532142D01*
X27878432Y20532142D01*
X27919583Y20307929D01*
X28003500Y20095979D01*
X28126987Y19904364D01*
X28285340Y19740385D01*
X28472528Y19610286D01*
X28681421Y19519023D01*
X28904061Y19470072D01*
X29131970Y19465298D01*
X29356465Y19504883D01*
X29568996Y19587318D01*
X29761467Y19709465D01*
X29926548Y19866669D01*
X30057951Y20052944D01*
X30092205Y20129880D01*
X30335226Y20129880D01*
X30335226Y19754480D01*
X30339988Y19694763D01*
X30371355Y19593476D01*
X30429697Y19504937D01*
X30510397Y19436158D01*
X30607062Y19392584D01*
X30712040Y19377666D01*
X32412040Y19377666D01*
X32471757Y19382428D01*
X32573044Y19413795D01*
X32661583Y19472137D01*
X32730362Y19552837D01*
X32773936Y19649502D01*
X32788854Y19754480D01*
X32788854Y21454480D01*
X32784092Y21514197D01*
X32752725Y21615484D01*
X32694383Y21704023D01*
X32613683Y21772802D01*
X32517018Y21816376D01*
X32412040Y21831294D01*
X30712040Y21831294D01*
X30652323Y21826532D01*
X30551036Y21795165D01*
X30462497Y21736823D01*
X30393718Y21656123D01*
X30350144Y21559458D01*
X30335226Y21454480D01*
X30335226Y21129880D01*
X30093594Y21129880D01*
X30073664Y21178234D01*
X29947514Y21368105D01*
X29786887Y21529858D01*
X29597900Y21657331D01*
X29387754Y21745668D01*
X29164452Y21791505D01*
X28936499Y21793097D01*
X28712578Y21750382D01*
X28501219Y21664987D01*
X28310472Y21540165D01*
X28147602Y21380671D01*
X28018813Y21192580D01*
X27929010Y20983055D01*
X27881615Y20760078D01*
X27878432Y20532142D01*
X24903400Y20532142D01*
X24903400Y23213740D01*
X25209008Y23213740D01*
X25264571Y22959226D01*
X25501840Y22820615D01*
X25761592Y22730956D01*
X26033846Y22693694D01*
X26308137Y22710263D01*
X26573925Y22780025D01*
X26820996Y22900299D01*
X26909189Y22959226D01*
X26933839Y23072142D01*
X27878432Y23072142D01*
X27919583Y22847929D01*
X28003500Y22635979D01*
X28126987Y22444364D01*
X28285340Y22280385D01*
X28472528Y22150286D01*
X28681421Y22059023D01*
X28904061Y22010072D01*
X29131970Y22005298D01*
X29356465Y22044883D01*
X29568996Y22127318D01*
X29761467Y22249465D01*
X29926548Y22406669D01*
X30057951Y22592944D01*
X30092205Y22669880D01*
X30428524Y22669880D01*
X30531077Y22473715D01*
X30680884Y22287392D01*
X30864028Y22133716D01*
X31073534Y22018539D01*
X31301421Y21946249D01*
X31539009Y21919599D01*
X31556113Y21919480D01*
X31567967Y21919480D01*
X31805904Y21942810D01*
X32034778Y22011911D01*
X32245872Y22124151D01*
X32431144Y22275256D01*
X32583538Y22459469D01*
X32697249Y22669773D01*
X32767947Y22898160D01*
X32792937Y23135928D01*
X32771269Y23374022D01*
X32703767Y23603373D01*
X32593003Y23815245D01*
X32443196Y24001568D01*
X32260052Y24155244D01*
X32050546Y24270421D01*
X31822659Y24342711D01*
X31585071Y24369361D01*
X31567967Y24369480D01*
X31556113Y24369480D01*
X31318176Y24346150D01*
X31089302Y24277049D01*
X30878208Y24164809D01*
X30692936Y24013704D01*
X30540542Y23829491D01*
X30454241Y23669880D01*
X30093594Y23669880D01*
X30073664Y23718234D01*
X29947514Y23908105D01*
X29786887Y24069858D01*
X29597900Y24197331D01*
X29387754Y24285668D01*
X29164452Y24331505D01*
X28936499Y24333097D01*
X28712578Y24290382D01*
X28501219Y24204987D01*
X28310472Y24080165D01*
X28147602Y23920671D01*
X28018813Y23732580D01*
X27929010Y23523055D01*
X27881615Y23300078D01*
X27878432Y23072142D01*
X26933839Y23072142D01*
X26964752Y23213740D01*
X26086880Y24091612D01*
X25209008Y23213740D01*
X24903400Y23213740D01*
X24903400Y23344368D01*
X24951666Y23272131D01*
X25206180Y23216568D01*
X26084052Y24094440D01*
X26089708Y24094440D01*
X26967580Y23216568D01*
X27222094Y23272131D01*
X27360705Y23509400D01*
X27450364Y23769152D01*
X27487626Y24041406D01*
X27471057Y24315697D01*
X27401295Y24581485D01*
X27281021Y24828556D01*
X27222094Y24916749D01*
X26967580Y24972312D01*
X26089708Y24094440D01*
X26084052Y24094440D01*
X25206180Y24972312D01*
X24951666Y24916749D01*
X24903400Y24834129D01*
X24903400Y24975140D01*
X25209008Y24975140D01*
X26086880Y24097268D01*
X26964752Y24975140D01*
X26909189Y25229654D01*
X26671920Y25368265D01*
X26412168Y25457924D01*
X26139914Y25495186D01*
X25865623Y25478617D01*
X25599835Y25408855D01*
X25352764Y25288581D01*
X25264571Y25229654D01*
X25209008Y24975140D01*
X24903400Y24975140D01*
X24903400Y25612142D01*
X27878432Y25612142D01*
X27919583Y25387929D01*
X28003500Y25175979D01*
X28126987Y24984364D01*
X28285340Y24820385D01*
X28472528Y24690286D01*
X28681421Y24599023D01*
X28904061Y24550072D01*
X29131970Y24545298D01*
X29356465Y24584883D01*
X29568996Y24667318D01*
X29761467Y24789465D01*
X29926548Y24946669D01*
X30057951Y25132944D01*
X30092205Y25209880D01*
X30428524Y25209880D01*
X30531077Y25013715D01*
X30680884Y24827392D01*
X30864028Y24673716D01*
X31073534Y24558539D01*
X31301421Y24486249D01*
X31539009Y24459599D01*
X31556113Y24459480D01*
X31567967Y24459480D01*
X31805904Y24482810D01*
X32034778Y24551911D01*
X32245872Y24664151D01*
X32431144Y24815256D01*
X32583538Y24999469D01*
X32697249Y25209773D01*
X32767947Y25438160D01*
X32792937Y25675928D01*
X32771269Y25914022D01*
X32703767Y26143373D01*
X32593003Y26355245D01*
X32443196Y26541568D01*
X32260052Y26695244D01*
X32050546Y26810421D01*
X31822659Y26882711D01*
X31585071Y26909361D01*
X31567967Y26909480D01*
X31556113Y26909480D01*
X31318176Y26886150D01*
X31089302Y26817049D01*
X30878208Y26704809D01*
X30692936Y26553704D01*
X30540542Y26369491D01*
X30454241Y26209880D01*
X30093594Y26209880D01*
X30073664Y26258234D01*
X29947514Y26448105D01*
X29786887Y26609858D01*
X29597900Y26737331D01*
X29387754Y26825668D01*
X29164452Y26871505D01*
X28936499Y26873097D01*
X28712578Y26830382D01*
X28501219Y26744987D01*
X28310472Y26620165D01*
X28147602Y26460671D01*
X28018813Y26272580D01*
X27929010Y26063055D01*
X27881615Y25840078D01*
X27878432Y25612142D01*
X24903400Y25612142D01*
X24903400Y26888440D01*
X24895509Y26968919D01*
X24888468Y27049397D01*
X24887185Y27053812D01*
X24886736Y27058395D01*
X24863356Y27135835D01*
X24840825Y27213386D01*
X24838709Y27217468D01*
X24837378Y27221877D01*
X24799415Y27293275D01*
X24762237Y27364999D01*
X24759366Y27368595D01*
X24757206Y27372658D01*
X24706123Y27435292D01*
X24655697Y27498459D01*
X24649380Y27504865D01*
X24649274Y27504995D01*
X24649154Y27505094D01*
X24647119Y27507158D01*
X24002135Y28152142D01*
X27878432Y28152142D01*
X27919583Y27927929D01*
X28003500Y27715979D01*
X28126987Y27524364D01*
X28285340Y27360385D01*
X28472528Y27230286D01*
X28681421Y27139023D01*
X28904061Y27090072D01*
X29131970Y27085298D01*
X29356465Y27124883D01*
X29568996Y27207318D01*
X29761467Y27329465D01*
X29926548Y27486669D01*
X30057951Y27672944D01*
X30092205Y27749880D01*
X30428524Y27749880D01*
X30531077Y27553715D01*
X30680884Y27367392D01*
X30864028Y27213716D01*
X31073534Y27098539D01*
X31301421Y27026249D01*
X31539009Y26999599D01*
X31556113Y26999480D01*
X31567967Y26999480D01*
X31805904Y27022810D01*
X32034778Y27091911D01*
X32245872Y27204151D01*
X32431144Y27355256D01*
X32583538Y27539469D01*
X32697249Y27749773D01*
X32767947Y27978160D01*
X32792937Y28215928D01*
X32771269Y28454022D01*
X32703767Y28683373D01*
X32593003Y28895245D01*
X32443196Y29081568D01*
X32260052Y29235244D01*
X32050546Y29350421D01*
X31822659Y29422711D01*
X31585071Y29449361D01*
X31567967Y29449480D01*
X31556113Y29449480D01*
X31318176Y29426150D01*
X31089302Y29357049D01*
X30878208Y29244809D01*
X30692936Y29093704D01*
X30540542Y28909491D01*
X30454241Y28749880D01*
X30093594Y28749880D01*
X30073664Y28798234D01*
X29947514Y28988105D01*
X29786887Y29149858D01*
X29597900Y29277331D01*
X29387754Y29365668D01*
X29164452Y29411505D01*
X28936499Y29413097D01*
X28712578Y29370382D01*
X28501219Y29284987D01*
X28310472Y29160165D01*
X28147602Y29000671D01*
X28018813Y28812580D01*
X27929010Y28603055D01*
X27881615Y28380078D01*
X27878432Y28152142D01*
X24002135Y28152142D01*
X21462135Y30692142D01*
X27878432Y30692142D01*
X27919583Y30467929D01*
X28003500Y30255979D01*
X28126987Y30064364D01*
X28285340Y29900385D01*
X28472528Y29770286D01*
X28681421Y29679023D01*
X28904061Y29630072D01*
X29131970Y29625298D01*
X29356465Y29664883D01*
X29568996Y29747318D01*
X29761467Y29869465D01*
X29926548Y30026669D01*
X30057951Y30212944D01*
X30092205Y30289880D01*
X30428524Y30289880D01*
X30531077Y30093715D01*
X30680884Y29907392D01*
X30864028Y29753716D01*
X31073534Y29638539D01*
X31301421Y29566249D01*
X31539009Y29539599D01*
X31556113Y29539480D01*
X31567967Y29539480D01*
X31805904Y29562810D01*
X32034778Y29631911D01*
X32245872Y29744151D01*
X32431144Y29895256D01*
X32583538Y30079469D01*
X32697249Y30289773D01*
X32767947Y30518160D01*
X32792937Y30755928D01*
X32771269Y30994022D01*
X32703767Y31223373D01*
X32593003Y31435245D01*
X32443196Y31621568D01*
X32260052Y31775244D01*
X32050546Y31890421D01*
X31822659Y31962711D01*
X31585071Y31989361D01*
X31567967Y31989480D01*
X31556113Y31989480D01*
X31318176Y31966150D01*
X31089302Y31897049D01*
X30878208Y31784809D01*
X30692936Y31633704D01*
X30540542Y31449491D01*
X30454241Y31289880D01*
X30093594Y31289880D01*
X30073664Y31338234D01*
X29947514Y31528105D01*
X29786887Y31689858D01*
X29597900Y31817331D01*
X29387754Y31905668D01*
X29164452Y31951505D01*
X28936499Y31953097D01*
X28712578Y31910382D01*
X28501219Y31824987D01*
X28310472Y31700165D01*
X28147602Y31540671D01*
X28018813Y31352580D01*
X27929010Y31143055D01*
X27881615Y30920078D01*
X27878432Y30692142D01*
X21462135Y30692142D01*
X18922135Y33232142D01*
X27878432Y33232142D01*
X27919583Y33007929D01*
X28003500Y32795979D01*
X28126987Y32604364D01*
X28285340Y32440385D01*
X28472528Y32310286D01*
X28681421Y32219023D01*
X28904061Y32170072D01*
X29131970Y32165298D01*
X29356465Y32204883D01*
X29568996Y32287318D01*
X29761467Y32409465D01*
X29926548Y32566669D01*
X30057951Y32752944D01*
X30092205Y32829880D01*
X30428524Y32829880D01*
X30531077Y32633715D01*
X30680884Y32447392D01*
X30864028Y32293716D01*
X31073534Y32178539D01*
X31301421Y32106249D01*
X31539009Y32079599D01*
X31556113Y32079480D01*
X31567967Y32079480D01*
X31805904Y32102810D01*
X32034778Y32171911D01*
X32245872Y32284151D01*
X32431144Y32435256D01*
X32583538Y32619469D01*
X32697249Y32829773D01*
X32767947Y33058160D01*
X32792937Y33295928D01*
X32771269Y33534022D01*
X32703767Y33763373D01*
X32593003Y33975245D01*
X32443196Y34161568D01*
X32260052Y34315244D01*
X32050546Y34430421D01*
X31822659Y34502711D01*
X31585071Y34529361D01*
X31567967Y34529480D01*
X31556113Y34529480D01*
X31318176Y34506150D01*
X31089302Y34437049D01*
X30878208Y34324809D01*
X30692936Y34173704D01*
X30540542Y33989491D01*
X30454241Y33829880D01*
X30093594Y33829880D01*
X30073664Y33878234D01*
X29947514Y34068105D01*
X29786887Y34229858D01*
X29597900Y34357331D01*
X29387754Y34445668D01*
X29164452Y34491505D01*
X28936499Y34493097D01*
X28712578Y34450382D01*
X28501219Y34364987D01*
X28310472Y34240165D01*
X28147602Y34080671D01*
X28018813Y33892580D01*
X27929010Y33683055D01*
X27881615Y33460078D01*
X27878432Y33232142D01*
X18922135Y33232142D01*
X17821880Y34332396D01*
X17821880Y35772142D01*
X27878432Y35772142D01*
X27919583Y35547929D01*
X28003500Y35335979D01*
X28126987Y35144364D01*
X28285340Y34980385D01*
X28472528Y34850286D01*
X28681421Y34759023D01*
X28904061Y34710072D01*
X29131970Y34705298D01*
X29356465Y34744883D01*
X29568996Y34827318D01*
X29761467Y34949465D01*
X29926548Y35106669D01*
X30057951Y35292944D01*
X30092205Y35369880D01*
X30380946Y35369880D01*
X30380946Y35024960D01*
X30385708Y34965243D01*
X30417075Y34863956D01*
X30475417Y34775417D01*
X30556117Y34706638D01*
X30652782Y34663064D01*
X30757760Y34648146D01*
X32457760Y34648146D01*
X32517477Y34652908D01*
X32618764Y34684275D01*
X32707303Y34742617D01*
X32776082Y34823317D01*
X32819656Y34919982D01*
X32834574Y35024960D01*
X32834574Y36724960D01*
X32829812Y36784677D01*
X32798445Y36885964D01*
X32740103Y36974503D01*
X32659403Y37043282D01*
X32562738Y37086856D01*
X32457760Y37101774D01*
X30757760Y37101774D01*
X30698043Y37097012D01*
X30596756Y37065645D01*
X30508217Y37007303D01*
X30439438Y36926603D01*
X30395864Y36829938D01*
X30380946Y36724960D01*
X30380946Y36369880D01*
X30093594Y36369880D01*
X30073664Y36418234D01*
X29947514Y36608105D01*
X29786887Y36769858D01*
X29597900Y36897331D01*
X29387754Y36985668D01*
X29164452Y37031505D01*
X28936499Y37033097D01*
X28712578Y36990382D01*
X28501219Y36904987D01*
X28310472Y36780165D01*
X28147602Y36620671D01*
X28018813Y36432580D01*
X27929010Y36223055D01*
X27881615Y36000078D01*
X27878432Y35772142D01*
X17821880Y35772142D01*
X17821880Y38453740D01*
X25213008Y38453740D01*
X25268571Y38199226D01*
X25505840Y38060615D01*
X25765592Y37970956D01*
X26037846Y37933694D01*
X26312137Y37950263D01*
X26577925Y38020025D01*
X26824996Y38140299D01*
X26913189Y38199226D01*
X26937839Y38312142D01*
X27878432Y38312142D01*
X27919583Y38087929D01*
X28003500Y37875979D01*
X28126987Y37684364D01*
X28285340Y37520385D01*
X28472528Y37390286D01*
X28681421Y37299023D01*
X28904061Y37250072D01*
X29131970Y37245298D01*
X29356465Y37284883D01*
X29568996Y37367318D01*
X29761467Y37489465D01*
X29926548Y37646669D01*
X30057951Y37832944D01*
X30092205Y37909880D01*
X30490179Y37909880D01*
X30576797Y37744195D01*
X30726604Y37557872D01*
X30909748Y37404196D01*
X31119254Y37289019D01*
X31347141Y37216729D01*
X31584729Y37190079D01*
X31601833Y37189960D01*
X31613687Y37189960D01*
X31851624Y37213290D01*
X32080498Y37282391D01*
X32291592Y37394631D01*
X32476864Y37545736D01*
X32629258Y37729949D01*
X32742969Y37940253D01*
X32813667Y38168640D01*
X32838657Y38406408D01*
X32816989Y38644502D01*
X32749487Y38873853D01*
X32638723Y39085725D01*
X32488916Y39272048D01*
X32305772Y39425724D01*
X32096266Y39540901D01*
X31868379Y39613191D01*
X31630791Y39639841D01*
X31613687Y39639960D01*
X31601833Y39639960D01*
X31363896Y39616630D01*
X31135022Y39547529D01*
X30923928Y39435289D01*
X30738656Y39284184D01*
X30586262Y39099971D01*
X30483480Y38909880D01*
X30093594Y38909880D01*
X30073664Y38958234D01*
X29947514Y39148105D01*
X29786887Y39309858D01*
X29597900Y39437331D01*
X29387754Y39525668D01*
X29164452Y39571505D01*
X28936499Y39573097D01*
X28712578Y39530382D01*
X28501219Y39444987D01*
X28310472Y39320165D01*
X28147602Y39160671D01*
X28018813Y38972580D01*
X27929010Y38763055D01*
X27881615Y38540078D01*
X27878432Y38312142D01*
X26937839Y38312142D01*
X26968752Y38453740D01*
X26090880Y39331612D01*
X25213008Y38453740D01*
X17821880Y38453740D01*
X17821880Y38602269D01*
X17940279Y38770111D01*
X18030972Y38973811D01*
X18080372Y39191247D01*
X18080928Y39231052D01*
X18237350Y39387474D01*
X24690134Y39387474D01*
X24706703Y39113183D01*
X24776465Y38847395D01*
X24896739Y38600324D01*
X24955666Y38512131D01*
X25210180Y38456568D01*
X26088052Y39334440D01*
X26093708Y39334440D01*
X26971580Y38456568D01*
X27226094Y38512131D01*
X27364705Y38749400D01*
X27454364Y39009152D01*
X27491626Y39281406D01*
X27475057Y39555697D01*
X27405295Y39821485D01*
X27285021Y40068556D01*
X27226094Y40156749D01*
X26971580Y40212312D01*
X26093708Y39334440D01*
X26088052Y39334440D01*
X25210180Y40212312D01*
X24955666Y40156749D01*
X24817055Y39919480D01*
X24727396Y39659728D01*
X24690134Y39387474D01*
X18237350Y39387474D01*
X19065016Y40215140D01*
X25213008Y40215140D01*
X26090880Y39337268D01*
X26968752Y40215140D01*
X26913189Y40469654D01*
X26675920Y40608265D01*
X26416168Y40697924D01*
X26143914Y40735186D01*
X25869623Y40718617D01*
X25603835Y40648855D01*
X25356764Y40528581D01*
X25268571Y40469654D01*
X25213008Y40215140D01*
X19065016Y40215140D01*
X20301437Y41451560D01*
X27992660Y41451560D01*
X27929010Y41303055D01*
X27881615Y41080078D01*
X27878432Y40852142D01*
X27919583Y40627929D01*
X28003500Y40415979D01*
X28126987Y40224364D01*
X28285340Y40060385D01*
X28472528Y39930286D01*
X28681421Y39839023D01*
X28904061Y39790072D01*
X29131970Y39785298D01*
X29356465Y39824883D01*
X29568996Y39907318D01*
X29761467Y40029465D01*
X29926548Y40186669D01*
X30057951Y40372944D01*
X30092205Y40449880D01*
X30490179Y40449880D01*
X30576797Y40284195D01*
X30726604Y40097872D01*
X30909748Y39944196D01*
X31119254Y39829019D01*
X31347141Y39756729D01*
X31584729Y39730079D01*
X31601833Y39729960D01*
X31613687Y39729960D01*
X31851624Y39753290D01*
X32080498Y39822391D01*
X32291592Y39934631D01*
X32476864Y40085736D01*
X32629258Y40269949D01*
X32742969Y40480253D01*
X32813667Y40708640D01*
X32838657Y40946408D01*
X32816989Y41184502D01*
X32749487Y41413853D01*
X32638723Y41625725D01*
X32584997Y41692547D01*
X33242280Y41035263D01*
X33242280Y34166577D01*
X33095782Y33989491D01*
X32982071Y33779187D01*
X32911373Y33550800D01*
X32886383Y33313032D01*
X32908051Y33074938D01*
X32975553Y32845587D01*
X33086317Y32633715D01*
X33236124Y32447392D01*
X33242280Y32442227D01*
X33242280Y31626577D01*
X33095782Y31449491D01*
X32982071Y31239187D01*
X32911373Y31010800D01*
X32886383Y30773032D01*
X32908051Y30534938D01*
X32975553Y30305587D01*
X33086317Y30093715D01*
X33236124Y29907392D01*
X33242280Y29902227D01*
X33242280Y29086577D01*
X33095782Y28909491D01*
X32982071Y28699187D01*
X32911373Y28470800D01*
X32886383Y28233032D01*
X32908051Y27994938D01*
X32975553Y27765587D01*
X33086317Y27553715D01*
X33236124Y27367392D01*
X33242280Y27362227D01*
X33242280Y26546577D01*
X33095782Y26369491D01*
X32982071Y26159187D01*
X32911373Y25930800D01*
X32886383Y25693032D01*
X32908051Y25454938D01*
X32975553Y25225587D01*
X33086317Y25013715D01*
X33236124Y24827392D01*
X33242280Y24822227D01*
X33242280Y24006577D01*
X33095782Y23829491D01*
X32982071Y23619187D01*
X32911373Y23390800D01*
X32886383Y23153032D01*
X32908051Y22914938D01*
X32975553Y22685587D01*
X33086317Y22473715D01*
X33236124Y22287392D01*
X33242280Y22282227D01*
X33242280Y21829300D01*
X33207563Y21826532D01*
X33106276Y21795165D01*
X33017737Y21736823D01*
X32948958Y21656123D01*
X32905384Y21559458D01*
X32890466Y21454480D01*
X32890466Y19754480D01*
X32895228Y19694763D01*
X32926595Y19593476D01*
X32984937Y19504937D01*
X33065637Y19436158D01*
X33162302Y19392584D01*
X33242280Y19381219D01*
X33242280Y15526237D01*
X33062857Y15346814D01*
X31923480Y15346814D01*
X31863763Y15342052D01*
X31762476Y15310685D01*
X31673937Y15252343D01*
X31605158Y15171643D01*
X31561584Y15074978D01*
X31546666Y14970000D01*
X31546666Y12970000D01*
X31551428Y12910283D01*
X31582795Y12808996D01*
X31641137Y12720457D01*
X31721837Y12651678D01*
X31818502Y12608104D01*
X31923480Y12593186D01*
X33923480Y12593186D01*
X33983197Y12597948D01*
X34084484Y12629315D01*
X34173023Y12687657D01*
X34241802Y12768357D01*
X34285376Y12865022D01*
X34293216Y12920194D01*
X36876502Y12920194D01*
X36960601Y12641308D01*
X37238318Y12478990D01*
X37542364Y12373972D01*
X37861057Y12330287D01*
X38182149Y12349615D01*
X38493300Y12431213D01*
X38782553Y12571947D01*
X38886359Y12641308D01*
X38970458Y12920194D01*
X37923480Y13967172D01*
X36876502Y12920194D01*
X34293216Y12920194D01*
X34300294Y12970000D01*
X34300294Y14032423D01*
X36283767Y14032423D01*
X36303095Y13711331D01*
X36384693Y13400180D01*
X36525427Y13110927D01*
X36594788Y13007121D01*
X36873674Y12923022D01*
X37920652Y13970000D01*
X37926308Y13970000D01*
X38973286Y12923022D01*
X39252172Y13007121D01*
X39414490Y13284838D01*
X39519508Y13588884D01*
X39563193Y13907577D01*
X39543865Y14228669D01*
X39462267Y14539820D01*
X39321533Y14829073D01*
X39252172Y14932879D01*
X38973286Y15016978D01*
X37926308Y13970000D01*
X37920652Y13970000D01*
X36873674Y15016978D01*
X36594788Y14932879D01*
X36432470Y14655162D01*
X36327452Y14351116D01*
X36283767Y14032423D01*
X34300294Y14032423D01*
X34300294Y14109377D01*
X34735998Y14545081D01*
X34787311Y14607550D01*
X34839254Y14669454D01*
X34841470Y14673485D01*
X34844391Y14677041D01*
X34882595Y14748292D01*
X34921523Y14819101D01*
X34922914Y14823485D01*
X34925089Y14827542D01*
X34948722Y14904841D01*
X34973159Y14981877D01*
X34973672Y14986451D01*
X34975017Y14990850D01*
X34977958Y15019806D01*
X36876502Y15019806D01*
X37923480Y13972828D01*
X38970458Y15019806D01*
X38886359Y15298692D01*
X38608642Y15461010D01*
X38304596Y15566028D01*
X37985903Y15609713D01*
X37664811Y15590385D01*
X37353660Y15508787D01*
X37064407Y15368053D01*
X36960601Y15298692D01*
X36876502Y15019806D01*
X34977958Y15019806D01*
X34983179Y15071206D01*
X34992195Y15151583D01*
X34992258Y15160585D01*
X34992274Y15160746D01*
X34992260Y15160896D01*
X34992280Y15163800D01*
X34992280Y19379660D01*
X35026997Y19382428D01*
X35128284Y19413795D01*
X35216823Y19472137D01*
X35254899Y19516812D01*
X35286963Y19439402D01*
X35356237Y19335726D01*
X35444406Y19247557D01*
X35548082Y19178283D01*
X35663281Y19130566D01*
X35785575Y19106240D01*
X36537670Y19106240D01*
X36695920Y19264490D01*
X36695920Y20587240D01*
X36699920Y20587240D01*
X36699920Y19264490D01*
X36858170Y19106240D01*
X37610265Y19106240D01*
X37732559Y19130566D01*
X37847758Y19178283D01*
X37951434Y19247557D01*
X38039603Y19335726D01*
X38108877Y19439402D01*
X38156594Y19554601D01*
X38180920Y19676895D01*
X38180920Y20428990D01*
X38022670Y20587240D01*
X36699920Y20587240D01*
X36695920Y20587240D01*
X36675920Y20587240D01*
X36675920Y20591240D01*
X36695920Y20591240D01*
X36695920Y23127240D01*
X36699920Y23127240D01*
X36699920Y20591240D01*
X38022670Y20591240D01*
X38180920Y20749490D01*
X38180920Y21501585D01*
X38156594Y21623879D01*
X38108877Y21739078D01*
X38039603Y21842754D01*
X37951434Y21930923D01*
X37847758Y22000197D01*
X37732559Y22047914D01*
X37714781Y22051450D01*
X37898867Y22259173D01*
X38045533Y22510184D01*
X38140411Y22784985D01*
X38162348Y22895272D01*
X38022668Y23127240D01*
X36699920Y23127240D01*
X36695920Y23127240D01*
X36675920Y23127240D01*
X36675920Y23131240D01*
X36695920Y23131240D01*
X36695920Y25667240D01*
X36699920Y25667240D01*
X36699920Y23131240D01*
X38022668Y23131240D01*
X38162348Y23363208D01*
X38140411Y23473495D01*
X38045533Y23748296D01*
X37898867Y23999307D01*
X37706050Y24216882D01*
X37474491Y24392660D01*
X37460971Y24399240D01*
X37474491Y24405820D01*
X37706050Y24581598D01*
X37898867Y24799173D01*
X38045533Y25050184D01*
X38140411Y25324985D01*
X38162348Y25435272D01*
X38022668Y25667240D01*
X36699920Y25667240D01*
X36695920Y25667240D01*
X36675920Y25667240D01*
X36675920Y25671240D01*
X36695920Y25671240D01*
X36695920Y28207240D01*
X36699920Y28207240D01*
X36699920Y25671240D01*
X38022668Y25671240D01*
X38162348Y25903208D01*
X38140411Y26013495D01*
X38045533Y26288296D01*
X37898867Y26539307D01*
X37706050Y26756882D01*
X37474491Y26932660D01*
X37460971Y26939240D01*
X37474491Y26945820D01*
X37706050Y27121598D01*
X37898867Y27339173D01*
X38045533Y27590184D01*
X38140411Y27864985D01*
X38162348Y27975272D01*
X38022668Y28207240D01*
X36699920Y28207240D01*
X36695920Y28207240D01*
X36675920Y28207240D01*
X36675920Y28211240D01*
X36695920Y28211240D01*
X36695920Y30747240D01*
X36699920Y30747240D01*
X36699920Y28211240D01*
X38022668Y28211240D01*
X38162348Y28443208D01*
X38140411Y28553495D01*
X38045533Y28828296D01*
X37898867Y29079307D01*
X37706050Y29296882D01*
X37474491Y29472660D01*
X37460971Y29479240D01*
X37474491Y29485820D01*
X37706050Y29661598D01*
X37898867Y29879173D01*
X38045533Y30130184D01*
X38140411Y30404985D01*
X38162348Y30515272D01*
X38022668Y30747240D01*
X36699920Y30747240D01*
X36695920Y30747240D01*
X36675920Y30747240D01*
X36675920Y30751240D01*
X36695920Y30751240D01*
X36695920Y33287240D01*
X36699920Y33287240D01*
X36699920Y30751240D01*
X38022668Y30751240D01*
X38162348Y30983208D01*
X38140411Y31093495D01*
X38045533Y31368296D01*
X37898867Y31619307D01*
X37706050Y31836882D01*
X37474491Y32012660D01*
X37460971Y32019240D01*
X37474491Y32025820D01*
X37706050Y32201598D01*
X37898867Y32419173D01*
X38045533Y32670184D01*
X38140411Y32944985D01*
X38162348Y33055272D01*
X38022668Y33287240D01*
X36699920Y33287240D01*
X36695920Y33287240D01*
X36675920Y33287240D01*
X36675920Y33291240D01*
X36695920Y33291240D01*
X36695920Y34613989D01*
X36699920Y34613989D01*
X36699920Y33291240D01*
X38022668Y33291240D01*
X38162348Y33523208D01*
X38140411Y33633495D01*
X38045533Y33908296D01*
X37898867Y34159307D01*
X37706050Y34376882D01*
X37474491Y34552660D01*
X37213088Y34679885D01*
X36931888Y34753668D01*
X36699920Y34613989D01*
X36695920Y34613989D01*
X36463952Y34753668D01*
X36182752Y34679885D01*
X35921349Y34552660D01*
X35689790Y34376882D01*
X35496973Y34159307D01*
X35350307Y33908296D01*
X35277996Y33698856D01*
X35259007Y33763373D01*
X35148243Y33975245D01*
X34998436Y34161568D01*
X34992280Y34166733D01*
X34992280Y41397700D01*
X34984389Y41478179D01*
X34977348Y41558657D01*
X34976065Y41563072D01*
X34975616Y41567655D01*
X34952240Y41645081D01*
X34929705Y41722647D01*
X34927589Y41726730D01*
X34926258Y41731137D01*
X34888304Y41802517D01*
X34851117Y41874259D01*
X34848246Y41877855D01*
X34846086Y41881918D01*
X34795003Y41944552D01*
X34744577Y42007719D01*
X34738260Y42014125D01*
X34738154Y42014255D01*
X34738034Y42014354D01*
X34735999Y42016418D01*
X33905160Y42847256D01*
X33905160Y43105214D01*
X34106289Y43183227D01*
X34499586Y43432821D01*
X34836913Y43754053D01*
X35105421Y44134688D01*
X35294883Y44560227D01*
X35398083Y45014462D01*
X35405512Y45546505D01*
X35315036Y46003445D01*
X35137529Y46434108D01*
X35076305Y46526258D01*
X35130170Y46461146D01*
X35131563Y46459763D01*
X35135318Y46454058D01*
X35139081Y46449470D01*
X35607634Y45886197D01*
X35635020Y45859148D01*
X35662065Y45831680D01*
X35666648Y45827910D01*
X36235684Y45366374D01*
X36267766Y45345184D01*
X36299667Y45323467D01*
X36304895Y45320660D01*
X36952740Y44978441D01*
X36988344Y44963879D01*
X37023838Y44948779D01*
X37029512Y44947040D01*
X37237101Y44884978D01*
X36923383Y44758227D01*
X36336732Y44374334D01*
X35835820Y43883805D01*
X35439725Y43305323D01*
X35163535Y42660923D01*
X35017769Y41975150D01*
X35007981Y41274124D01*
X35134542Y40584548D01*
X35392631Y39932688D01*
X35772420Y39343372D01*
X36259440Y38839047D01*
X36835143Y38438924D01*
X37477599Y38158242D01*
X38162338Y38007692D01*
X38863278Y37993009D01*
X39553720Y38114753D01*
X40207366Y38368286D01*
X40799319Y38743951D01*
X41307032Y39227438D01*
X41654533Y39720052D01*
X41686358Y8367667D01*
X41396912Y8803318D01*
X40902897Y9300793D01*
X40321664Y9692840D01*
X39675351Y9964525D01*
X38988577Y10105499D01*
X38287501Y10110394D01*
X37598825Y9979022D01*
X36948783Y9716387D01*
X36362132Y9332494D01*
X35861220Y8841965D01*
X35465125Y8263483D01*
X35188935Y7619083D01*
X35043169Y6933310D01*
X35033381Y6232284D01*
X35159942Y5542708D01*
X35418031Y4890848D01*
X35797820Y4301532D01*
X36284840Y3797207D01*
X36860543Y3397084D01*
X37267186Y3219426D01*
X36997253Y3133782D01*
X36961862Y3118611D01*
X36926236Y3103925D01*
X36921016Y3101102D01*
X36288660Y2753414D01*
X36256872Y2731646D01*
X36224796Y2710332D01*
X36220229Y2706552D01*
X36220223Y2706548D01*
X36220218Y2706543D01*
X35667443Y2242658D01*
X35640507Y2215149D01*
X35613162Y2187991D01*
X35609412Y2183392D01*
X35157263Y1620967D01*
X35155769Y1618683D01*
X34798150Y1210305D01*
X34383401Y891006D01*
X33914533Y658346D01*
X33406497Y520399D01*
X32935088Y480850D01*
X9288936Y456258D01*
X8629288Y520936D01*
X8007130Y708777D01*
X7433310Y1013883D01*
X6929668Y1424643D01*
X6516091Y1924520D01*
X6514507Y1926907D01*
X6513744Y1928038D01*
X6502322Y1941861D01*
X6492497Y1956874D01*
X6488746Y1961472D01*
X6299421Y2190327D01*
X13735600Y2190327D01*
X13735600Y2178473D01*
X13758930Y1940536D01*
X13828031Y1711662D01*
X13940271Y1500568D01*
X14091376Y1315296D01*
X14275589Y1162902D01*
X14485893Y1049191D01*
X14714280Y978493D01*
X14952048Y953503D01*
X15190142Y975171D01*
X15419493Y1042673D01*
X15631365Y1153437D01*
X15817688Y1303244D01*
X15971364Y1486388D01*
X16086541Y1695894D01*
X16158831Y1923781D01*
X16185481Y2161369D01*
X16185600Y2178473D01*
X16185600Y2190327D01*
X16275600Y2190327D01*
X16275600Y2178473D01*
X16298930Y1940536D01*
X16368031Y1711662D01*
X16480271Y1500568D01*
X16631376Y1315296D01*
X16815589Y1162902D01*
X17025893Y1049191D01*
X17254280Y978493D01*
X17492048Y953503D01*
X17730142Y975171D01*
X17959493Y1042673D01*
X18171365Y1153437D01*
X18357688Y1303244D01*
X18511364Y1486388D01*
X18626541Y1695894D01*
X18698831Y1923781D01*
X18725481Y2161369D01*
X18725600Y2178473D01*
X18725600Y2190327D01*
X18815600Y2190327D01*
X18815600Y2178473D01*
X18838930Y1940536D01*
X18908031Y1711662D01*
X19020271Y1500568D01*
X19171376Y1315296D01*
X19355589Y1162902D01*
X19565893Y1049191D01*
X19794280Y978493D01*
X20032048Y953503D01*
X20270142Y975171D01*
X20499493Y1042673D01*
X20711365Y1153437D01*
X20897688Y1303244D01*
X21051364Y1486388D01*
X21166541Y1695894D01*
X21175527Y1724221D01*
X21189955Y1669232D01*
X21317180Y1407829D01*
X21492958Y1176270D01*
X21710533Y983453D01*
X21961544Y836787D01*
X22236345Y741909D01*
X22346632Y719972D01*
X22578600Y859652D01*
X22578600Y2182400D01*
X22558600Y2182400D01*
X22558600Y2186400D01*
X22578600Y2186400D01*
X22578600Y3509148D01*
X22582600Y3509148D01*
X22582600Y2186400D01*
X22602600Y2186400D01*
X22602600Y2182400D01*
X22582600Y2182400D01*
X22582600Y859652D01*
X22814568Y719972D01*
X22924855Y741909D01*
X23199656Y836787D01*
X23450667Y983453D01*
X23668242Y1176270D01*
X23844020Y1407829D01*
X23971245Y1669232D01*
X23985007Y1721680D01*
X23988031Y1711662D01*
X24100271Y1500568D01*
X24251376Y1315296D01*
X24435589Y1162902D01*
X24645893Y1049191D01*
X24874280Y978493D01*
X25112048Y953503D01*
X25350142Y975171D01*
X25579493Y1042673D01*
X25791365Y1153437D01*
X25977688Y1303244D01*
X26131364Y1486388D01*
X26246541Y1695894D01*
X26318831Y1923781D01*
X26345481Y2161369D01*
X26345600Y2178473D01*
X26345600Y2190327D01*
X26322270Y2428264D01*
X26253169Y2657138D01*
X26140929Y2868232D01*
X26005405Y3034400D01*
X26433786Y3034400D01*
X26433786Y1334400D01*
X26438548Y1274683D01*
X26469915Y1173396D01*
X26528257Y1084857D01*
X26608957Y1016078D01*
X26705622Y972504D01*
X26810600Y957586D01*
X28510600Y957586D01*
X28570317Y962348D01*
X28671604Y993715D01*
X28760143Y1052057D01*
X28828922Y1132757D01*
X28872496Y1229422D01*
X28887414Y1334400D01*
X28887414Y3034400D01*
X28882652Y3094117D01*
X28851285Y3195404D01*
X28792943Y3283943D01*
X28712243Y3352722D01*
X28615578Y3396296D01*
X28510600Y3411214D01*
X26810600Y3411214D01*
X26750883Y3406452D01*
X26649596Y3375085D01*
X26561057Y3316743D01*
X26492278Y3236043D01*
X26448704Y3139378D01*
X26433786Y3034400D01*
X26005405Y3034400D01*
X25989824Y3053504D01*
X25805611Y3205898D01*
X25595307Y3319609D01*
X25366920Y3390307D01*
X25129152Y3415297D01*
X24891058Y3393629D01*
X24661707Y3326127D01*
X24449835Y3215363D01*
X24263512Y3065556D01*
X24109836Y2882412D01*
X23994659Y2672906D01*
X23985673Y2644579D01*
X23971245Y2699568D01*
X23844020Y2960971D01*
X23668242Y3192530D01*
X23450667Y3385347D01*
X23199656Y3532013D01*
X22924855Y3626891D01*
X22814568Y3648828D01*
X22582600Y3509148D01*
X22578600Y3509148D01*
X22346632Y3648828D01*
X22236345Y3626891D01*
X21961544Y3532013D01*
X21710533Y3385347D01*
X21492958Y3192530D01*
X21317180Y2960971D01*
X21189955Y2699568D01*
X21176193Y2647120D01*
X21173169Y2657138D01*
X21060929Y2868232D01*
X20909824Y3053504D01*
X20725611Y3205898D01*
X20515307Y3319609D01*
X20286920Y3390307D01*
X20049152Y3415297D01*
X19811058Y3393629D01*
X19581707Y3326127D01*
X19369835Y3215363D01*
X19183512Y3065556D01*
X19029836Y2882412D01*
X18914659Y2672906D01*
X18842369Y2445019D01*
X18815719Y2207431D01*
X18815600Y2190327D01*
X18725600Y2190327D01*
X18702270Y2428264D01*
X18644132Y2620826D01*
X20913187Y4889880D01*
X27990078Y4889880D01*
X28003500Y4855979D01*
X28126987Y4664364D01*
X28285340Y4500385D01*
X28472528Y4370286D01*
X28681421Y4279023D01*
X28904061Y4230072D01*
X29131970Y4225298D01*
X29356465Y4264883D01*
X29568996Y4347318D01*
X29761467Y4469465D01*
X29926548Y4626669D01*
X30057951Y4812944D01*
X30150670Y5021194D01*
X30201174Y5243488D01*
X30204809Y5503859D01*
X30160532Y5727476D01*
X30073664Y5938234D01*
X29947514Y6128105D01*
X29786887Y6289858D01*
X29597900Y6417331D01*
X29387754Y6505668D01*
X29164452Y6551505D01*
X28936499Y6553097D01*
X28712578Y6510382D01*
X28501219Y6424987D01*
X28310472Y6300165D01*
X28147602Y6140671D01*
X28018813Y5952580D01*
X27991940Y5889880D01*
X20706080Y5889880D01*
X20660091Y5885371D01*
X20614104Y5881348D01*
X20611579Y5880615D01*
X20608963Y5880358D01*
X20564757Y5867011D01*
X20520396Y5854123D01*
X20518061Y5852913D01*
X20515545Y5852153D01*
X20474755Y5830465D01*
X20433760Y5809215D01*
X20431707Y5807576D01*
X20429384Y5806341D01*
X20393592Y5777150D01*
X20357497Y5748335D01*
X20353834Y5744723D01*
X20353763Y5744665D01*
X20353708Y5744599D01*
X20352526Y5743433D01*
X17939719Y3330625D01*
X17746920Y3390307D01*
X17509152Y3415297D01*
X17271058Y3393629D01*
X17041707Y3326127D01*
X16829835Y3215363D01*
X16643512Y3065556D01*
X16489836Y2882412D01*
X16374659Y2672906D01*
X16302369Y2445019D01*
X16275719Y2207431D01*
X16275600Y2190327D01*
X16185600Y2190327D01*
X16162270Y2428264D01*
X16093169Y2657138D01*
X15980929Y2868232D01*
X15829824Y3053504D01*
X15645611Y3205898D01*
X15435307Y3319609D01*
X15206920Y3390307D01*
X14969152Y3415297D01*
X14731058Y3393629D01*
X14501707Y3326127D01*
X14289835Y3215363D01*
X14103512Y3065556D01*
X13949836Y2882412D01*
X13834659Y2672906D01*
X13762369Y2445019D01*
X13735719Y2207431D01*
X13735600Y2190327D01*
X6299421Y2190327D01*
X6101981Y2428991D01*
X6074655Y2456127D01*
X6047698Y2483655D01*
X6043125Y2487438D01*
X5572917Y2870930D01*
X5540862Y2892227D01*
X5509051Y2914009D01*
X5503831Y2916831D01*
X4968092Y3201689D01*
X4932505Y3216357D01*
X4899998Y3230289D01*
X5226486Y3356926D01*
X5818439Y3732591D01*
X6326152Y4216078D01*
X6730285Y4788974D01*
X6954309Y5292142D01*
X12638432Y5292142D01*
X12679583Y5067929D01*
X12763500Y4855979D01*
X12886987Y4664364D01*
X13045340Y4500385D01*
X13232528Y4370286D01*
X13441421Y4279023D01*
X13664061Y4230072D01*
X13891970Y4225298D01*
X14116465Y4264883D01*
X14328996Y4347318D01*
X14521467Y4469465D01*
X14686548Y4626669D01*
X14817951Y4812944D01*
X14910670Y5021194D01*
X14961174Y5243488D01*
X14964809Y5503859D01*
X14920532Y5727476D01*
X14833664Y5938234D01*
X14707514Y6128105D01*
X14546887Y6289858D01*
X14357900Y6417331D01*
X14147754Y6505668D01*
X14048642Y6526013D01*
X14298240Y6591518D01*
X14549814Y6713975D01*
X14639671Y6774017D01*
X14698279Y7031132D01*
X13802360Y7927052D01*
X12906441Y7031132D01*
X12965049Y6774017D01*
X13206635Y6632875D01*
X13471115Y6541577D01*
X13567175Y6528427D01*
X13472578Y6510382D01*
X13261219Y6424987D01*
X13070472Y6300165D01*
X12907602Y6140671D01*
X12778813Y5952580D01*
X12689010Y5743055D01*
X12641615Y5520078D01*
X12638432Y5292142D01*
X6954309Y5292142D01*
X7015445Y5429455D01*
X7170772Y6113126D01*
X7181953Y6913907D01*
X7045777Y7601648D01*
X6888218Y7983916D01*
X12376110Y7983916D01*
X12392973Y7704630D01*
X12463998Y7434000D01*
X12586455Y7182426D01*
X12646497Y7092569D01*
X12903612Y7033961D01*
X13799532Y7929880D01*
X13805188Y7929880D01*
X14701108Y7033961D01*
X14958223Y7092569D01*
X15099365Y7334155D01*
X15190663Y7598635D01*
X15228610Y7875844D01*
X15211747Y8155130D01*
X15140722Y8425760D01*
X15018265Y8677334D01*
X14958223Y8767191D01*
X14701108Y8825799D01*
X13805188Y7929880D01*
X13799532Y7929880D01*
X12903612Y8825799D01*
X12646497Y8767191D01*
X12505355Y8525605D01*
X12414057Y8261125D01*
X12376110Y7983916D01*
X6888218Y7983916D01*
X6778611Y8249842D01*
X6390632Y8833798D01*
X5896617Y9331273D01*
X5315384Y9723320D01*
X4669071Y9995005D01*
X3982297Y10135979D01*
X3281221Y10140874D01*
X2592545Y10009502D01*
X1942503Y9746867D01*
X1355852Y9362974D01*
X854940Y8872445D01*
X540492Y8413206D01*
X539074Y10372142D01*
X12638432Y10372142D01*
X12679583Y10147929D01*
X12763500Y9935979D01*
X12886987Y9744364D01*
X13045340Y9580385D01*
X13232528Y9450286D01*
X13441421Y9359023D01*
X13556216Y9333783D01*
X13306480Y9268242D01*
X13054906Y9145785D01*
X12965049Y9085743D01*
X12906441Y8828628D01*
X13802360Y7932708D01*
X14698279Y8828628D01*
X14639671Y9085743D01*
X14398085Y9226885D01*
X14133605Y9318183D01*
X14063937Y9327720D01*
X16533666Y9327720D01*
X16533666Y7527720D01*
X16538428Y7468003D01*
X16569795Y7366716D01*
X16628137Y7278177D01*
X16708837Y7209398D01*
X16805502Y7165824D01*
X16910480Y7150906D01*
X18710480Y7150906D01*
X18770197Y7155668D01*
X18871484Y7187035D01*
X18960023Y7245377D01*
X19028802Y7326077D01*
X19072376Y7422742D01*
X19087294Y7527720D01*
X19087294Y8436621D01*
X24149342Y8436621D01*
X24171895Y8188809D01*
X24242152Y7950097D01*
X24357437Y7729577D01*
X24513358Y7535649D01*
X24703978Y7375700D01*
X24922035Y7255822D01*
X25159224Y7180582D01*
X25406509Y7152844D01*
X25424311Y7152720D01*
X25436649Y7152720D01*
X25684298Y7177002D01*
X25922514Y7248924D01*
X26142223Y7365745D01*
X26335058Y7523017D01*
X26493672Y7714749D01*
X26608825Y7927720D01*
X27879767Y7927720D01*
X27878432Y7832142D01*
X27919583Y7607929D01*
X28003500Y7395979D01*
X28126987Y7204364D01*
X28285340Y7040385D01*
X28472528Y6910286D01*
X28681421Y6819023D01*
X28904061Y6770072D01*
X29131970Y6765298D01*
X29356465Y6804883D01*
X29568996Y6887318D01*
X29761467Y7009465D01*
X29926548Y7166669D01*
X30057951Y7352944D01*
X30150670Y7561194D01*
X30201174Y7783488D01*
X30204809Y8043859D01*
X30160532Y8267476D01*
X30073664Y8478234D01*
X29947514Y8668105D01*
X29786887Y8829858D01*
X29597900Y8957331D01*
X29387754Y9045668D01*
X29164452Y9091505D01*
X28936499Y9093097D01*
X28712578Y9050382D01*
X28501219Y8964987D01*
X28444269Y8927720D01*
X26607110Y8927720D01*
X26503523Y9125863D01*
X26347602Y9319791D01*
X26156982Y9479740D01*
X25938925Y9599618D01*
X25701736Y9674858D01*
X25454451Y9702596D01*
X25436649Y9702720D01*
X25424311Y9702720D01*
X25176662Y9678438D01*
X24938446Y9606516D01*
X24718737Y9489695D01*
X24525902Y9332423D01*
X24367288Y9140691D01*
X24248935Y8921802D01*
X24175353Y8684094D01*
X24149342Y8436621D01*
X19087294Y8436621D01*
X19087294Y9327720D01*
X19082532Y9387437D01*
X19051165Y9488724D01*
X18992823Y9577263D01*
X18912123Y9646042D01*
X18815458Y9689616D01*
X18710480Y9704534D01*
X16910480Y9704534D01*
X16850763Y9699772D01*
X16749476Y9668405D01*
X16660937Y9610063D01*
X16592158Y9529363D01*
X16548584Y9432698D01*
X16533666Y9327720D01*
X14063937Y9327720D01*
X14038712Y9331173D01*
X14116465Y9344883D01*
X14328996Y9427318D01*
X14521467Y9549465D01*
X14686548Y9706669D01*
X14817951Y9892944D01*
X14910670Y10101194D01*
X14961174Y10323488D01*
X14961853Y10372142D01*
X27878432Y10372142D01*
X27919583Y10147929D01*
X28003500Y9935979D01*
X28126987Y9744364D01*
X28285340Y9580385D01*
X28472528Y9450286D01*
X28681421Y9359023D01*
X28904061Y9310072D01*
X29131970Y9305298D01*
X29356465Y9344883D01*
X29568996Y9427318D01*
X29761467Y9549465D01*
X29926548Y9706669D01*
X30057951Y9892944D01*
X30150670Y10101194D01*
X30201174Y10323488D01*
X30204809Y10583859D01*
X30160532Y10807476D01*
X30073664Y11018234D01*
X29947514Y11208105D01*
X29786887Y11369858D01*
X29597900Y11497331D01*
X29387754Y11585668D01*
X29288642Y11606013D01*
X29538240Y11671518D01*
X29789814Y11793975D01*
X29879671Y11854017D01*
X29938279Y12111132D01*
X29042360Y13007052D01*
X28146441Y12111132D01*
X28205049Y11854017D01*
X28446635Y11712875D01*
X28711115Y11621577D01*
X28807175Y11608427D01*
X28712578Y11590382D01*
X28501219Y11504987D01*
X28310472Y11380165D01*
X28147602Y11220671D01*
X28018813Y11032580D01*
X27929010Y10823055D01*
X27881615Y10600078D01*
X27878432Y10372142D01*
X14961853Y10372142D01*
X14964809Y10583859D01*
X14920532Y10807476D01*
X14833664Y11018234D01*
X14707514Y11208105D01*
X14546887Y11369858D01*
X14357900Y11497331D01*
X14147754Y11585668D01*
X13924452Y11631505D01*
X13696499Y11633097D01*
X13472578Y11590382D01*
X13261219Y11504987D01*
X13070472Y11380165D01*
X12907602Y11220671D01*
X12778813Y11032580D01*
X12689010Y10823055D01*
X12641615Y10600078D01*
X12638432Y10372142D01*
X539074Y10372142D01*
X537081Y13123260D01*
X5246848Y13123260D01*
X5306967Y12864854D01*
X5550695Y12722457D01*
X5817519Y12630346D01*
X6097187Y12592059D01*
X6378950Y12609069D01*
X6651981Y12680720D01*
X6905788Y12804261D01*
X6996473Y12864854D01*
X7056592Y13123260D01*
X6151720Y14028132D01*
X5246848Y13123260D01*
X537081Y13123260D01*
X536383Y14085493D01*
X4712819Y14085493D01*
X4729829Y13803730D01*
X4801480Y13530699D01*
X4925021Y13276892D01*
X4985614Y13186207D01*
X5244020Y13126088D01*
X6148892Y14030960D01*
X6154548Y14030960D01*
X7059420Y13126088D01*
X7317826Y13186207D01*
X7460223Y13429935D01*
X7552334Y13696759D01*
X7590621Y13976427D01*
X7573611Y14258190D01*
X7501960Y14531221D01*
X7378419Y14785028D01*
X7347729Y14830960D01*
X8774906Y14830960D01*
X8774906Y13230960D01*
X8779668Y13171243D01*
X8811035Y13069956D01*
X8869377Y12981417D01*
X8950077Y12912638D01*
X9046742Y12869064D01*
X9151720Y12854146D01*
X10751720Y12854146D01*
X10811437Y12858908D01*
X10912724Y12890275D01*
X11001263Y12948617D01*
X11070042Y13029317D01*
X11113616Y13125982D01*
X11128534Y13230960D01*
X11128534Y13305960D01*
X12480976Y13305960D01*
X12642534Y13144402D01*
X12641615Y13140078D01*
X12638432Y12912142D01*
X12679583Y12687929D01*
X12763500Y12475979D01*
X12886987Y12284364D01*
X13045340Y12120385D01*
X13232528Y11990286D01*
X13441421Y11899023D01*
X13664061Y11850072D01*
X13891970Y11845298D01*
X14116465Y11884883D01*
X14328996Y11967318D01*
X14521467Y12089465D01*
X14686548Y12246669D01*
X14817951Y12432944D01*
X14910670Y12641194D01*
X14961174Y12863488D01*
X14964809Y13123859D01*
X14920532Y13347476D01*
X14833664Y13558234D01*
X14707514Y13748105D01*
X14546887Y13909858D01*
X14357900Y14037331D01*
X14147754Y14125668D01*
X13924452Y14171505D01*
X13696499Y14173097D01*
X13669582Y14167962D01*
X13365237Y14472307D01*
X13441421Y14439023D01*
X13664061Y14390072D01*
X13891970Y14385298D01*
X14116465Y14424883D01*
X14249743Y14476578D01*
X14253815Y14475333D01*
X14297844Y14461366D01*
X14300455Y14461073D01*
X14302971Y14460304D01*
X14348903Y14455639D01*
X14394819Y14450489D01*
X14399968Y14450453D01*
X14400055Y14450444D01*
X14400136Y14450452D01*
X14401800Y14450440D01*
X16802516Y14450440D01*
X16877477Y14307053D01*
X17021170Y14128336D01*
X17196839Y13980932D01*
X17366360Y13887737D01*
X17366360Y13307042D01*
X17334593Y13294207D01*
X17141778Y13168033D01*
X16977143Y13006810D01*
X16846958Y12816679D01*
X16756182Y12604884D01*
X16708273Y12379490D01*
X16705056Y12149083D01*
X16746653Y11922439D01*
X16831479Y11708191D01*
X16956305Y11514500D01*
X17116375Y11348743D01*
X17305591Y11217234D01*
X17516748Y11124982D01*
X17741802Y11075501D01*
X17972181Y11070675D01*
X18199110Y11110688D01*
X18413944Y11194017D01*
X18608502Y11317488D01*
X18775373Y11476396D01*
X18908200Y11664690D01*
X19001924Y11875198D01*
X19035215Y12021734D01*
X24086556Y12021734D01*
X24107729Y11915298D01*
X24199395Y11649758D01*
X24341104Y11407203D01*
X24527411Y11196955D01*
X24751155Y11027093D01*
X25003738Y10904145D01*
X25275454Y10832836D01*
X25499600Y10973131D01*
X25499600Y12245880D01*
X25503600Y12245880D01*
X25503600Y10973131D01*
X25727746Y10832836D01*
X25999462Y10904145D01*
X26252045Y11027093D01*
X26475789Y11196955D01*
X26662096Y11407203D01*
X26803805Y11649758D01*
X26895471Y11915298D01*
X26916644Y12021734D01*
X26776348Y12245880D01*
X25503600Y12245880D01*
X25499600Y12245880D01*
X24226852Y12245880D01*
X24086556Y12021734D01*
X19035215Y12021734D01*
X19052975Y12099901D01*
X19056650Y12363095D01*
X19034686Y12474026D01*
X24086556Y12474026D01*
X24226852Y12249880D01*
X25499600Y12249880D01*
X25499600Y13522629D01*
X25503600Y13522629D01*
X25503600Y12249880D01*
X26776348Y12249880D01*
X26916644Y12474026D01*
X26895471Y12580462D01*
X26803805Y12846002D01*
X26676493Y13063916D01*
X27616110Y13063916D01*
X27632973Y12784630D01*
X27703998Y12514000D01*
X27826455Y12262426D01*
X27886497Y12172569D01*
X28143612Y12113961D01*
X29039532Y13009880D01*
X29045188Y13009880D01*
X29941108Y12113961D01*
X30198223Y12172569D01*
X30339365Y12414155D01*
X30430663Y12678635D01*
X30468610Y12955844D01*
X30451747Y13235130D01*
X30380722Y13505760D01*
X30258265Y13757334D01*
X30198223Y13847191D01*
X29941108Y13905799D01*
X29045188Y13009880D01*
X29039532Y13009880D01*
X28143612Y13905799D01*
X27886497Y13847191D01*
X27745355Y13605605D01*
X27654057Y13341125D01*
X27616110Y13063916D01*
X26676493Y13063916D01*
X26662096Y13088557D01*
X26475789Y13298805D01*
X26252045Y13468667D01*
X25999462Y13591615D01*
X25727746Y13662924D01*
X25503600Y13522629D01*
X25499600Y13522629D01*
X25275454Y13662924D01*
X25003738Y13591615D01*
X24751155Y13468667D01*
X24527411Y13298805D01*
X24341104Y13088557D01*
X24199395Y12846002D01*
X24107729Y12580462D01*
X24086556Y12474026D01*
X19034686Y12474026D01*
X19011893Y12589136D01*
X18924083Y12802178D01*
X18796565Y12994108D01*
X18634197Y13157613D01*
X18443162Y13286468D01*
X18366360Y13318753D01*
X18366360Y13888853D01*
X18522280Y13971758D01*
X18699990Y14116694D01*
X18846164Y14293388D01*
X18955234Y14495109D01*
X19023046Y14714173D01*
X19047016Y14942237D01*
X19026233Y15170613D01*
X18961486Y15390603D01*
X18855243Y15593827D01*
X18711550Y15772544D01*
X18535881Y15919948D01*
X18334927Y16030424D01*
X18116341Y16099763D01*
X17888451Y16125325D01*
X17872045Y16125440D01*
X17860675Y16125440D01*
X17632450Y16103062D01*
X17412917Y16036782D01*
X17210440Y15929122D01*
X17032730Y15784186D01*
X16886556Y15607492D01*
X16801638Y15450440D01*
X14961829Y15450440D01*
X14964809Y15663859D01*
X14920532Y15887476D01*
X14833664Y16098234D01*
X14707514Y16288105D01*
X14546887Y16449858D01*
X14357900Y16577331D01*
X14147754Y16665668D01*
X13924452Y16711505D01*
X13696499Y16713097D01*
X13472578Y16670382D01*
X13261219Y16584987D01*
X13070472Y16460165D01*
X12907602Y16300671D01*
X12778813Y16112580D01*
X12689010Y15903055D01*
X12641615Y15680078D01*
X12638432Y15452142D01*
X12679583Y15227929D01*
X12763500Y15015979D01*
X12886987Y14824364D01*
X12984387Y14723504D01*
X12932016Y14740117D01*
X12928230Y14740542D01*
X12924582Y14741657D01*
X12857899Y14748430D01*
X12791403Y14755889D01*
X12783956Y14755941D01*
X12783811Y14755956D01*
X12783676Y14755943D01*
X12781280Y14755960D01*
X11128534Y14755960D01*
X11128534Y14830960D01*
X11123772Y14890677D01*
X11092405Y14991964D01*
X11034063Y15080503D01*
X10953363Y15149282D01*
X10856698Y15192856D01*
X10751720Y15207774D01*
X9151720Y15207774D01*
X9092003Y15203012D01*
X8990716Y15171645D01*
X8902177Y15113303D01*
X8833398Y15032603D01*
X8789824Y14935938D01*
X8774906Y14830960D01*
X7347729Y14830960D01*
X7317826Y14875713D01*
X7059420Y14935832D01*
X6154548Y14030960D01*
X6148892Y14030960D01*
X5244020Y14935832D01*
X4985614Y14875713D01*
X4843217Y14631985D01*
X4751106Y14365161D01*
X4712819Y14085493D01*
X536383Y14085493D01*
X535765Y14938660D01*
X5246848Y14938660D01*
X6151720Y14033788D01*
X7056592Y14938660D01*
X6996473Y15197066D01*
X6752745Y15339463D01*
X6485921Y15431574D01*
X6206253Y15469861D01*
X5924490Y15452851D01*
X5651459Y15381200D01*
X5397652Y15257659D01*
X5306967Y15197066D01*
X5246848Y14938660D01*
X535765Y14938660D01*
X533553Y17992142D01*
X12638432Y17992142D01*
X12679583Y17767929D01*
X12763500Y17555979D01*
X12886987Y17364364D01*
X13045340Y17200385D01*
X13232528Y17070286D01*
X13441421Y16979023D01*
X13664061Y16930072D01*
X13891970Y16925298D01*
X14116465Y16964883D01*
X14328996Y17047318D01*
X14521467Y17169465D01*
X14686548Y17326669D01*
X14817951Y17512944D01*
X14910670Y17721194D01*
X14961174Y17943488D01*
X14964809Y18203859D01*
X14920532Y18427476D01*
X14833664Y18638234D01*
X14707514Y18828105D01*
X14546887Y18989858D01*
X14357900Y19117331D01*
X14147754Y19205668D01*
X13924452Y19251505D01*
X13696499Y19253097D01*
X13472578Y19210382D01*
X13261219Y19124987D01*
X13070472Y19000165D01*
X12907602Y18840671D01*
X12778813Y18652580D01*
X12689010Y18443055D01*
X12641615Y18220078D01*
X12638432Y17992142D01*
X533553Y17992142D01*
X531821Y20380672D01*
X4611252Y20380672D01*
X4633189Y20270385D01*
X4728067Y19995584D01*
X4874733Y19744573D01*
X5067550Y19526998D01*
X5299109Y19351220D01*
X5560512Y19223995D01*
X5841712Y19150212D01*
X6073680Y19289891D01*
X6073680Y20612640D01*
X4750932Y20612640D01*
X4611252Y20380672D01*
X531821Y20380672D01*
X529981Y22920672D01*
X4611252Y22920672D01*
X4633189Y22810385D01*
X4728067Y22535584D01*
X4874733Y22284573D01*
X5067550Y22066998D01*
X5299109Y21891220D01*
X5312629Y21884640D01*
X5299109Y21878060D01*
X5067550Y21702282D01*
X4874733Y21484707D01*
X4728067Y21233696D01*
X4633189Y20958895D01*
X4611252Y20848608D01*
X4750932Y20616640D01*
X6073680Y20616640D01*
X6073680Y23152640D01*
X4750932Y23152640D01*
X4611252Y22920672D01*
X529981Y22920672D01*
X528141Y25460672D01*
X4611252Y25460672D01*
X4633189Y25350385D01*
X4728067Y25075584D01*
X4874733Y24824573D01*
X5067550Y24606998D01*
X5299109Y24431220D01*
X5312629Y24424640D01*
X5299109Y24418060D01*
X5067550Y24242282D01*
X4874733Y24024707D01*
X4728067Y23773696D01*
X4633189Y23498895D01*
X4611252Y23388608D01*
X4750932Y23156640D01*
X6073680Y23156640D01*
X6073680Y25692640D01*
X4750932Y25692640D01*
X4611252Y25460672D01*
X528141Y25460672D01*
X526300Y28000672D01*
X4611252Y28000672D01*
X4633189Y27890385D01*
X4728067Y27615584D01*
X4874733Y27364573D01*
X5067550Y27146998D01*
X5299109Y26971220D01*
X5312629Y26964640D01*
X5299109Y26958060D01*
X5067550Y26782282D01*
X4874733Y26564707D01*
X4728067Y26313696D01*
X4633189Y26038895D01*
X4611252Y25928608D01*
X4750932Y25696640D01*
X6073680Y25696640D01*
X6073680Y28232640D01*
X4750932Y28232640D01*
X4611252Y28000672D01*
X526300Y28000672D01*
X524459Y30540672D01*
X4611252Y30540672D01*
X4633189Y30430385D01*
X4728067Y30155584D01*
X4874733Y29904573D01*
X5067550Y29686998D01*
X5299109Y29511220D01*
X5312629Y29504640D01*
X5299109Y29498060D01*
X5067550Y29322282D01*
X4874733Y29104707D01*
X4728067Y28853696D01*
X4633189Y28578895D01*
X4611252Y28468608D01*
X4750932Y28236640D01*
X6073680Y28236640D01*
X6073680Y30772640D01*
X4750932Y30772640D01*
X4611252Y30540672D01*
X524459Y30540672D01*
X522564Y33154390D01*
X4592680Y33154390D01*
X4592680Y32402295D01*
X4617006Y32280001D01*
X4664723Y32164802D01*
X4733997Y32061126D01*
X4822166Y31972957D01*
X4925842Y31903683D01*
X5041041Y31855966D01*
X5058819Y31852430D01*
X4874733Y31644707D01*
X4728067Y31393696D01*
X4633189Y31118895D01*
X4611252Y31008608D01*
X4750932Y30776640D01*
X6073680Y30776640D01*
X6073680Y33312640D01*
X4750930Y33312640D01*
X4592680Y33154390D01*
X522564Y33154390D01*
X521787Y34226985D01*
X4592680Y34226985D01*
X4592680Y33474890D01*
X4750930Y33316640D01*
X6073680Y33316640D01*
X6073680Y34639390D01*
X5915430Y34797640D01*
X5163335Y34797640D01*
X5041041Y34773314D01*
X4925842Y34725597D01*
X4822166Y34656323D01*
X4733997Y34568154D01*
X4664723Y34464478D01*
X4617006Y34349279D01*
X4592680Y34226985D01*
X521787Y34226985D01*
X517777Y39759760D01*
X776300Y39358612D01*
X1263320Y38854287D01*
X1839023Y38454164D01*
X2481479Y38173482D01*
X3166218Y38022932D01*
X3867158Y38008249D01*
X4557600Y38129993D01*
X5211246Y38383526D01*
X5803199Y38759191D01*
X6310912Y39242678D01*
X6715045Y39815574D01*
X7000205Y40456055D01*
X7155532Y41139726D01*
X7166713Y41940507D01*
X7030537Y42628248D01*
X6763371Y43276442D01*
X6375392Y43860398D01*
X5881377Y44357873D01*
X5300144Y44749920D01*
X4878577Y44927130D01*
X4904934Y44937129D01*
X4910232Y44939803D01*
X5449659Y45216732D01*
X5482027Y45237572D01*
X5514722Y45257982D01*
X5519400Y45261634D01*
X5994765Y45638065D01*
X6022477Y45664803D01*
X6050577Y45691167D01*
X6054456Y45695657D01*
X6432852Y46139876D01*
X6447894Y46154825D01*
X7026000Y46154825D01*
X7026000Y45402730D01*
X7184250Y45244480D01*
X8507000Y45244480D01*
X8507000Y46567230D01*
X8511000Y46567230D01*
X8511000Y45244480D01*
X9833750Y45244480D01*
X9845040Y45255770D01*
X9856330Y45244480D01*
X11179080Y45244480D01*
X11179080Y46567230D01*
X11183080Y46567230D01*
X11183080Y45244480D01*
X12505830Y45244480D01*
X12664080Y45402730D01*
X12664080Y46154825D01*
X12639754Y46277119D01*
X12592037Y46392318D01*
X12522763Y46495994D01*
X12434594Y46584163D01*
X12330918Y46653437D01*
X12215719Y46701154D01*
X12093425Y46725480D01*
X11341330Y46725480D01*
X11183080Y46567230D01*
X11179080Y46567230D01*
X11020830Y46725480D01*
X10268735Y46725480D01*
X10146441Y46701154D01*
X10031242Y46653437D01*
X9927566Y46584163D01*
X9845040Y46501637D01*
X9762514Y46584163D01*
X9658838Y46653437D01*
X9543639Y46701154D01*
X9421345Y46725480D01*
X8669250Y46725480D01*
X8511000Y46567230D01*
X8507000Y46567230D01*
X8348750Y46725480D01*
X7596655Y46725480D01*
X7474361Y46701154D01*
X7359162Y46653437D01*
X7255486Y46584163D01*
X7167317Y46495994D01*
X7098043Y46392318D01*
X7050326Y46277119D01*
X7026000Y46154825D01*
X6447894Y46154825D01*
X6449689Y46156608D01*
X6453438Y46161208D01*
X6886499Y46700202D01*
X7384092Y47118022D01*
X7953366Y47431235D01*
X8572632Y47627909D01*
X9237257Y47702688D01*
X9277065Y47702918D01*
X27457533Y47683357D01*
X27457533Y47683357D01*
G37*
X27457533Y47683357D02*
X27037524Y47603236D01*
X26605631Y47428740D01*
X26215858Y47173679D01*
X25883049Y46847769D01*
X25774064Y46688600D01*
X14994281Y46688600D01*
X14867858Y46676204D01*
X14741348Y46665136D01*
X14734403Y46663118D01*
X14727209Y46662413D01*
X14605623Y46625704D01*
X14483650Y46590268D01*
X14477232Y46586941D01*
X14470309Y46584851D01*
X14358158Y46525219D01*
X14245402Y46466772D01*
X14239751Y46462261D01*
X14233368Y46458867D01*
X14134939Y46378590D01*
X14035679Y46299352D01*
X14025616Y46289429D01*
X14025409Y46289260D01*
X14025251Y46289069D01*
X14022009Y46285872D01*
X12664080Y44927943D01*
X12664080Y45082230D01*
X12505830Y45240480D01*
X11183080Y45240480D01*
X11183080Y45220480D01*
X11179080Y45220480D01*
X11179080Y45240480D01*
X9856330Y45240480D01*
X9845040Y45229190D01*
X9833750Y45240480D01*
X8511000Y45240480D01*
X8511000Y45220480D01*
X8507000Y45220480D01*
X8507000Y45240480D01*
X7184250Y45240480D01*
X7026000Y45082230D01*
X7026000Y44330135D01*
X7050326Y44207841D01*
X7098043Y44092642D01*
X7167317Y43988966D01*
X7255486Y43900797D01*
X7359162Y43831523D01*
X7474361Y43783806D01*
X7596655Y43759480D01*
X7639861Y43759480D01*
X7540128Y43678140D01*
X7369073Y43471370D01*
X7241438Y43235314D01*
X7162084Y42978962D01*
X7134034Y42712079D01*
X7158355Y42444831D01*
X7234122Y42187396D01*
X7358449Y41949581D01*
X7526600Y41740443D01*
X7732170Y41567949D01*
X7967330Y41438669D01*
X8223121Y41357527D01*
X8237761Y41355885D01*
X8036262Y41295049D01*
X7825168Y41182809D01*
X7639896Y41031704D01*
X7487502Y40847491D01*
X7373791Y40637187D01*
X7303093Y40408800D01*
X7278103Y40171032D01*
X7299771Y39932938D01*
X7367273Y39703587D01*
X7478037Y39491715D01*
X7627844Y39305392D01*
X7810988Y39151716D01*
X8020494Y39036539D01*
X8248381Y38964249D01*
X8485969Y38937599D01*
X8503073Y38937480D01*
X8514927Y38937480D01*
X8752864Y38960810D01*
X8981738Y39029911D01*
X9192832Y39142151D01*
X9378104Y39293256D01*
X9530498Y39477469D01*
X9644209Y39687773D01*
X9714907Y39916160D01*
X9739897Y40153928D01*
X9718229Y40392022D01*
X9650727Y40621373D01*
X9539963Y40833245D01*
X9390156Y41019568D01*
X9207012Y41173244D01*
X8997506Y41288421D01*
X8874376Y41327480D01*
X10815759Y41327480D01*
X10708342Y41295049D01*
X10497248Y41182809D01*
X10311976Y41031704D01*
X10159582Y40847491D01*
X10045871Y40637187D01*
X9975173Y40408800D01*
X9950183Y40171032D01*
X9971851Y39932938D01*
X10039353Y39703587D01*
X10150117Y39491715D01*
X10299924Y39305392D01*
X10483068Y39151716D01*
X10692574Y39036539D01*
X10920461Y38964249D01*
X11158049Y38937599D01*
X11175153Y38937480D01*
X11187007Y38937480D01*
X11381531Y38956553D01*
X8269849Y35844871D01*
X8239101Y35807437D01*
X8207895Y35770248D01*
X8206562Y35767823D01*
X8204814Y35765695D01*
X8181921Y35723001D01*
X8158534Y35680460D01*
X8157700Y35677830D01*
X8156394Y35675395D01*
X8142195Y35628953D01*
X8127553Y35582794D01*
X8127246Y35580056D01*
X8126437Y35577410D01*
X8121531Y35529109D01*
X8116131Y35480970D01*
X8116093Y35475576D01*
X8116083Y35475473D01*
X8116092Y35475377D01*
X8116080Y35473640D01*
X8116080Y34536374D01*
X7791080Y34536374D01*
X7731363Y34531612D01*
X7630076Y34500245D01*
X7541537Y34441903D01*
X7510885Y34405938D01*
X7486637Y34464478D01*
X7417363Y34568154D01*
X7329194Y34656323D01*
X7225518Y34725597D01*
X7110319Y34773314D01*
X6988025Y34797640D01*
X6235930Y34797640D01*
X6077680Y34639390D01*
X6077680Y33316640D01*
X6097680Y33316640D01*
X6097680Y33312640D01*
X6077680Y33312640D01*
X6077680Y30776640D01*
X6097680Y30776640D01*
X6097680Y30772640D01*
X6077680Y30772640D01*
X6077680Y28236640D01*
X6097680Y28236640D01*
X6097680Y28232640D01*
X6077680Y28232640D01*
X6077680Y25696640D01*
X6097680Y25696640D01*
X6097680Y25692640D01*
X6077680Y25692640D01*
X6077680Y23156640D01*
X6097680Y23156640D01*
X6097680Y23152640D01*
X6077680Y23152640D01*
X6077680Y20616640D01*
X6097680Y20616640D01*
X6097680Y20612640D01*
X6077680Y20612640D01*
X6077680Y19289891D01*
X6309648Y19150212D01*
X6590848Y19223995D01*
X6852251Y19351220D01*
X7083810Y19526998D01*
X7276627Y19744573D01*
X7423293Y19995584D01*
X7488992Y20185871D01*
X7499353Y20150667D01*
X7610117Y19938795D01*
X7759924Y19752472D01*
X7943068Y19598796D01*
X8152574Y19483619D01*
X8380461Y19411329D01*
X8618049Y19384679D01*
X8635153Y19384560D01*
X8647007Y19384560D01*
X8884944Y19407890D01*
X9113818Y19476991D01*
X9324912Y19589231D01*
X9510184Y19740336D01*
X9662578Y19924549D01*
X9776289Y20134853D01*
X9846987Y20363240D01*
X9871977Y20601008D01*
X9870421Y20618112D01*
X9945103Y20618112D01*
X9966771Y20380018D01*
X10034273Y20150667D01*
X10145037Y19938795D01*
X10294844Y19752472D01*
X10477988Y19598796D01*
X10687494Y19483619D01*
X10915381Y19411329D01*
X11152969Y19384679D01*
X11170073Y19384560D01*
X11181927Y19384560D01*
X11419864Y19407890D01*
X11648738Y19476991D01*
X11859832Y19589231D01*
X12045104Y19740336D01*
X12197498Y19924549D01*
X12297533Y20109560D01*
X12758123Y20109560D01*
X12763500Y20095979D01*
X12886987Y19904364D01*
X13045340Y19740385D01*
X13232528Y19610286D01*
X13441421Y19519023D01*
X13664061Y19470072D01*
X13891970Y19465298D01*
X14116465Y19504883D01*
X14328996Y19587318D01*
X14521467Y19709465D01*
X14686548Y19866669D01*
X14817951Y20052944D01*
X14910670Y20261194D01*
X14961174Y20483488D01*
X14964809Y20743859D01*
X14920532Y20967476D01*
X14833664Y21178234D01*
X14707514Y21368105D01*
X14546887Y21529858D01*
X14357900Y21657331D01*
X14147754Y21745668D01*
X13924452Y21791505D01*
X13696499Y21793097D01*
X13472578Y21750382D01*
X13261219Y21664987D01*
X13070472Y21540165D01*
X12907602Y21380671D01*
X12778813Y21192580D01*
X12743230Y21109560D01*
X12296237Y21109560D01*
X12206963Y21280325D01*
X12057156Y21466648D01*
X11874012Y21620324D01*
X11664506Y21735501D01*
X11436619Y21807791D01*
X11199031Y21834441D01*
X11181927Y21834560D01*
X11170073Y21834560D01*
X10932136Y21811230D01*
X10703262Y21742129D01*
X10492168Y21629889D01*
X10306896Y21478784D01*
X10154502Y21294571D01*
X10040791Y21084267D01*
X9970093Y20855880D01*
X9945103Y20618112D01*
X9870421Y20618112D01*
X9850309Y20839102D01*
X9782807Y21068453D01*
X9672043Y21280325D01*
X9522236Y21466648D01*
X9516080Y21471813D01*
X9516080Y22287463D01*
X9662578Y22464549D01*
X9776289Y22674853D01*
X9846987Y22903240D01*
X9871977Y23141008D01*
X9870421Y23158112D01*
X9945103Y23158112D01*
X9966771Y22920018D01*
X10034273Y22690667D01*
X10145037Y22478795D01*
X10294844Y22292472D01*
X10477988Y22138796D01*
X10687494Y22023619D01*
X10915381Y21951329D01*
X11152969Y21924679D01*
X11170073Y21924560D01*
X11181927Y21924560D01*
X11419864Y21947890D01*
X11648738Y22016991D01*
X11859832Y22129231D01*
X12045104Y22280336D01*
X12197498Y22464549D01*
X12297533Y22649560D01*
X12758123Y22649560D01*
X12763500Y22635979D01*
X12886987Y22444364D01*
X13045340Y22280385D01*
X13232528Y22150286D01*
X13441421Y22059023D01*
X13664061Y22010072D01*
X13891970Y22005298D01*
X14116465Y22044883D01*
X14328996Y22127318D01*
X14521467Y22249465D01*
X14686548Y22406669D01*
X14817951Y22592944D01*
X14910670Y22801194D01*
X14961174Y23023488D01*
X14964809Y23283859D01*
X14920532Y23507476D01*
X14833664Y23718234D01*
X14707514Y23908105D01*
X14617413Y23998838D01*
X15808386Y23998838D01*
X15848638Y23779524D01*
X15930721Y23572205D01*
X16051509Y23384778D01*
X16206402Y23224382D01*
X16389500Y23097126D01*
X16593828Y23007857D01*
X16811603Y22959976D01*
X17034532Y22955306D01*
X17254121Y22994026D01*
X17462008Y23074660D01*
X17650274Y23194137D01*
X17811748Y23347906D01*
X17940279Y23530111D01*
X18030972Y23733811D01*
X18080372Y23951247D01*
X18083928Y24205929D01*
X18040618Y24424659D01*
X17955649Y24630812D01*
X17832255Y24816534D01*
X17675138Y24974752D01*
X17490281Y25099439D01*
X17284727Y25185846D01*
X17066304Y25230682D01*
X16843332Y25232239D01*
X16624305Y25190457D01*
X16417564Y25106928D01*
X16230985Y24984834D01*
X16071673Y24828825D01*
X15945699Y24644844D01*
X15857859Y24439898D01*
X15811499Y24221793D01*
X15808386Y23998838D01*
X14617413Y23998838D01*
X14546887Y24069858D01*
X14357900Y24197331D01*
X14147754Y24285668D01*
X13924452Y24331505D01*
X13696499Y24333097D01*
X13472578Y24290382D01*
X13261219Y24204987D01*
X13070472Y24080165D01*
X12907602Y23920671D01*
X12778813Y23732580D01*
X12743230Y23649560D01*
X12296237Y23649560D01*
X12206963Y23820325D01*
X12057156Y24006648D01*
X11874012Y24160324D01*
X11664506Y24275501D01*
X11436619Y24347791D01*
X11199031Y24374441D01*
X11181927Y24374560D01*
X11170073Y24374560D01*
X10932136Y24351230D01*
X10703262Y24282129D01*
X10492168Y24169889D01*
X10306896Y24018784D01*
X10154502Y23834571D01*
X10040791Y23624267D01*
X9970093Y23395880D01*
X9945103Y23158112D01*
X9870421Y23158112D01*
X9850309Y23379102D01*
X9782807Y23608453D01*
X9672043Y23820325D01*
X9522236Y24006648D01*
X9516080Y24011813D01*
X9516080Y24827463D01*
X9662578Y25004549D01*
X9776289Y25214853D01*
X9846987Y25443240D01*
X9871977Y25681008D01*
X9870421Y25698112D01*
X9945103Y25698112D01*
X9966771Y25460018D01*
X10034273Y25230667D01*
X10145037Y25018795D01*
X10294844Y24832472D01*
X10477988Y24678796D01*
X10687494Y24563619D01*
X10915381Y24491329D01*
X11152969Y24464679D01*
X11170073Y24464560D01*
X11181927Y24464560D01*
X11419864Y24487890D01*
X11648738Y24556991D01*
X11859832Y24669231D01*
X12045104Y24820336D01*
X12197498Y25004549D01*
X12297533Y25189560D01*
X12758123Y25189560D01*
X12763500Y25175979D01*
X12886987Y24984364D01*
X13045340Y24820385D01*
X13232528Y24690286D01*
X13441421Y24599023D01*
X13664061Y24550072D01*
X13891970Y24545298D01*
X14116465Y24584883D01*
X14328996Y24667318D01*
X14521467Y24789465D01*
X14686548Y24946669D01*
X14817951Y25132944D01*
X14910670Y25341194D01*
X14961174Y25563488D01*
X14964809Y25823859D01*
X14920532Y26047476D01*
X14833664Y26258234D01*
X14707514Y26448105D01*
X14546887Y26609858D01*
X14357900Y26737331D01*
X14147754Y26825668D01*
X13924452Y26871505D01*
X13696499Y26873097D01*
X13472578Y26830382D01*
X13261219Y26744987D01*
X13070472Y26620165D01*
X12907602Y26460671D01*
X12778813Y26272580D01*
X12743230Y26189560D01*
X12296237Y26189560D01*
X12206963Y26360325D01*
X12057156Y26546648D01*
X11874012Y26700324D01*
X11664506Y26815501D01*
X11436619Y26887791D01*
X11199031Y26914441D01*
X11181927Y26914560D01*
X11170073Y26914560D01*
X10932136Y26891230D01*
X10703262Y26822129D01*
X10492168Y26709889D01*
X10306896Y26558784D01*
X10154502Y26374571D01*
X10040791Y26164267D01*
X9970093Y25935880D01*
X9945103Y25698112D01*
X9870421Y25698112D01*
X9850309Y25919102D01*
X9782807Y26148453D01*
X9672043Y26360325D01*
X9522236Y26546648D01*
X9516080Y26551813D01*
X9516080Y27367463D01*
X9662578Y27544549D01*
X9776289Y27754853D01*
X9846987Y27983240D01*
X9871977Y28221008D01*
X9870421Y28238112D01*
X9945103Y28238112D01*
X9966771Y28000018D01*
X10034273Y27770667D01*
X10145037Y27558795D01*
X10294844Y27372472D01*
X10477988Y27218796D01*
X10687494Y27103619D01*
X10915381Y27031329D01*
X11152969Y27004679D01*
X11170073Y27004560D01*
X11181927Y27004560D01*
X11419864Y27027890D01*
X11648738Y27096991D01*
X11859832Y27209231D01*
X12045104Y27360336D01*
X12197498Y27544549D01*
X12297533Y27729560D01*
X12758123Y27729560D01*
X12763500Y27715979D01*
X12886987Y27524364D01*
X13045340Y27360385D01*
X13232528Y27230286D01*
X13441421Y27139023D01*
X13664061Y27090072D01*
X13891970Y27085298D01*
X14116465Y27124883D01*
X14328996Y27207318D01*
X14521467Y27329465D01*
X14686548Y27486669D01*
X14817951Y27672944D01*
X14910670Y27881194D01*
X14961174Y28103488D01*
X14964809Y28363859D01*
X14920532Y28587476D01*
X14833664Y28798234D01*
X14707514Y28988105D01*
X14546887Y29149858D01*
X14357900Y29277331D01*
X14147754Y29365668D01*
X13924452Y29411505D01*
X13696499Y29413097D01*
X13472578Y29370382D01*
X13261219Y29284987D01*
X13070472Y29160165D01*
X12907602Y29000671D01*
X12778813Y28812580D01*
X12743230Y28729560D01*
X12296237Y28729560D01*
X12206963Y28900325D01*
X12057156Y29086648D01*
X11874012Y29240324D01*
X11664506Y29355501D01*
X11436619Y29427791D01*
X11199031Y29454441D01*
X11181927Y29454560D01*
X11170073Y29454560D01*
X10932136Y29431230D01*
X10703262Y29362129D01*
X10492168Y29249889D01*
X10306896Y29098784D01*
X10154502Y28914571D01*
X10040791Y28704267D01*
X9970093Y28475880D01*
X9945103Y28238112D01*
X9870421Y28238112D01*
X9850309Y28459102D01*
X9782807Y28688453D01*
X9672043Y28900325D01*
X9522236Y29086648D01*
X9516080Y29091813D01*
X9516080Y29907463D01*
X9662578Y30084549D01*
X9776289Y30294853D01*
X9846987Y30523240D01*
X9871977Y30761008D01*
X9870421Y30778112D01*
X9945103Y30778112D01*
X9966771Y30540018D01*
X10034273Y30310667D01*
X10145037Y30098795D01*
X10294844Y29912472D01*
X10477988Y29758796D01*
X10687494Y29643619D01*
X10915381Y29571329D01*
X11152969Y29544679D01*
X11170073Y29544560D01*
X11181927Y29544560D01*
X11419864Y29567890D01*
X11648738Y29636991D01*
X11859832Y29749231D01*
X12045104Y29900336D01*
X12197498Y30084549D01*
X12297533Y30269560D01*
X12758123Y30269560D01*
X12763500Y30255979D01*
X12886987Y30064364D01*
X13045340Y29900385D01*
X13232528Y29770286D01*
X13441421Y29679023D01*
X13664061Y29630072D01*
X13891970Y29625298D01*
X14116465Y29664883D01*
X14328996Y29747318D01*
X14521467Y29869465D01*
X14686548Y30026669D01*
X14817951Y30212944D01*
X14910670Y30421194D01*
X14961174Y30643488D01*
X14964809Y30903859D01*
X14920532Y31127476D01*
X14833664Y31338234D01*
X14707514Y31528105D01*
X14546887Y31689858D01*
X14357900Y31817331D01*
X14147754Y31905668D01*
X13924452Y31951505D01*
X13696499Y31953097D01*
X13472578Y31910382D01*
X13261219Y31824987D01*
X13070472Y31700165D01*
X12907602Y31540671D01*
X12778813Y31352580D01*
X12743230Y31269560D01*
X12296237Y31269560D01*
X12206963Y31440325D01*
X12057156Y31626648D01*
X11874012Y31780324D01*
X11664506Y31895501D01*
X11436619Y31967791D01*
X11199031Y31994441D01*
X11181927Y31994560D01*
X11170073Y31994560D01*
X10932136Y31971230D01*
X10703262Y31902129D01*
X10492168Y31789889D01*
X10306896Y31638784D01*
X10154502Y31454571D01*
X10040791Y31244267D01*
X9970093Y31015880D01*
X9945103Y30778112D01*
X9870421Y30778112D01*
X9850309Y30999102D01*
X9782807Y31228453D01*
X9672043Y31440325D01*
X9522236Y31626648D01*
X9516080Y31631813D01*
X9516080Y32084740D01*
X9550797Y32087508D01*
X9652084Y32118875D01*
X9740623Y32177217D01*
X9809402Y32257917D01*
X9852976Y32354582D01*
X9867894Y32459560D01*
X9867894Y33632740D01*
X9888710Y33649718D01*
X9926572Y33679942D01*
X9930411Y33683729D01*
X9930493Y33683795D01*
X9930555Y33683871D01*
X9931791Y33685089D01*
X9949186Y33702484D01*
X9949186Y32459560D01*
X9953948Y32399843D01*
X9985315Y32298556D01*
X10043657Y32210017D01*
X10124357Y32141238D01*
X10221022Y32097664D01*
X10326000Y32082746D01*
X12026000Y32082746D01*
X12085717Y32087508D01*
X12187004Y32118875D01*
X12275543Y32177217D01*
X12344322Y32257917D01*
X12387896Y32354582D01*
X12402814Y32459560D01*
X12402814Y32809560D01*
X12758123Y32809560D01*
X12763500Y32795979D01*
X12886987Y32604364D01*
X13045340Y32440385D01*
X13232528Y32310286D01*
X13441421Y32219023D01*
X13664061Y32170072D01*
X13891970Y32165298D01*
X14116465Y32204883D01*
X14328996Y32287318D01*
X14521467Y32409465D01*
X14686548Y32566669D01*
X14817951Y32752944D01*
X14910670Y32961194D01*
X14961174Y33183488D01*
X14964809Y33443859D01*
X14920532Y33667476D01*
X14833664Y33878234D01*
X14707514Y34068105D01*
X14650340Y34125680D01*
X15124138Y34125680D01*
X15651089Y33598729D01*
X15688523Y33567981D01*
X15725712Y33536775D01*
X15728137Y33535442D01*
X15730265Y33533694D01*
X15772943Y33510810D01*
X15815500Y33487414D01*
X15818132Y33486579D01*
X15820564Y33485275D01*
X15866976Y33471085D01*
X15913166Y33456433D01*
X15915905Y33456126D01*
X15918550Y33455317D01*
X15966851Y33450411D01*
X16014990Y33445011D01*
X16020384Y33444973D01*
X16020487Y33444963D01*
X16020583Y33444972D01*
X16022320Y33444960D01*
X16251335Y33444960D01*
X16269137Y33423133D01*
X16319583Y33359940D01*
X16325898Y33353537D01*
X16326006Y33353405D01*
X16326129Y33353303D01*
X16328162Y33351242D01*
X23153400Y26526003D01*
X23153400Y16408400D01*
X23161291Y16327925D01*
X23168332Y16247443D01*
X23169615Y16243028D01*
X23170064Y16238445D01*
X23193440Y16161019D01*
X23215975Y16083453D01*
X23218091Y16079370D01*
X23219422Y16074963D01*
X23257376Y16003583D01*
X23294563Y15931841D01*
X23297434Y15928245D01*
X23299594Y15924182D01*
X23350657Y15861573D01*
X23401103Y15798380D01*
X23407418Y15791977D01*
X23407526Y15791845D01*
X23407649Y15791743D01*
X23409682Y15789682D01*
X24310338Y14889025D01*
X24309816Y14851643D01*
X24351413Y14624999D01*
X24436239Y14410751D01*
X24561065Y14217060D01*
X24721135Y14051303D01*
X24910351Y13919794D01*
X25121508Y13827542D01*
X25346562Y13778061D01*
X25576941Y13773235D01*
X25803870Y13813248D01*
X26018704Y13896577D01*
X26213262Y14020048D01*
X26380133Y14178956D01*
X26512960Y14367250D01*
X26606684Y14577758D01*
X26657735Y14802461D01*
X26661410Y15065655D01*
X26616653Y15291696D01*
X26550522Y15452142D01*
X27878432Y15452142D01*
X27919583Y15227929D01*
X28003500Y15015979D01*
X28126987Y14824364D01*
X28285340Y14660385D01*
X28472528Y14530286D01*
X28681421Y14439023D01*
X28796216Y14413783D01*
X28546480Y14348242D01*
X28294906Y14225785D01*
X28205049Y14165743D01*
X28146441Y13908628D01*
X29042360Y13012708D01*
X29938279Y13908628D01*
X29879671Y14165743D01*
X29638085Y14306885D01*
X29373605Y14398183D01*
X29278712Y14411173D01*
X29356465Y14424883D01*
X29568996Y14507318D01*
X29761467Y14629465D01*
X29926548Y14786669D01*
X30057951Y14972944D01*
X30150670Y15181194D01*
X30201174Y15403488D01*
X30204809Y15663859D01*
X30160532Y15887476D01*
X30073664Y16098234D01*
X29947514Y16288105D01*
X29786887Y16449858D01*
X29597900Y16577331D01*
X29387754Y16665668D01*
X29164452Y16711505D01*
X28936499Y16713097D01*
X28712578Y16670382D01*
X28501219Y16584987D01*
X28310472Y16460165D01*
X28147602Y16300671D01*
X28018813Y16112580D01*
X27929010Y15903055D01*
X27881615Y15680078D01*
X27878432Y15452142D01*
X26550522Y15452142D01*
X26528843Y15504738D01*
X26401325Y15696668D01*
X26238957Y15860173D01*
X26047922Y15989028D01*
X25835498Y16078323D01*
X25609775Y16124657D01*
X25549156Y16125080D01*
X24903400Y16770836D01*
X24903400Y17992142D01*
X27878432Y17992142D01*
X27919583Y17767929D01*
X28003500Y17555979D01*
X28126987Y17364364D01*
X28285340Y17200385D01*
X28472528Y17070286D01*
X28681421Y16979023D01*
X28904061Y16930072D01*
X29131970Y16925298D01*
X29356465Y16964883D01*
X29568996Y17047318D01*
X29761467Y17169465D01*
X29926548Y17326669D01*
X30057951Y17512944D01*
X30150670Y17721194D01*
X30201174Y17943488D01*
X30204809Y18203859D01*
X30160532Y18427476D01*
X30073664Y18638234D01*
X29947514Y18828105D01*
X29786887Y18989858D01*
X29597900Y19117331D01*
X29387754Y19205668D01*
X29164452Y19251505D01*
X28936499Y19253097D01*
X28712578Y19210382D01*
X28501219Y19124987D01*
X28310472Y19000165D01*
X28147602Y18840671D01*
X28018813Y18652580D01*
X27929010Y18443055D01*
X27881615Y18220078D01*
X27878432Y17992142D01*
X24903400Y17992142D01*
X24903400Y20532142D01*
X27878432Y20532142D01*
X27919583Y20307929D01*
X28003500Y20095979D01*
X28126987Y19904364D01*
X28285340Y19740385D01*
X28472528Y19610286D01*
X28681421Y19519023D01*
X28904061Y19470072D01*
X29131970Y19465298D01*
X29356465Y19504883D01*
X29568996Y19587318D01*
X29761467Y19709465D01*
X29926548Y19866669D01*
X30057951Y20052944D01*
X30092205Y20129880D01*
X30335226Y20129880D01*
X30335226Y19754480D01*
X30339988Y19694763D01*
X30371355Y19593476D01*
X30429697Y19504937D01*
X30510397Y19436158D01*
X30607062Y19392584D01*
X30712040Y19377666D01*
X32412040Y19377666D01*
X32471757Y19382428D01*
X32573044Y19413795D01*
X32661583Y19472137D01*
X32730362Y19552837D01*
X32773936Y19649502D01*
X32788854Y19754480D01*
X32788854Y21454480D01*
X32784092Y21514197D01*
X32752725Y21615484D01*
X32694383Y21704023D01*
X32613683Y21772802D01*
X32517018Y21816376D01*
X32412040Y21831294D01*
X30712040Y21831294D01*
X30652323Y21826532D01*
X30551036Y21795165D01*
X30462497Y21736823D01*
X30393718Y21656123D01*
X30350144Y21559458D01*
X30335226Y21454480D01*
X30335226Y21129880D01*
X30093594Y21129880D01*
X30073664Y21178234D01*
X29947514Y21368105D01*
X29786887Y21529858D01*
X29597900Y21657331D01*
X29387754Y21745668D01*
X29164452Y21791505D01*
X28936499Y21793097D01*
X28712578Y21750382D01*
X28501219Y21664987D01*
X28310472Y21540165D01*
X28147602Y21380671D01*
X28018813Y21192580D01*
X27929010Y20983055D01*
X27881615Y20760078D01*
X27878432Y20532142D01*
X24903400Y20532142D01*
X24903400Y23213740D01*
X25209008Y23213740D01*
X25264571Y22959226D01*
X25501840Y22820615D01*
X25761592Y22730956D01*
X26033846Y22693694D01*
X26308137Y22710263D01*
X26573925Y22780025D01*
X26820996Y22900299D01*
X26909189Y22959226D01*
X26933839Y23072142D01*
X27878432Y23072142D01*
X27919583Y22847929D01*
X28003500Y22635979D01*
X28126987Y22444364D01*
X28285340Y22280385D01*
X28472528Y22150286D01*
X28681421Y22059023D01*
X28904061Y22010072D01*
X29131970Y22005298D01*
X29356465Y22044883D01*
X29568996Y22127318D01*
X29761467Y22249465D01*
X29926548Y22406669D01*
X30057951Y22592944D01*
X30092205Y22669880D01*
X30428524Y22669880D01*
X30531077Y22473715D01*
X30680884Y22287392D01*
X30864028Y22133716D01*
X31073534Y22018539D01*
X31301421Y21946249D01*
X31539009Y21919599D01*
X31556113Y21919480D01*
X31567967Y21919480D01*
X31805904Y21942810D01*
X32034778Y22011911D01*
X32245872Y22124151D01*
X32431144Y22275256D01*
X32583538Y22459469D01*
X32697249Y22669773D01*
X32767947Y22898160D01*
X32792937Y23135928D01*
X32771269Y23374022D01*
X32703767Y23603373D01*
X32593003Y23815245D01*
X32443196Y24001568D01*
X32260052Y24155244D01*
X32050546Y24270421D01*
X31822659Y24342711D01*
X31585071Y24369361D01*
X31567967Y24369480D01*
X31556113Y24369480D01*
X31318176Y24346150D01*
X31089302Y24277049D01*
X30878208Y24164809D01*
X30692936Y24013704D01*
X30540542Y23829491D01*
X30454241Y23669880D01*
X30093594Y23669880D01*
X30073664Y23718234D01*
X29947514Y23908105D01*
X29786887Y24069858D01*
X29597900Y24197331D01*
X29387754Y24285668D01*
X29164452Y24331505D01*
X28936499Y24333097D01*
X28712578Y24290382D01*
X28501219Y24204987D01*
X28310472Y24080165D01*
X28147602Y23920671D01*
X28018813Y23732580D01*
X27929010Y23523055D01*
X27881615Y23300078D01*
X27878432Y23072142D01*
X26933839Y23072142D01*
X26964752Y23213740D01*
X26086880Y24091612D01*
X25209008Y23213740D01*
X24903400Y23213740D01*
X24903400Y23344368D01*
X24951666Y23272131D01*
X25206180Y23216568D01*
X26084052Y24094440D01*
X26089708Y24094440D01*
X26967580Y23216568D01*
X27222094Y23272131D01*
X27360705Y23509400D01*
X27450364Y23769152D01*
X27487626Y24041406D01*
X27471057Y24315697D01*
X27401295Y24581485D01*
X27281021Y24828556D01*
X27222094Y24916749D01*
X26967580Y24972312D01*
X26089708Y24094440D01*
X26084052Y24094440D01*
X25206180Y24972312D01*
X24951666Y24916749D01*
X24903400Y24834129D01*
X24903400Y24975140D01*
X25209008Y24975140D01*
X26086880Y24097268D01*
X26964752Y24975140D01*
X26909189Y25229654D01*
X26671920Y25368265D01*
X26412168Y25457924D01*
X26139914Y25495186D01*
X25865623Y25478617D01*
X25599835Y25408855D01*
X25352764Y25288581D01*
X25264571Y25229654D01*
X25209008Y24975140D01*
X24903400Y24975140D01*
X24903400Y25612142D01*
X27878432Y25612142D01*
X27919583Y25387929D01*
X28003500Y25175979D01*
X28126987Y24984364D01*
X28285340Y24820385D01*
X28472528Y24690286D01*
X28681421Y24599023D01*
X28904061Y24550072D01*
X29131970Y24545298D01*
X29356465Y24584883D01*
X29568996Y24667318D01*
X29761467Y24789465D01*
X29926548Y24946669D01*
X30057951Y25132944D01*
X30092205Y25209880D01*
X30428524Y25209880D01*
X30531077Y25013715D01*
X30680884Y24827392D01*
X30864028Y24673716D01*
X31073534Y24558539D01*
X31301421Y24486249D01*
X31539009Y24459599D01*
X31556113Y24459480D01*
X31567967Y24459480D01*
X31805904Y24482810D01*
X32034778Y24551911D01*
X32245872Y24664151D01*
X32431144Y24815256D01*
X32583538Y24999469D01*
X32697249Y25209773D01*
X32767947Y25438160D01*
X32792937Y25675928D01*
X32771269Y25914022D01*
X32703767Y26143373D01*
X32593003Y26355245D01*
X32443196Y26541568D01*
X32260052Y26695244D01*
X32050546Y26810421D01*
X31822659Y26882711D01*
X31585071Y26909361D01*
X31567967Y26909480D01*
X31556113Y26909480D01*
X31318176Y26886150D01*
X31089302Y26817049D01*
X30878208Y26704809D01*
X30692936Y26553704D01*
X30540542Y26369491D01*
X30454241Y26209880D01*
X30093594Y26209880D01*
X30073664Y26258234D01*
X29947514Y26448105D01*
X29786887Y26609858D01*
X29597900Y26737331D01*
X29387754Y26825668D01*
X29164452Y26871505D01*
X28936499Y26873097D01*
X28712578Y26830382D01*
X28501219Y26744987D01*
X28310472Y26620165D01*
X28147602Y26460671D01*
X28018813Y26272580D01*
X27929010Y26063055D01*
X27881615Y25840078D01*
X27878432Y25612142D01*
X24903400Y25612142D01*
X24903400Y26888440D01*
X24895509Y26968919D01*
X24888468Y27049397D01*
X24887185Y27053812D01*
X24886736Y27058395D01*
X24863356Y27135835D01*
X24840825Y27213386D01*
X24838709Y27217468D01*
X24837378Y27221877D01*
X24799415Y27293275D01*
X24762237Y27364999D01*
X24759366Y27368595D01*
X24757206Y27372658D01*
X24706123Y27435292D01*
X24655697Y27498459D01*
X24649380Y27504865D01*
X24649274Y27504995D01*
X24649154Y27505094D01*
X24647119Y27507158D01*
X24002135Y28152142D01*
X27878432Y28152142D01*
X27919583Y27927929D01*
X28003500Y27715979D01*
X28126987Y27524364D01*
X28285340Y27360385D01*
X28472528Y27230286D01*
X28681421Y27139023D01*
X28904061Y27090072D01*
X29131970Y27085298D01*
X29356465Y27124883D01*
X29568996Y27207318D01*
X29761467Y27329465D01*
X29926548Y27486669D01*
X30057951Y27672944D01*
X30092205Y27749880D01*
X30428524Y27749880D01*
X30531077Y27553715D01*
X30680884Y27367392D01*
X30864028Y27213716D01*
X31073534Y27098539D01*
X31301421Y27026249D01*
X31539009Y26999599D01*
X31556113Y26999480D01*
X31567967Y26999480D01*
X31805904Y27022810D01*
X32034778Y27091911D01*
X32245872Y27204151D01*
X32431144Y27355256D01*
X32583538Y27539469D01*
X32697249Y27749773D01*
X32767947Y27978160D01*
X32792937Y28215928D01*
X32771269Y28454022D01*
X32703767Y28683373D01*
X32593003Y28895245D01*
X32443196Y29081568D01*
X32260052Y29235244D01*
X32050546Y29350421D01*
X31822659Y29422711D01*
X31585071Y29449361D01*
X31567967Y29449480D01*
X31556113Y29449480D01*
X31318176Y29426150D01*
X31089302Y29357049D01*
X30878208Y29244809D01*
X30692936Y29093704D01*
X30540542Y28909491D01*
X30454241Y28749880D01*
X30093594Y28749880D01*
X30073664Y28798234D01*
X29947514Y28988105D01*
X29786887Y29149858D01*
X29597900Y29277331D01*
X29387754Y29365668D01*
X29164452Y29411505D01*
X28936499Y29413097D01*
X28712578Y29370382D01*
X28501219Y29284987D01*
X28310472Y29160165D01*
X28147602Y29000671D01*
X28018813Y28812580D01*
X27929010Y28603055D01*
X27881615Y28380078D01*
X27878432Y28152142D01*
X24002135Y28152142D01*
X21462135Y30692142D01*
X27878432Y30692142D01*
X27919583Y30467929D01*
X28003500Y30255979D01*
X28126987Y30064364D01*
X28285340Y29900385D01*
X28472528Y29770286D01*
X28681421Y29679023D01*
X28904061Y29630072D01*
X29131970Y29625298D01*
X29356465Y29664883D01*
X29568996Y29747318D01*
X29761467Y29869465D01*
X29926548Y30026669D01*
X30057951Y30212944D01*
X30092205Y30289880D01*
X30428524Y30289880D01*
X30531077Y30093715D01*
X30680884Y29907392D01*
X30864028Y29753716D01*
X31073534Y29638539D01*
X31301421Y29566249D01*
X31539009Y29539599D01*
X31556113Y29539480D01*
X31567967Y29539480D01*
X31805904Y29562810D01*
X32034778Y29631911D01*
X32245872Y29744151D01*
X32431144Y29895256D01*
X32583538Y30079469D01*
X32697249Y30289773D01*
X32767947Y30518160D01*
X32792937Y30755928D01*
X32771269Y30994022D01*
X32703767Y31223373D01*
X32593003Y31435245D01*
X32443196Y31621568D01*
X32260052Y31775244D01*
X32050546Y31890421D01*
X31822659Y31962711D01*
X31585071Y31989361D01*
X31567967Y31989480D01*
X31556113Y31989480D01*
X31318176Y31966150D01*
X31089302Y31897049D01*
X30878208Y31784809D01*
X30692936Y31633704D01*
X30540542Y31449491D01*
X30454241Y31289880D01*
X30093594Y31289880D01*
X30073664Y31338234D01*
X29947514Y31528105D01*
X29786887Y31689858D01*
X29597900Y31817331D01*
X29387754Y31905668D01*
X29164452Y31951505D01*
X28936499Y31953097D01*
X28712578Y31910382D01*
X28501219Y31824987D01*
X28310472Y31700165D01*
X28147602Y31540671D01*
X28018813Y31352580D01*
X27929010Y31143055D01*
X27881615Y30920078D01*
X27878432Y30692142D01*
X21462135Y30692142D01*
X18922135Y33232142D01*
X27878432Y33232142D01*
X27919583Y33007929D01*
X28003500Y32795979D01*
X28126987Y32604364D01*
X28285340Y32440385D01*
X28472528Y32310286D01*
X28681421Y32219023D01*
X28904061Y32170072D01*
X29131970Y32165298D01*
X29356465Y32204883D01*
X29568996Y32287318D01*
X29761467Y32409465D01*
X29926548Y32566669D01*
X30057951Y32752944D01*
X30092205Y32829880D01*
X30428524Y32829880D01*
X30531077Y32633715D01*
X30680884Y32447392D01*
X30864028Y32293716D01*
X31073534Y32178539D01*
X31301421Y32106249D01*
X31539009Y32079599D01*
X31556113Y32079480D01*
X31567967Y32079480D01*
X31805904Y32102810D01*
X32034778Y32171911D01*
X32245872Y32284151D01*
X32431144Y32435256D01*
X32583538Y32619469D01*
X32697249Y32829773D01*
X32767947Y33058160D01*
X32792937Y33295928D01*
X32771269Y33534022D01*
X32703767Y33763373D01*
X32593003Y33975245D01*
X32443196Y34161568D01*
X32260052Y34315244D01*
X32050546Y34430421D01*
X31822659Y34502711D01*
X31585071Y34529361D01*
X31567967Y34529480D01*
X31556113Y34529480D01*
X31318176Y34506150D01*
X31089302Y34437049D01*
X30878208Y34324809D01*
X30692936Y34173704D01*
X30540542Y33989491D01*
X30454241Y33829880D01*
X30093594Y33829880D01*
X30073664Y33878234D01*
X29947514Y34068105D01*
X29786887Y34229858D01*
X29597900Y34357331D01*
X29387754Y34445668D01*
X29164452Y34491505D01*
X28936499Y34493097D01*
X28712578Y34450382D01*
X28501219Y34364987D01*
X28310472Y34240165D01*
X28147602Y34080671D01*
X28018813Y33892580D01*
X27929010Y33683055D01*
X27881615Y33460078D01*
X27878432Y33232142D01*
X18922135Y33232142D01*
X17821880Y34332396D01*
X17821880Y35772142D01*
X27878432Y35772142D01*
X27919583Y35547929D01*
X28003500Y35335979D01*
X28126987Y35144364D01*
X28285340Y34980385D01*
X28472528Y34850286D01*
X28681421Y34759023D01*
X28904061Y34710072D01*
X29131970Y34705298D01*
X29356465Y34744883D01*
X29568996Y34827318D01*
X29761467Y34949465D01*
X29926548Y35106669D01*
X30057951Y35292944D01*
X30092205Y35369880D01*
X30380946Y35369880D01*
X30380946Y35024960D01*
X30385708Y34965243D01*
X30417075Y34863956D01*
X30475417Y34775417D01*
X30556117Y34706638D01*
X30652782Y34663064D01*
X30757760Y34648146D01*
X32457760Y34648146D01*
X32517477Y34652908D01*
X32618764Y34684275D01*
X32707303Y34742617D01*
X32776082Y34823317D01*
X32819656Y34919982D01*
X32834574Y35024960D01*
X32834574Y36724960D01*
X32829812Y36784677D01*
X32798445Y36885964D01*
X32740103Y36974503D01*
X32659403Y37043282D01*
X32562738Y37086856D01*
X32457760Y37101774D01*
X30757760Y37101774D01*
X30698043Y37097012D01*
X30596756Y37065645D01*
X30508217Y37007303D01*
X30439438Y36926603D01*
X30395864Y36829938D01*
X30380946Y36724960D01*
X30380946Y36369880D01*
X30093594Y36369880D01*
X30073664Y36418234D01*
X29947514Y36608105D01*
X29786887Y36769858D01*
X29597900Y36897331D01*
X29387754Y36985668D01*
X29164452Y37031505D01*
X28936499Y37033097D01*
X28712578Y36990382D01*
X28501219Y36904987D01*
X28310472Y36780165D01*
X28147602Y36620671D01*
X28018813Y36432580D01*
X27929010Y36223055D01*
X27881615Y36000078D01*
X27878432Y35772142D01*
X17821880Y35772142D01*
X17821880Y38453740D01*
X25213008Y38453740D01*
X25268571Y38199226D01*
X25505840Y38060615D01*
X25765592Y37970956D01*
X26037846Y37933694D01*
X26312137Y37950263D01*
X26577925Y38020025D01*
X26824996Y38140299D01*
X26913189Y38199226D01*
X26937839Y38312142D01*
X27878432Y38312142D01*
X27919583Y38087929D01*
X28003500Y37875979D01*
X28126987Y37684364D01*
X28285340Y37520385D01*
X28472528Y37390286D01*
X28681421Y37299023D01*
X28904061Y37250072D01*
X29131970Y37245298D01*
X29356465Y37284883D01*
X29568996Y37367318D01*
X29761467Y37489465D01*
X29926548Y37646669D01*
X30057951Y37832944D01*
X30092205Y37909880D01*
X30490179Y37909880D01*
X30576797Y37744195D01*
X30726604Y37557872D01*
X30909748Y37404196D01*
X31119254Y37289019D01*
X31347141Y37216729D01*
X31584729Y37190079D01*
X31601833Y37189960D01*
X31613687Y37189960D01*
X31851624Y37213290D01*
X32080498Y37282391D01*
X32291592Y37394631D01*
X32476864Y37545736D01*
X32629258Y37729949D01*
X32742969Y37940253D01*
X32813667Y38168640D01*
X32838657Y38406408D01*
X32816989Y38644502D01*
X32749487Y38873853D01*
X32638723Y39085725D01*
X32488916Y39272048D01*
X32305772Y39425724D01*
X32096266Y39540901D01*
X31868379Y39613191D01*
X31630791Y39639841D01*
X31613687Y39639960D01*
X31601833Y39639960D01*
X31363896Y39616630D01*
X31135022Y39547529D01*
X30923928Y39435289D01*
X30738656Y39284184D01*
X30586262Y39099971D01*
X30483480Y38909880D01*
X30093594Y38909880D01*
X30073664Y38958234D01*
X29947514Y39148105D01*
X29786887Y39309858D01*
X29597900Y39437331D01*
X29387754Y39525668D01*
X29164452Y39571505D01*
X28936499Y39573097D01*
X28712578Y39530382D01*
X28501219Y39444987D01*
X28310472Y39320165D01*
X28147602Y39160671D01*
X28018813Y38972580D01*
X27929010Y38763055D01*
X27881615Y38540078D01*
X27878432Y38312142D01*
X26937839Y38312142D01*
X26968752Y38453740D01*
X26090880Y39331612D01*
X25213008Y38453740D01*
X17821880Y38453740D01*
X17821880Y38602269D01*
X17940279Y38770111D01*
X18030972Y38973811D01*
X18080372Y39191247D01*
X18080928Y39231052D01*
X18237350Y39387474D01*
X24690134Y39387474D01*
X24706703Y39113183D01*
X24776465Y38847395D01*
X24896739Y38600324D01*
X24955666Y38512131D01*
X25210180Y38456568D01*
X26088052Y39334440D01*
X26093708Y39334440D01*
X26971580Y38456568D01*
X27226094Y38512131D01*
X27364705Y38749400D01*
X27454364Y39009152D01*
X27491626Y39281406D01*
X27475057Y39555697D01*
X27405295Y39821485D01*
X27285021Y40068556D01*
X27226094Y40156749D01*
X26971580Y40212312D01*
X26093708Y39334440D01*
X26088052Y39334440D01*
X25210180Y40212312D01*
X24955666Y40156749D01*
X24817055Y39919480D01*
X24727396Y39659728D01*
X24690134Y39387474D01*
X18237350Y39387474D01*
X19065016Y40215140D01*
X25213008Y40215140D01*
X26090880Y39337268D01*
X26968752Y40215140D01*
X26913189Y40469654D01*
X26675920Y40608265D01*
X26416168Y40697924D01*
X26143914Y40735186D01*
X25869623Y40718617D01*
X25603835Y40648855D01*
X25356764Y40528581D01*
X25268571Y40469654D01*
X25213008Y40215140D01*
X19065016Y40215140D01*
X20301437Y41451560D01*
X27992660Y41451560D01*
X27929010Y41303055D01*
X27881615Y41080078D01*
X27878432Y40852142D01*
X27919583Y40627929D01*
X28003500Y40415979D01*
X28126987Y40224364D01*
X28285340Y40060385D01*
X28472528Y39930286D01*
X28681421Y39839023D01*
X28904061Y39790072D01*
X29131970Y39785298D01*
X29356465Y39824883D01*
X29568996Y39907318D01*
X29761467Y40029465D01*
X29926548Y40186669D01*
X30057951Y40372944D01*
X30092205Y40449880D01*
X30490179Y40449880D01*
X30576797Y40284195D01*
X30726604Y40097872D01*
X30909748Y39944196D01*
X31119254Y39829019D01*
X31347141Y39756729D01*
X31584729Y39730079D01*
X31601833Y39729960D01*
X31613687Y39729960D01*
X31851624Y39753290D01*
X32080498Y39822391D01*
X32291592Y39934631D01*
X32476864Y40085736D01*
X32629258Y40269949D01*
X32742969Y40480253D01*
X32813667Y40708640D01*
X32838657Y40946408D01*
X32816989Y41184502D01*
X32749487Y41413853D01*
X32638723Y41625725D01*
X32584997Y41692547D01*
X33242280Y41035263D01*
X33242280Y34166577D01*
X33095782Y33989491D01*
X32982071Y33779187D01*
X32911373Y33550800D01*
X32886383Y33313032D01*
X32908051Y33074938D01*
X32975553Y32845587D01*
X33086317Y32633715D01*
X33236124Y32447392D01*
X33242280Y32442227D01*
X33242280Y31626577D01*
X33095782Y31449491D01*
X32982071Y31239187D01*
X32911373Y31010800D01*
X32886383Y30773032D01*
X32908051Y30534938D01*
X32975553Y30305587D01*
X33086317Y30093715D01*
X33236124Y29907392D01*
X33242280Y29902227D01*
X33242280Y29086577D01*
X33095782Y28909491D01*
X32982071Y28699187D01*
X32911373Y28470800D01*
X32886383Y28233032D01*
X32908051Y27994938D01*
X32975553Y27765587D01*
X33086317Y27553715D01*
X33236124Y27367392D01*
X33242280Y27362227D01*
X33242280Y26546577D01*
X33095782Y26369491D01*
X32982071Y26159187D01*
X32911373Y25930800D01*
X32886383Y25693032D01*
X32908051Y25454938D01*
X32975553Y25225587D01*
X33086317Y25013715D01*
X33236124Y24827392D01*
X33242280Y24822227D01*
X33242280Y24006577D01*
X33095782Y23829491D01*
X32982071Y23619187D01*
X32911373Y23390800D01*
X32886383Y23153032D01*
X32908051Y22914938D01*
X32975553Y22685587D01*
X33086317Y22473715D01*
X33236124Y22287392D01*
X33242280Y22282227D01*
X33242280Y21829300D01*
X33207563Y21826532D01*
X33106276Y21795165D01*
X33017737Y21736823D01*
X32948958Y21656123D01*
X32905384Y21559458D01*
X32890466Y21454480D01*
X32890466Y19754480D01*
X32895228Y19694763D01*
X32926595Y19593476D01*
X32984937Y19504937D01*
X33065637Y19436158D01*
X33162302Y19392584D01*
X33242280Y19381219D01*
X33242280Y15526237D01*
X33062857Y15346814D01*
X31923480Y15346814D01*
X31863763Y15342052D01*
X31762476Y15310685D01*
X31673937Y15252343D01*
X31605158Y15171643D01*
X31561584Y15074978D01*
X31546666Y14970000D01*
X31546666Y12970000D01*
X31551428Y12910283D01*
X31582795Y12808996D01*
X31641137Y12720457D01*
X31721837Y12651678D01*
X31818502Y12608104D01*
X31923480Y12593186D01*
X33923480Y12593186D01*
X33983197Y12597948D01*
X34084484Y12629315D01*
X34173023Y12687657D01*
X34241802Y12768357D01*
X34285376Y12865022D01*
X34293216Y12920194D01*
X36876502Y12920194D01*
X36960601Y12641308D01*
X37238318Y12478990D01*
X37542364Y12373972D01*
X37861057Y12330287D01*
X38182149Y12349615D01*
X38493300Y12431213D01*
X38782553Y12571947D01*
X38886359Y12641308D01*
X38970458Y12920194D01*
X37923480Y13967172D01*
X36876502Y12920194D01*
X34293216Y12920194D01*
X34300294Y12970000D01*
X34300294Y14032423D01*
X36283767Y14032423D01*
X36303095Y13711331D01*
X36384693Y13400180D01*
X36525427Y13110927D01*
X36594788Y13007121D01*
X36873674Y12923022D01*
X37920652Y13970000D01*
X37926308Y13970000D01*
X38973286Y12923022D01*
X39252172Y13007121D01*
X39414490Y13284838D01*
X39519508Y13588884D01*
X39563193Y13907577D01*
X39543865Y14228669D01*
X39462267Y14539820D01*
X39321533Y14829073D01*
X39252172Y14932879D01*
X38973286Y15016978D01*
X37926308Y13970000D01*
X37920652Y13970000D01*
X36873674Y15016978D01*
X36594788Y14932879D01*
X36432470Y14655162D01*
X36327452Y14351116D01*
X36283767Y14032423D01*
X34300294Y14032423D01*
X34300294Y14109377D01*
X34735998Y14545081D01*
X34787311Y14607550D01*
X34839254Y14669454D01*
X34841470Y14673485D01*
X34844391Y14677041D01*
X34882595Y14748292D01*
X34921523Y14819101D01*
X34922914Y14823485D01*
X34925089Y14827542D01*
X34948722Y14904841D01*
X34973159Y14981877D01*
X34973672Y14986451D01*
X34975017Y14990850D01*
X34977958Y15019806D01*
X36876502Y15019806D01*
X37923480Y13972828D01*
X38970458Y15019806D01*
X38886359Y15298692D01*
X38608642Y15461010D01*
X38304596Y15566028D01*
X37985903Y15609713D01*
X37664811Y15590385D01*
X37353660Y15508787D01*
X37064407Y15368053D01*
X36960601Y15298692D01*
X36876502Y15019806D01*
X34977958Y15019806D01*
X34983179Y15071206D01*
X34992195Y15151583D01*
X34992258Y15160585D01*
X34992274Y15160746D01*
X34992260Y15160896D01*
X34992280Y15163800D01*
X34992280Y19379660D01*
X35026997Y19382428D01*
X35128284Y19413795D01*
X35216823Y19472137D01*
X35254899Y19516812D01*
X35286963Y19439402D01*
X35356237Y19335726D01*
X35444406Y19247557D01*
X35548082Y19178283D01*
X35663281Y19130566D01*
X35785575Y19106240D01*
X36537670Y19106240D01*
X36695920Y19264490D01*
X36695920Y20587240D01*
X36699920Y20587240D01*
X36699920Y19264490D01*
X36858170Y19106240D01*
X37610265Y19106240D01*
X37732559Y19130566D01*
X37847758Y19178283D01*
X37951434Y19247557D01*
X38039603Y19335726D01*
X38108877Y19439402D01*
X38156594Y19554601D01*
X38180920Y19676895D01*
X38180920Y20428990D01*
X38022670Y20587240D01*
X36699920Y20587240D01*
X36695920Y20587240D01*
X36675920Y20587240D01*
X36675920Y20591240D01*
X36695920Y20591240D01*
X36695920Y23127240D01*
X36699920Y23127240D01*
X36699920Y20591240D01*
X38022670Y20591240D01*
X38180920Y20749490D01*
X38180920Y21501585D01*
X38156594Y21623879D01*
X38108877Y21739078D01*
X38039603Y21842754D01*
X37951434Y21930923D01*
X37847758Y22000197D01*
X37732559Y22047914D01*
X37714781Y22051450D01*
X37898867Y22259173D01*
X38045533Y22510184D01*
X38140411Y22784985D01*
X38162348Y22895272D01*
X38022668Y23127240D01*
X36699920Y23127240D01*
X36695920Y23127240D01*
X36675920Y23127240D01*
X36675920Y23131240D01*
X36695920Y23131240D01*
X36695920Y25667240D01*
X36699920Y25667240D01*
X36699920Y23131240D01*
X38022668Y23131240D01*
X38162348Y23363208D01*
X38140411Y23473495D01*
X38045533Y23748296D01*
X37898867Y23999307D01*
X37706050Y24216882D01*
X37474491Y24392660D01*
X37460971Y24399240D01*
X37474491Y24405820D01*
X37706050Y24581598D01*
X37898867Y24799173D01*
X38045533Y25050184D01*
X38140411Y25324985D01*
X38162348Y25435272D01*
X38022668Y25667240D01*
X36699920Y25667240D01*
X36695920Y25667240D01*
X36675920Y25667240D01*
X36675920Y25671240D01*
X36695920Y25671240D01*
X36695920Y28207240D01*
X36699920Y28207240D01*
X36699920Y25671240D01*
X38022668Y25671240D01*
X38162348Y25903208D01*
X38140411Y26013495D01*
X38045533Y26288296D01*
X37898867Y26539307D01*
X37706050Y26756882D01*
X37474491Y26932660D01*
X37460971Y26939240D01*
X37474491Y26945820D01*
X37706050Y27121598D01*
X37898867Y27339173D01*
X38045533Y27590184D01*
X38140411Y27864985D01*
X38162348Y27975272D01*
X38022668Y28207240D01*
X36699920Y28207240D01*
X36695920Y28207240D01*
X36675920Y28207240D01*
X36675920Y28211240D01*
X36695920Y28211240D01*
X36695920Y30747240D01*
X36699920Y30747240D01*
X36699920Y28211240D01*
X38022668Y28211240D01*
X38162348Y28443208D01*
X38140411Y28553495D01*
X38045533Y28828296D01*
X37898867Y29079307D01*
X37706050Y29296882D01*
X37474491Y29472660D01*
X37460971Y29479240D01*
X37474491Y29485820D01*
X37706050Y29661598D01*
X37898867Y29879173D01*
X38045533Y30130184D01*
X38140411Y30404985D01*
X38162348Y30515272D01*
X38022668Y30747240D01*
X36699920Y30747240D01*
X36695920Y30747240D01*
X36675920Y30747240D01*
X36675920Y30751240D01*
X36695920Y30751240D01*
X36695920Y33287240D01*
X36699920Y33287240D01*
X36699920Y30751240D01*
X38022668Y30751240D01*
X38162348Y30983208D01*
X38140411Y31093495D01*
X38045533Y31368296D01*
X37898867Y31619307D01*
X37706050Y31836882D01*
X37474491Y32012660D01*
X37460971Y32019240D01*
X37474491Y32025820D01*
X37706050Y32201598D01*
X37898867Y32419173D01*
X38045533Y32670184D01*
X38140411Y32944985D01*
X38162348Y33055272D01*
X38022668Y33287240D01*
X36699920Y33287240D01*
X36695920Y33287240D01*
X36675920Y33287240D01*
X36675920Y33291240D01*
X36695920Y33291240D01*
X36695920Y34613989D01*
X36699920Y34613989D01*
X36699920Y33291240D01*
X38022668Y33291240D01*
X38162348Y33523208D01*
X38140411Y33633495D01*
X38045533Y33908296D01*
X37898867Y34159307D01*
X37706050Y34376882D01*
X37474491Y34552660D01*
X37213088Y34679885D01*
X36931888Y34753668D01*
X36699920Y34613989D01*
X36695920Y34613989D01*
X36463952Y34753668D01*
X36182752Y34679885D01*
X35921349Y34552660D01*
X35689790Y34376882D01*
X35496973Y34159307D01*
X35350307Y33908296D01*
X35277996Y33698856D01*
X35259007Y33763373D01*
X35148243Y33975245D01*
X34998436Y34161568D01*
X34992280Y34166733D01*
X34992280Y41397700D01*
X34984389Y41478179D01*
X34977348Y41558657D01*
X34976065Y41563072D01*
X34975616Y41567655D01*
X34952240Y41645081D01*
X34929705Y41722647D01*
X34927589Y41726730D01*
X34926258Y41731137D01*
X34888304Y41802517D01*
X34851117Y41874259D01*
X34848246Y41877855D01*
X34846086Y41881918D01*
X34795003Y41944552D01*
X34744577Y42007719D01*
X34738260Y42014125D01*
X34738154Y42014255D01*
X34738034Y42014354D01*
X34735999Y42016418D01*
X33905160Y42847256D01*
X33905160Y43105214D01*
X34106289Y43183227D01*
X34499586Y43432821D01*
X34836913Y43754053D01*
X35105421Y44134688D01*
X35294883Y44560227D01*
X35398083Y45014462D01*
X35405512Y45546505D01*
X35315036Y46003445D01*
X35137529Y46434108D01*
X35076305Y46526258D01*
X35130170Y46461146D01*
X35131563Y46459763D01*
X35135318Y46454058D01*
X35139081Y46449470D01*
X35607634Y45886197D01*
X35635020Y45859148D01*
X35662065Y45831680D01*
X35666648Y45827910D01*
X36235684Y45366374D01*
X36267766Y45345184D01*
X36299667Y45323467D01*
X36304895Y45320660D01*
X36952740Y44978441D01*
X36988344Y44963879D01*
X37023838Y44948779D01*
X37029512Y44947040D01*
X37237101Y44884978D01*
X36923383Y44758227D01*
X36336732Y44374334D01*
X35835820Y43883805D01*
X35439725Y43305323D01*
X35163535Y42660923D01*
X35017769Y41975150D01*
X35007981Y41274124D01*
X35134542Y40584548D01*
X35392631Y39932688D01*
X35772420Y39343372D01*
X36259440Y38839047D01*
X36835143Y38438924D01*
X37477599Y38158242D01*
X38162338Y38007692D01*
X38863278Y37993009D01*
X39553720Y38114753D01*
X40207366Y38368286D01*
X40799319Y38743951D01*
X41307032Y39227438D01*
X41654533Y39720052D01*
X41686358Y8367667D01*
X41396912Y8803318D01*
X40902897Y9300793D01*
X40321664Y9692840D01*
X39675351Y9964525D01*
X38988577Y10105499D01*
X38287501Y10110394D01*
X37598825Y9979022D01*
X36948783Y9716387D01*
X36362132Y9332494D01*
X35861220Y8841965D01*
X35465125Y8263483D01*
X35188935Y7619083D01*
X35043169Y6933310D01*
X35033381Y6232284D01*
X35159942Y5542708D01*
X35418031Y4890848D01*
X35797820Y4301532D01*
X36284840Y3797207D01*
X36860543Y3397084D01*
X37267186Y3219426D01*
X36997253Y3133782D01*
X36961862Y3118611D01*
X36926236Y3103925D01*
X36921016Y3101102D01*
X36288660Y2753414D01*
X36256872Y2731646D01*
X36224796Y2710332D01*
X36220229Y2706552D01*
X36220223Y2706548D01*
X36220218Y2706543D01*
X35667443Y2242658D01*
X35640507Y2215149D01*
X35613162Y2187991D01*
X35609412Y2183392D01*
X35157263Y1620967D01*
X35155769Y1618683D01*
X34798150Y1210305D01*
X34383401Y891006D01*
X33914533Y658346D01*
X33406497Y520399D01*
X32935088Y480850D01*
X9288936Y456258D01*
X8629288Y520936D01*
X8007130Y708777D01*
X7433310Y1013883D01*
X6929668Y1424643D01*
X6516091Y1924520D01*
X6514507Y1926907D01*
X6513744Y1928038D01*
X6502322Y1941861D01*
X6492497Y1956874D01*
X6488746Y1961472D01*
X6299421Y2190327D01*
X13735600Y2190327D01*
X13735600Y2178473D01*
X13758930Y1940536D01*
X13828031Y1711662D01*
X13940271Y1500568D01*
X14091376Y1315296D01*
X14275589Y1162902D01*
X14485893Y1049191D01*
X14714280Y978493D01*
X14952048Y953503D01*
X15190142Y975171D01*
X15419493Y1042673D01*
X15631365Y1153437D01*
X15817688Y1303244D01*
X15971364Y1486388D01*
X16086541Y1695894D01*
X16158831Y1923781D01*
X16185481Y2161369D01*
X16185600Y2178473D01*
X16185600Y2190327D01*
X16275600Y2190327D01*
X16275600Y2178473D01*
X16298930Y1940536D01*
X16368031Y1711662D01*
X16480271Y1500568D01*
X16631376Y1315296D01*
X16815589Y1162902D01*
X17025893Y1049191D01*
X17254280Y978493D01*
X17492048Y953503D01*
X17730142Y975171D01*
X17959493Y1042673D01*
X18171365Y1153437D01*
X18357688Y1303244D01*
X18511364Y1486388D01*
X18626541Y1695894D01*
X18698831Y1923781D01*
X18725481Y2161369D01*
X18725600Y2178473D01*
X18725600Y2190327D01*
X18815600Y2190327D01*
X18815600Y2178473D01*
X18838930Y1940536D01*
X18908031Y1711662D01*
X19020271Y1500568D01*
X19171376Y1315296D01*
X19355589Y1162902D01*
X19565893Y1049191D01*
X19794280Y978493D01*
X20032048Y953503D01*
X20270142Y975171D01*
X20499493Y1042673D01*
X20711365Y1153437D01*
X20897688Y1303244D01*
X21051364Y1486388D01*
X21166541Y1695894D01*
X21175527Y1724221D01*
X21189955Y1669232D01*
X21317180Y1407829D01*
X21492958Y1176270D01*
X21710533Y983453D01*
X21961544Y836787D01*
X22236345Y741909D01*
X22346632Y719972D01*
X22578600Y859652D01*
X22578600Y2182400D01*
X22558600Y2182400D01*
X22558600Y2186400D01*
X22578600Y2186400D01*
X22578600Y3509148D01*
X22582600Y3509148D01*
X22582600Y2186400D01*
X22602600Y2186400D01*
X22602600Y2182400D01*
X22582600Y2182400D01*
X22582600Y859652D01*
X22814568Y719972D01*
X22924855Y741909D01*
X23199656Y836787D01*
X23450667Y983453D01*
X23668242Y1176270D01*
X23844020Y1407829D01*
X23971245Y1669232D01*
X23985007Y1721680D01*
X23988031Y1711662D01*
X24100271Y1500568D01*
X24251376Y1315296D01*
X24435589Y1162902D01*
X24645893Y1049191D01*
X24874280Y978493D01*
X25112048Y953503D01*
X25350142Y975171D01*
X25579493Y1042673D01*
X25791365Y1153437D01*
X25977688Y1303244D01*
X26131364Y1486388D01*
X26246541Y1695894D01*
X26318831Y1923781D01*
X26345481Y2161369D01*
X26345600Y2178473D01*
X26345600Y2190327D01*
X26322270Y2428264D01*
X26253169Y2657138D01*
X26140929Y2868232D01*
X26005405Y3034400D01*
X26433786Y3034400D01*
X26433786Y1334400D01*
X26438548Y1274683D01*
X26469915Y1173396D01*
X26528257Y1084857D01*
X26608957Y1016078D01*
X26705622Y972504D01*
X26810600Y957586D01*
X28510600Y957586D01*
X28570317Y962348D01*
X28671604Y993715D01*
X28760143Y1052057D01*
X28828922Y1132757D01*
X28872496Y1229422D01*
X28887414Y1334400D01*
X28887414Y3034400D01*
X28882652Y3094117D01*
X28851285Y3195404D01*
X28792943Y3283943D01*
X28712243Y3352722D01*
X28615578Y3396296D01*
X28510600Y3411214D01*
X26810600Y3411214D01*
X26750883Y3406452D01*
X26649596Y3375085D01*
X26561057Y3316743D01*
X26492278Y3236043D01*
X26448704Y3139378D01*
X26433786Y3034400D01*
X26005405Y3034400D01*
X25989824Y3053504D01*
X25805611Y3205898D01*
X25595307Y3319609D01*
X25366920Y3390307D01*
X25129152Y3415297D01*
X24891058Y3393629D01*
X24661707Y3326127D01*
X24449835Y3215363D01*
X24263512Y3065556D01*
X24109836Y2882412D01*
X23994659Y2672906D01*
X23985673Y2644579D01*
X23971245Y2699568D01*
X23844020Y2960971D01*
X23668242Y3192530D01*
X23450667Y3385347D01*
X23199656Y3532013D01*
X22924855Y3626891D01*
X22814568Y3648828D01*
X22582600Y3509148D01*
X22578600Y3509148D01*
X22346632Y3648828D01*
X22236345Y3626891D01*
X21961544Y3532013D01*
X21710533Y3385347D01*
X21492958Y3192530D01*
X21317180Y2960971D01*
X21189955Y2699568D01*
X21176193Y2647120D01*
X21173169Y2657138D01*
X21060929Y2868232D01*
X20909824Y3053504D01*
X20725611Y3205898D01*
X20515307Y3319609D01*
X20286920Y3390307D01*
X20049152Y3415297D01*
X19811058Y3393629D01*
X19581707Y3326127D01*
X19369835Y3215363D01*
X19183512Y3065556D01*
X19029836Y2882412D01*
X18914659Y2672906D01*
X18842369Y2445019D01*
X18815719Y2207431D01*
X18815600Y2190327D01*
X18725600Y2190327D01*
X18702270Y2428264D01*
X18644132Y2620826D01*
X20913187Y4889880D01*
X27990078Y4889880D01*
X28003500Y4855979D01*
X28126987Y4664364D01*
X28285340Y4500385D01*
X28472528Y4370286D01*
X28681421Y4279023D01*
X28904061Y4230072D01*
X29131970Y4225298D01*
X29356465Y4264883D01*
X29568996Y4347318D01*
X29761467Y4469465D01*
X29926548Y4626669D01*
X30057951Y4812944D01*
X30150670Y5021194D01*
X30201174Y5243488D01*
X30204809Y5503859D01*
X30160532Y5727476D01*
X30073664Y5938234D01*
X29947514Y6128105D01*
X29786887Y6289858D01*
X29597900Y6417331D01*
X29387754Y6505668D01*
X29164452Y6551505D01*
X28936499Y6553097D01*
X28712578Y6510382D01*
X28501219Y6424987D01*
X28310472Y6300165D01*
X28147602Y6140671D01*
X28018813Y5952580D01*
X27991940Y5889880D01*
X20706080Y5889880D01*
X20660091Y5885371D01*
X20614104Y5881348D01*
X20611579Y5880615D01*
X20608963Y5880358D01*
X20564757Y5867011D01*
X20520396Y5854123D01*
X20518061Y5852913D01*
X20515545Y5852153D01*
X20474755Y5830465D01*
X20433760Y5809215D01*
X20431707Y5807576D01*
X20429384Y5806341D01*
X20393592Y5777150D01*
X20357497Y5748335D01*
X20353834Y5744723D01*
X20353763Y5744665D01*
X20353708Y5744599D01*
X20352526Y5743433D01*
X17939719Y3330625D01*
X17746920Y3390307D01*
X17509152Y3415297D01*
X17271058Y3393629D01*
X17041707Y3326127D01*
X16829835Y3215363D01*
X16643512Y3065556D01*
X16489836Y2882412D01*
X16374659Y2672906D01*
X16302369Y2445019D01*
X16275719Y2207431D01*
X16275600Y2190327D01*
X16185600Y2190327D01*
X16162270Y2428264D01*
X16093169Y2657138D01*
X15980929Y2868232D01*
X15829824Y3053504D01*
X15645611Y3205898D01*
X15435307Y3319609D01*
X15206920Y3390307D01*
X14969152Y3415297D01*
X14731058Y3393629D01*
X14501707Y3326127D01*
X14289835Y3215363D01*
X14103512Y3065556D01*
X13949836Y2882412D01*
X13834659Y2672906D01*
X13762369Y2445019D01*
X13735719Y2207431D01*
X13735600Y2190327D01*
X6299421Y2190327D01*
X6101981Y2428991D01*
X6074655Y2456127D01*
X6047698Y2483655D01*
X6043125Y2487438D01*
X5572917Y2870930D01*
X5540862Y2892227D01*
X5509051Y2914009D01*
X5503831Y2916831D01*
X4968092Y3201689D01*
X4932505Y3216357D01*
X4899998Y3230289D01*
X5226486Y3356926D01*
X5818439Y3732591D01*
X6326152Y4216078D01*
X6730285Y4788974D01*
X6954309Y5292142D01*
X12638432Y5292142D01*
X12679583Y5067929D01*
X12763500Y4855979D01*
X12886987Y4664364D01*
X13045340Y4500385D01*
X13232528Y4370286D01*
X13441421Y4279023D01*
X13664061Y4230072D01*
X13891970Y4225298D01*
X14116465Y4264883D01*
X14328996Y4347318D01*
X14521467Y4469465D01*
X14686548Y4626669D01*
X14817951Y4812944D01*
X14910670Y5021194D01*
X14961174Y5243488D01*
X14964809Y5503859D01*
X14920532Y5727476D01*
X14833664Y5938234D01*
X14707514Y6128105D01*
X14546887Y6289858D01*
X14357900Y6417331D01*
X14147754Y6505668D01*
X14048642Y6526013D01*
X14298240Y6591518D01*
X14549814Y6713975D01*
X14639671Y6774017D01*
X14698279Y7031132D01*
X13802360Y7927052D01*
X12906441Y7031132D01*
X12965049Y6774017D01*
X13206635Y6632875D01*
X13471115Y6541577D01*
X13567175Y6528427D01*
X13472578Y6510382D01*
X13261219Y6424987D01*
X13070472Y6300165D01*
X12907602Y6140671D01*
X12778813Y5952580D01*
X12689010Y5743055D01*
X12641615Y5520078D01*
X12638432Y5292142D01*
X6954309Y5292142D01*
X7015445Y5429455D01*
X7170772Y6113126D01*
X7181953Y6913907D01*
X7045777Y7601648D01*
X6888218Y7983916D01*
X12376110Y7983916D01*
X12392973Y7704630D01*
X12463998Y7434000D01*
X12586455Y7182426D01*
X12646497Y7092569D01*
X12903612Y7033961D01*
X13799532Y7929880D01*
X13805188Y7929880D01*
X14701108Y7033961D01*
X14958223Y7092569D01*
X15099365Y7334155D01*
X15190663Y7598635D01*
X15228610Y7875844D01*
X15211747Y8155130D01*
X15140722Y8425760D01*
X15018265Y8677334D01*
X14958223Y8767191D01*
X14701108Y8825799D01*
X13805188Y7929880D01*
X13799532Y7929880D01*
X12903612Y8825799D01*
X12646497Y8767191D01*
X12505355Y8525605D01*
X12414057Y8261125D01*
X12376110Y7983916D01*
X6888218Y7983916D01*
X6778611Y8249842D01*
X6390632Y8833798D01*
X5896617Y9331273D01*
X5315384Y9723320D01*
X4669071Y9995005D01*
X3982297Y10135979D01*
X3281221Y10140874D01*
X2592545Y10009502D01*
X1942503Y9746867D01*
X1355852Y9362974D01*
X854940Y8872445D01*
X540492Y8413206D01*
X539074Y10372142D01*
X12638432Y10372142D01*
X12679583Y10147929D01*
X12763500Y9935979D01*
X12886987Y9744364D01*
X13045340Y9580385D01*
X13232528Y9450286D01*
X13441421Y9359023D01*
X13556216Y9333783D01*
X13306480Y9268242D01*
X13054906Y9145785D01*
X12965049Y9085743D01*
X12906441Y8828628D01*
X13802360Y7932708D01*
X14698279Y8828628D01*
X14639671Y9085743D01*
X14398085Y9226885D01*
X14133605Y9318183D01*
X14063937Y9327720D01*
X16533666Y9327720D01*
X16533666Y7527720D01*
X16538428Y7468003D01*
X16569795Y7366716D01*
X16628137Y7278177D01*
X16708837Y7209398D01*
X16805502Y7165824D01*
X16910480Y7150906D01*
X18710480Y7150906D01*
X18770197Y7155668D01*
X18871484Y7187035D01*
X18960023Y7245377D01*
X19028802Y7326077D01*
X19072376Y7422742D01*
X19087294Y7527720D01*
X19087294Y8436621D01*
X24149342Y8436621D01*
X24171895Y8188809D01*
X24242152Y7950097D01*
X24357437Y7729577D01*
X24513358Y7535649D01*
X24703978Y7375700D01*
X24922035Y7255822D01*
X25159224Y7180582D01*
X25406509Y7152844D01*
X25424311Y7152720D01*
X25436649Y7152720D01*
X25684298Y7177002D01*
X25922514Y7248924D01*
X26142223Y7365745D01*
X26335058Y7523017D01*
X26493672Y7714749D01*
X26608825Y7927720D01*
X27879767Y7927720D01*
X27878432Y7832142D01*
X27919583Y7607929D01*
X28003500Y7395979D01*
X28126987Y7204364D01*
X28285340Y7040385D01*
X28472528Y6910286D01*
X28681421Y6819023D01*
X28904061Y6770072D01*
X29131970Y6765298D01*
X29356465Y6804883D01*
X29568996Y6887318D01*
X29761467Y7009465D01*
X29926548Y7166669D01*
X30057951Y7352944D01*
X30150670Y7561194D01*
X30201174Y7783488D01*
X30204809Y8043859D01*
X30160532Y8267476D01*
X30073664Y8478234D01*
X29947514Y8668105D01*
X29786887Y8829858D01*
X29597900Y8957331D01*
X29387754Y9045668D01*
X29164452Y9091505D01*
X28936499Y9093097D01*
X28712578Y9050382D01*
X28501219Y8964987D01*
X28444269Y8927720D01*
X26607110Y8927720D01*
X26503523Y9125863D01*
X26347602Y9319791D01*
X26156982Y9479740D01*
X25938925Y9599618D01*
X25701736Y9674858D01*
X25454451Y9702596D01*
X25436649Y9702720D01*
X25424311Y9702720D01*
X25176662Y9678438D01*
X24938446Y9606516D01*
X24718737Y9489695D01*
X24525902Y9332423D01*
X24367288Y9140691D01*
X24248935Y8921802D01*
X24175353Y8684094D01*
X24149342Y8436621D01*
X19087294Y8436621D01*
X19087294Y9327720D01*
X19082532Y9387437D01*
X19051165Y9488724D01*
X18992823Y9577263D01*
X18912123Y9646042D01*
X18815458Y9689616D01*
X18710480Y9704534D01*
X16910480Y9704534D01*
X16850763Y9699772D01*
X16749476Y9668405D01*
X16660937Y9610063D01*
X16592158Y9529363D01*
X16548584Y9432698D01*
X16533666Y9327720D01*
X14063937Y9327720D01*
X14038712Y9331173D01*
X14116465Y9344883D01*
X14328996Y9427318D01*
X14521467Y9549465D01*
X14686548Y9706669D01*
X14817951Y9892944D01*
X14910670Y10101194D01*
X14961174Y10323488D01*
X14961853Y10372142D01*
X27878432Y10372142D01*
X27919583Y10147929D01*
X28003500Y9935979D01*
X28126987Y9744364D01*
X28285340Y9580385D01*
X28472528Y9450286D01*
X28681421Y9359023D01*
X28904061Y9310072D01*
X29131970Y9305298D01*
X29356465Y9344883D01*
X29568996Y9427318D01*
X29761467Y9549465D01*
X29926548Y9706669D01*
X30057951Y9892944D01*
X30150670Y10101194D01*
X30201174Y10323488D01*
X30204809Y10583859D01*
X30160532Y10807476D01*
X30073664Y11018234D01*
X29947514Y11208105D01*
X29786887Y11369858D01*
X29597900Y11497331D01*
X29387754Y11585668D01*
X29288642Y11606013D01*
X29538240Y11671518D01*
X29789814Y11793975D01*
X29879671Y11854017D01*
X29938279Y12111132D01*
X29042360Y13007052D01*
X28146441Y12111132D01*
X28205049Y11854017D01*
X28446635Y11712875D01*
X28711115Y11621577D01*
X28807175Y11608427D01*
X28712578Y11590382D01*
X28501219Y11504987D01*
X28310472Y11380165D01*
X28147602Y11220671D01*
X28018813Y11032580D01*
X27929010Y10823055D01*
X27881615Y10600078D01*
X27878432Y10372142D01*
X14961853Y10372142D01*
X14964809Y10583859D01*
X14920532Y10807476D01*
X14833664Y11018234D01*
X14707514Y11208105D01*
X14546887Y11369858D01*
X14357900Y11497331D01*
X14147754Y11585668D01*
X13924452Y11631505D01*
X13696499Y11633097D01*
X13472578Y11590382D01*
X13261219Y11504987D01*
X13070472Y11380165D01*
X12907602Y11220671D01*
X12778813Y11032580D01*
X12689010Y10823055D01*
X12641615Y10600078D01*
X12638432Y10372142D01*
X539074Y10372142D01*
X537081Y13123260D01*
X5246848Y13123260D01*
X5306967Y12864854D01*
X5550695Y12722457D01*
X5817519Y12630346D01*
X6097187Y12592059D01*
X6378950Y12609069D01*
X6651981Y12680720D01*
X6905788Y12804261D01*
X6996473Y12864854D01*
X7056592Y13123260D01*
X6151720Y14028132D01*
X5246848Y13123260D01*
X537081Y13123260D01*
X536383Y14085493D01*
X4712819Y14085493D01*
X4729829Y13803730D01*
X4801480Y13530699D01*
X4925021Y13276892D01*
X4985614Y13186207D01*
X5244020Y13126088D01*
X6148892Y14030960D01*
X6154548Y14030960D01*
X7059420Y13126088D01*
X7317826Y13186207D01*
X7460223Y13429935D01*
X7552334Y13696759D01*
X7590621Y13976427D01*
X7573611Y14258190D01*
X7501960Y14531221D01*
X7378419Y14785028D01*
X7347729Y14830960D01*
X8774906Y14830960D01*
X8774906Y13230960D01*
X8779668Y13171243D01*
X8811035Y13069956D01*
X8869377Y12981417D01*
X8950077Y12912638D01*
X9046742Y12869064D01*
X9151720Y12854146D01*
X10751720Y12854146D01*
X10811437Y12858908D01*
X10912724Y12890275D01*
X11001263Y12948617D01*
X11070042Y13029317D01*
X11113616Y13125982D01*
X11128534Y13230960D01*
X11128534Y13305960D01*
X12480976Y13305960D01*
X12642534Y13144402D01*
X12641615Y13140078D01*
X12638432Y12912142D01*
X12679583Y12687929D01*
X12763500Y12475979D01*
X12886987Y12284364D01*
X13045340Y12120385D01*
X13232528Y11990286D01*
X13441421Y11899023D01*
X13664061Y11850072D01*
X13891970Y11845298D01*
X14116465Y11884883D01*
X14328996Y11967318D01*
X14521467Y12089465D01*
X14686548Y12246669D01*
X14817951Y12432944D01*
X14910670Y12641194D01*
X14961174Y12863488D01*
X14964809Y13123859D01*
X14920532Y13347476D01*
X14833664Y13558234D01*
X14707514Y13748105D01*
X14546887Y13909858D01*
X14357900Y14037331D01*
X14147754Y14125668D01*
X13924452Y14171505D01*
X13696499Y14173097D01*
X13669582Y14167962D01*
X13365237Y14472307D01*
X13441421Y14439023D01*
X13664061Y14390072D01*
X13891970Y14385298D01*
X14116465Y14424883D01*
X14249743Y14476578D01*
X14253815Y14475333D01*
X14297844Y14461366D01*
X14300455Y14461073D01*
X14302971Y14460304D01*
X14348903Y14455639D01*
X14394819Y14450489D01*
X14399968Y14450453D01*
X14400055Y14450444D01*
X14400136Y14450452D01*
X14401800Y14450440D01*
X16802516Y14450440D01*
X16877477Y14307053D01*
X17021170Y14128336D01*
X17196839Y13980932D01*
X17366360Y13887737D01*
X17366360Y13307042D01*
X17334593Y13294207D01*
X17141778Y13168033D01*
X16977143Y13006810D01*
X16846958Y12816679D01*
X16756182Y12604884D01*
X16708273Y12379490D01*
X16705056Y12149083D01*
X16746653Y11922439D01*
X16831479Y11708191D01*
X16956305Y11514500D01*
X17116375Y11348743D01*
X17305591Y11217234D01*
X17516748Y11124982D01*
X17741802Y11075501D01*
X17972181Y11070675D01*
X18199110Y11110688D01*
X18413944Y11194017D01*
X18608502Y11317488D01*
X18775373Y11476396D01*
X18908200Y11664690D01*
X19001924Y11875198D01*
X19035215Y12021734D01*
X24086556Y12021734D01*
X24107729Y11915298D01*
X24199395Y11649758D01*
X24341104Y11407203D01*
X24527411Y11196955D01*
X24751155Y11027093D01*
X25003738Y10904145D01*
X25275454Y10832836D01*
X25499600Y10973131D01*
X25499600Y12245880D01*
X25503600Y12245880D01*
X25503600Y10973131D01*
X25727746Y10832836D01*
X25999462Y10904145D01*
X26252045Y11027093D01*
X26475789Y11196955D01*
X26662096Y11407203D01*
X26803805Y11649758D01*
X26895471Y11915298D01*
X26916644Y12021734D01*
X26776348Y12245880D01*
X25503600Y12245880D01*
X25499600Y12245880D01*
X24226852Y12245880D01*
X24086556Y12021734D01*
X19035215Y12021734D01*
X19052975Y12099901D01*
X19056650Y12363095D01*
X19034686Y12474026D01*
X24086556Y12474026D01*
X24226852Y12249880D01*
X25499600Y12249880D01*
X25499600Y13522629D01*
X25503600Y13522629D01*
X25503600Y12249880D01*
X26776348Y12249880D01*
X26916644Y12474026D01*
X26895471Y12580462D01*
X26803805Y12846002D01*
X26676493Y13063916D01*
X27616110Y13063916D01*
X27632973Y12784630D01*
X27703998Y12514000D01*
X27826455Y12262426D01*
X27886497Y12172569D01*
X28143612Y12113961D01*
X29039532Y13009880D01*
X29045188Y13009880D01*
X29941108Y12113961D01*
X30198223Y12172569D01*
X30339365Y12414155D01*
X30430663Y12678635D01*
X30468610Y12955844D01*
X30451747Y13235130D01*
X30380722Y13505760D01*
X30258265Y13757334D01*
X30198223Y13847191D01*
X29941108Y13905799D01*
X29045188Y13009880D01*
X29039532Y13009880D01*
X28143612Y13905799D01*
X27886497Y13847191D01*
X27745355Y13605605D01*
X27654057Y13341125D01*
X27616110Y13063916D01*
X26676493Y13063916D01*
X26662096Y13088557D01*
X26475789Y13298805D01*
X26252045Y13468667D01*
X25999462Y13591615D01*
X25727746Y13662924D01*
X25503600Y13522629D01*
X25499600Y13522629D01*
X25275454Y13662924D01*
X25003738Y13591615D01*
X24751155Y13468667D01*
X24527411Y13298805D01*
X24341104Y13088557D01*
X24199395Y12846002D01*
X24107729Y12580462D01*
X24086556Y12474026D01*
X19034686Y12474026D01*
X19011893Y12589136D01*
X18924083Y12802178D01*
X18796565Y12994108D01*
X18634197Y13157613D01*
X18443162Y13286468D01*
X18366360Y13318753D01*
X18366360Y13888853D01*
X18522280Y13971758D01*
X18699990Y14116694D01*
X18846164Y14293388D01*
X18955234Y14495109D01*
X19023046Y14714173D01*
X19047016Y14942237D01*
X19026233Y15170613D01*
X18961486Y15390603D01*
X18855243Y15593827D01*
X18711550Y15772544D01*
X18535881Y15919948D01*
X18334927Y16030424D01*
X18116341Y16099763D01*
X17888451Y16125325D01*
X17872045Y16125440D01*
X17860675Y16125440D01*
X17632450Y16103062D01*
X17412917Y16036782D01*
X17210440Y15929122D01*
X17032730Y15784186D01*
X16886556Y15607492D01*
X16801638Y15450440D01*
X14961829Y15450440D01*
X14964809Y15663859D01*
X14920532Y15887476D01*
X14833664Y16098234D01*
X14707514Y16288105D01*
X14546887Y16449858D01*
X14357900Y16577331D01*
X14147754Y16665668D01*
X13924452Y16711505D01*
X13696499Y16713097D01*
X13472578Y16670382D01*
X13261219Y16584987D01*
X13070472Y16460165D01*
X12907602Y16300671D01*
X12778813Y16112580D01*
X12689010Y15903055D01*
X12641615Y15680078D01*
X12638432Y15452142D01*
X12679583Y15227929D01*
X12763500Y15015979D01*
X12886987Y14824364D01*
X12984387Y14723504D01*
X12932016Y14740117D01*
X12928230Y14740542D01*
X12924582Y14741657D01*
X12857899Y14748430D01*
X12791403Y14755889D01*
X12783956Y14755941D01*
X12783811Y14755956D01*
X12783676Y14755943D01*
X12781280Y14755960D01*
X11128534Y14755960D01*
X11128534Y14830960D01*
X11123772Y14890677D01*
X11092405Y14991964D01*
X11034063Y15080503D01*
X10953363Y15149282D01*
X10856698Y15192856D01*
X10751720Y15207774D01*
X9151720Y15207774D01*
X9092003Y15203012D01*
X8990716Y15171645D01*
X8902177Y15113303D01*
X8833398Y15032603D01*
X8789824Y14935938D01*
X8774906Y14830960D01*
X7347729Y14830960D01*
X7317826Y14875713D01*
X7059420Y14935832D01*
X6154548Y14030960D01*
X6148892Y14030960D01*
X5244020Y14935832D01*
X4985614Y14875713D01*
X4843217Y14631985D01*
X4751106Y14365161D01*
X4712819Y14085493D01*
X536383Y14085493D01*
X535765Y14938660D01*
X5246848Y14938660D01*
X6151720Y14033788D01*
X7056592Y14938660D01*
X6996473Y15197066D01*
X6752745Y15339463D01*
X6485921Y15431574D01*
X6206253Y15469861D01*
X5924490Y15452851D01*
X5651459Y15381200D01*
X5397652Y15257659D01*
X5306967Y15197066D01*
X5246848Y14938660D01*
X535765Y14938660D01*
X533553Y17992142D01*
X12638432Y17992142D01*
X12679583Y17767929D01*
X12763500Y17555979D01*
X12886987Y17364364D01*
X13045340Y17200385D01*
X13232528Y17070286D01*
X13441421Y16979023D01*
X13664061Y16930072D01*
X13891970Y16925298D01*
X14116465Y16964883D01*
X14328996Y17047318D01*
X14521467Y17169465D01*
X14686548Y17326669D01*
X14817951Y17512944D01*
X14910670Y17721194D01*
X14961174Y17943488D01*
X14964809Y18203859D01*
X14920532Y18427476D01*
X14833664Y18638234D01*
X14707514Y18828105D01*
X14546887Y18989858D01*
X14357900Y19117331D01*
X14147754Y19205668D01*
X13924452Y19251505D01*
X13696499Y19253097D01*
X13472578Y19210382D01*
X13261219Y19124987D01*
X13070472Y19000165D01*
X12907602Y18840671D01*
X12778813Y18652580D01*
X12689010Y18443055D01*
X12641615Y18220078D01*
X12638432Y17992142D01*
X533553Y17992142D01*
X531821Y20380672D01*
X4611252Y20380672D01*
X4633189Y20270385D01*
X4728067Y19995584D01*
X4874733Y19744573D01*
X5067550Y19526998D01*
X5299109Y19351220D01*
X5560512Y19223995D01*
X5841712Y19150212D01*
X6073680Y19289891D01*
X6073680Y20612640D01*
X4750932Y20612640D01*
X4611252Y20380672D01*
X531821Y20380672D01*
X529981Y22920672D01*
X4611252Y22920672D01*
X4633189Y22810385D01*
X4728067Y22535584D01*
X4874733Y22284573D01*
X5067550Y22066998D01*
X5299109Y21891220D01*
X5312629Y21884640D01*
X5299109Y21878060D01*
X5067550Y21702282D01*
X4874733Y21484707D01*
X4728067Y21233696D01*
X4633189Y20958895D01*
X4611252Y20848608D01*
X4750932Y20616640D01*
X6073680Y20616640D01*
X6073680Y23152640D01*
X4750932Y23152640D01*
X4611252Y22920672D01*
X529981Y22920672D01*
X528141Y25460672D01*
X4611252Y25460672D01*
X4633189Y25350385D01*
X4728067Y25075584D01*
X4874733Y24824573D01*
X5067550Y24606998D01*
X5299109Y24431220D01*
X5312629Y24424640D01*
X5299109Y24418060D01*
X5067550Y24242282D01*
X4874733Y24024707D01*
X4728067Y23773696D01*
X4633189Y23498895D01*
X4611252Y23388608D01*
X4750932Y23156640D01*
X6073680Y23156640D01*
X6073680Y25692640D01*
X4750932Y25692640D01*
X4611252Y25460672D01*
X528141Y25460672D01*
X526300Y28000672D01*
X4611252Y28000672D01*
X4633189Y27890385D01*
X4728067Y27615584D01*
X4874733Y27364573D01*
X5067550Y27146998D01*
X5299109Y26971220D01*
X5312629Y26964640D01*
X5299109Y26958060D01*
X5067550Y26782282D01*
X4874733Y26564707D01*
X4728067Y26313696D01*
X4633189Y26038895D01*
X4611252Y25928608D01*
X4750932Y25696640D01*
X6073680Y25696640D01*
X6073680Y28232640D01*
X4750932Y28232640D01*
X4611252Y28000672D01*
X526300Y28000672D01*
X524459Y30540672D01*
X4611252Y30540672D01*
X4633189Y30430385D01*
X4728067Y30155584D01*
X4874733Y29904573D01*
X5067550Y29686998D01*
X5299109Y29511220D01*
X5312629Y29504640D01*
X5299109Y29498060D01*
X5067550Y29322282D01*
X4874733Y29104707D01*
X4728067Y28853696D01*
X4633189Y28578895D01*
X4611252Y28468608D01*
X4750932Y28236640D01*
X6073680Y28236640D01*
X6073680Y30772640D01*
X4750932Y30772640D01*
X4611252Y30540672D01*
X524459Y30540672D01*
X522564Y33154390D01*
X4592680Y33154390D01*
X4592680Y32402295D01*
X4617006Y32280001D01*
X4664723Y32164802D01*
X4733997Y32061126D01*
X4822166Y31972957D01*
X4925842Y31903683D01*
X5041041Y31855966D01*
X5058819Y31852430D01*
X4874733Y31644707D01*
X4728067Y31393696D01*
X4633189Y31118895D01*
X4611252Y31008608D01*
X4750932Y30776640D01*
X6073680Y30776640D01*
X6073680Y33312640D01*
X4750930Y33312640D01*
X4592680Y33154390D01*
X522564Y33154390D01*
X521787Y34226985D01*
X4592680Y34226985D01*
X4592680Y33474890D01*
X4750930Y33316640D01*
X6073680Y33316640D01*
X6073680Y34639390D01*
X5915430Y34797640D01*
X5163335Y34797640D01*
X5041041Y34773314D01*
X4925842Y34725597D01*
X4822166Y34656323D01*
X4733997Y34568154D01*
X4664723Y34464478D01*
X4617006Y34349279D01*
X4592680Y34226985D01*
X521787Y34226985D01*
X517777Y39759760D01*
X776300Y39358612D01*
X1263320Y38854287D01*
X1839023Y38454164D01*
X2481479Y38173482D01*
X3166218Y38022932D01*
X3867158Y38008249D01*
X4557600Y38129993D01*
X5211246Y38383526D01*
X5803199Y38759191D01*
X6310912Y39242678D01*
X6715045Y39815574D01*
X7000205Y40456055D01*
X7155532Y41139726D01*
X7166713Y41940507D01*
X7030537Y42628248D01*
X6763371Y43276442D01*
X6375392Y43860398D01*
X5881377Y44357873D01*
X5300144Y44749920D01*
X4878577Y44927130D01*
X4904934Y44937129D01*
X4910232Y44939803D01*
X5449659Y45216732D01*
X5482027Y45237572D01*
X5514722Y45257982D01*
X5519400Y45261634D01*
X5994765Y45638065D01*
X6022477Y45664803D01*
X6050577Y45691167D01*
X6054456Y45695657D01*
X6432852Y46139876D01*
X6447894Y46154825D01*
X7026000Y46154825D01*
X7026000Y45402730D01*
X7184250Y45244480D01*
X8507000Y45244480D01*
X8507000Y46567230D01*
X8511000Y46567230D01*
X8511000Y45244480D01*
X9833750Y45244480D01*
X9845040Y45255770D01*
X9856330Y45244480D01*
X11179080Y45244480D01*
X11179080Y46567230D01*
X11183080Y46567230D01*
X11183080Y45244480D01*
X12505830Y45244480D01*
X12664080Y45402730D01*
X12664080Y46154825D01*
X12639754Y46277119D01*
X12592037Y46392318D01*
X12522763Y46495994D01*
X12434594Y46584163D01*
X12330918Y46653437D01*
X12215719Y46701154D01*
X12093425Y46725480D01*
X11341330Y46725480D01*
X11183080Y46567230D01*
X11179080Y46567230D01*
X11020830Y46725480D01*
X10268735Y46725480D01*
X10146441Y46701154D01*
X10031242Y46653437D01*
X9927566Y46584163D01*
X9845040Y46501637D01*
X9762514Y46584163D01*
X9658838Y46653437D01*
X9543639Y46701154D01*
X9421345Y46725480D01*
X8669250Y46725480D01*
X8511000Y46567230D01*
X8507000Y46567230D01*
X8348750Y46725480D01*
X7596655Y46725480D01*
X7474361Y46701154D01*
X7359162Y46653437D01*
X7255486Y46584163D01*
X7167317Y46495994D01*
X7098043Y46392318D01*
X7050326Y46277119D01*
X7026000Y46154825D01*
X6447894Y46154825D01*
X6449689Y46156608D01*
X6453438Y46161208D01*
X6886499Y46700202D01*
X7384092Y47118022D01*
X7953366Y47431235D01*
X8572632Y47627909D01*
X9237257Y47702688D01*
X9277065Y47702918D01*
X27457533Y47683357D01*
M02*
