M48
;DRILL file {KiCad 4.0.7} date 10/28/18 13:35:02
;FORMAT={-:-/ absolute / inch / decimal}
FMAT,2
INCH,TZ
T1C0.020
T2C0.030
T3C0.031
T4C0.035
T5C0.039
T6C0.059
T7C0.126
%
G90
G05
M72
T1
X0.0469Y1.6374
X0.0475Y0.2584
X0.0746Y1.7042
X0.0746Y1.5706
X0.0752Y0.3252
X0.0752Y0.1916
X0.1414Y1.7319
X0.1414Y1.5429
X0.142Y0.3529
X0.142Y0.1639
X0.2082Y1.7042
X0.2082Y1.5706
X0.2088Y0.3252
X0.2088Y0.1916
X0.2359Y1.6374
X0.2365Y0.2584
X1.4247Y1.6368
X1.4257Y0.2572
X1.4524Y1.7036
X1.4524Y1.57
X1.4534Y0.324
X1.4534Y0.1904
X1.5192Y1.7313
X1.5192Y1.5423
X1.5202Y0.3517
X1.5202Y0.1627
X1.586Y1.7036
X1.586Y1.57
X1.587Y0.324
X1.587Y0.1904
X1.6137Y1.6368
X1.6147Y0.2572
T2
X0.6672Y1.5486
X0.6672Y0.9486
X1.027Y0.9486
X1.0272Y1.5486
T3
X0.2422Y0.5524
X0.3918Y0.5524
X0.5434Y1.6122
X0.5434Y1.5122
X0.5434Y1.4122
X0.5434Y1.3122
X0.5434Y1.2122
X0.5434Y1.1122
X0.5434Y1.0122
X0.5434Y0.9122
X0.5434Y0.8122
X0.5434Y0.7122
X0.5434Y0.6122
X0.5434Y0.5122
X0.5434Y0.4122
X0.5434Y0.3122
X0.5434Y0.2122
X0.7034Y0.5886
X0.704Y0.4822
X1.0034Y0.5886
X1.004Y0.4822
X1.1434Y1.6122
X1.1434Y1.5122
X1.1434Y1.4122
X1.1434Y1.3122
X1.1434Y1.2122
X1.1434Y1.1122
X1.1434Y1.0122
X1.1434Y0.9122
X1.1434Y0.8122
X1.1434Y0.7122
X1.1434Y0.6122
X1.1434Y0.5122
X1.1434Y0.4122
X1.1434Y0.3122
X1.1434Y0.2122
T4
X0.7012Y0.3318
X1.0012Y0.3318
T5
X0.2392Y1.3116
X0.2392Y1.2116
X0.2392Y1.1116
X0.2392Y1.0116
X0.2392Y0.9116
X0.2392Y0.8116
X0.335Y1.7812
X0.335Y1.6812
X0.335Y1.5812
X0.3402Y1.3114
X0.3402Y1.2114
X0.3402Y1.1114
X0.3402Y1.0114
X0.3402Y0.9114
X0.3402Y0.8114
X0.44Y1.3114
X0.44Y1.2114
X0.44Y1.1114
X0.44Y1.0114
X0.44Y0.9114
X0.44Y0.8114
X0.4402Y1.7812
X0.4402Y1.6812
X0.4402Y1.5812
X0.589Y0.086
X0.689Y0.086
X0.789Y0.086
X0.889Y0.086
X0.989Y0.086
X1.089Y0.086
X1.2426Y1.3112
X1.2426Y1.2112
X1.2426Y1.1112
X1.2426Y1.0112
X1.2426Y0.9112
X1.2426Y0.8112
X1.2444Y1.6124
X1.2444Y1.5124
X1.2444Y1.4124
X1.2962Y0.55
X1.3432Y1.3112
X1.3432Y1.2112
X1.3432Y1.1112
X1.3432Y1.0112
X1.3432Y0.9112
X1.3432Y0.8112
X1.4448Y1.3106
X1.4448Y1.2106
X1.4448Y1.1106
X1.4448Y1.0106
X1.4448Y0.9106
X1.4448Y0.8106
X1.4931Y0.55
T6
X1.091Y1.784
X1.3004Y1.784
T7
X0.1414Y1.6374
X0.142Y0.2584
X1.5192Y1.6368
X1.5202Y0.2572
T0
M30
